<svg width="250" height="250" viewBox="0 0 250 250" fill="none" xmlns="http://www.w3.org/2000/svg">
    <path fill-rule="evenodd" clip-rule="evenodd"
        d="M126.122 104.621C126.384 104.681 126.658 104.772 126.859 104.839C126.871 104.843 126.882 104.847 126.893 104.851C127.336 104.998 127.816 105.173 128.293 105.346C128.622 105.466 128.949 105.585 129.262 105.694C129.885 105.902 130.49 106.14 131.072 106.368C131.23 106.431 131.387 106.492 131.542 106.553C131.543 106.553 131.544 106.553 131.545 106.553L133.736 107.394C134.12 107.544 134.494 107.693 134.861 107.839L134.864 107.84C135.233 107.988 135.596 108.133 135.969 108.277L135.98 108.282L135.992 108.286C136.402 108.455 136.773 108.59 137.172 108.735C137.486 108.849 137.818 108.969 138.2 109.117C139.357 109.562 140.364 110.134 140.969 110.992C141.601 111.849 141.759 113.049 141.759 114.223V129.063C141.759 130.722 141.481 132.193 140.947 133.5C140.394 134.855 139.464 136.05 138.33 137.136L138.321 137.144L138.312 137.153C137.141 138.231 135.642 139.326 133.807 140.518C132.023 141.705 129.778 143.142 127.07 144.789L127.024 144.817L126.976 144.84C126.875 144.891 126.765 144.94 126.677 144.98C126.666 144.985 126.655 144.99 126.645 144.994C126.542 145.04 126.446 145.084 126.344 145.135C125.875 145.369 125.416 145.438 125.014 145.438C124.635 145.438 124.206 145.377 123.765 145.174C123.48 145.069 123.207 144.924 123.096 144.864C123.075 144.853 123.06 144.845 123.051 144.84L122.992 144.811L122.937 144.776C120.287 143.097 118.05 141.665 116.189 140.442C114.329 139.276 112.835 138.138 111.674 137.069L111.664 137.06L111.655 137.052C110.523 135.967 109.597 134.777 109.045 133.473L109.041 133.465L109.038 133.458C108.504 132.151 108.227 130.68 108.227 129.021V114.223C108.227 113.019 108.394 111.847 109.003 110.97C109.616 110.087 110.689 109.511 111.809 109.108C112.058 109.017 112.294 108.931 112.523 108.848C113.05 108.656 113.541 108.478 114.059 108.277C114.447 108.126 114.823 107.987 115.189 107.851L115.193 107.85C115.563 107.713 115.923 107.579 116.292 107.436C116.664 107.292 117.027 107.147 117.397 106.999L117.399 106.998C117.766 106.852 118.14 106.703 118.525 106.553C118.919 106.401 119.31 106.26 119.685 106.125L119.692 106.122C120.073 105.985 120.438 105.853 120.8 105.713C121.194 105.56 121.585 105.419 121.96 105.284L121.967 105.281C122.348 105.144 122.713 105.012 123.075 104.872L123.105 104.86L123.134 104.851C123.145 104.847 123.157 104.843 123.168 104.839C123.395 104.764 123.714 104.658 124.004 104.6L124.025 104.596L124.045 104.592C124.055 104.591 124.065 104.589 124.076 104.587C124.31 104.548 124.653 104.491 125.014 104.491C125.03 104.491 125.048 104.491 125.067 104.491C125.289 104.489 125.709 104.487 126.122 104.621ZM125.202 107.055C125.148 107.054 125.09 107.054 125.014 107.054C124.889 107.054 124.746 107.075 124.49 107.117C124.379 107.141 124.22 107.191 123.973 107.273C123.589 107.422 123.208 107.559 122.843 107.691L122.836 107.693C122.454 107.831 122.09 107.962 121.727 108.103C121.334 108.255 120.942 108.396 120.567 108.532L120.561 108.534C120.179 108.671 119.814 108.803 119.452 108.943C119.08 109.088 118.717 109.233 118.347 109.38L118.344 109.381C117.977 109.528 117.604 109.677 117.219 109.826C116.831 109.977 116.454 110.116 116.088 110.252L116.084 110.254C115.714 110.391 115.355 110.524 114.986 110.667C114.441 110.879 113.91 111.072 113.371 111.268C113.145 111.349 112.919 111.432 112.689 111.516L112.685 111.518L112.68 111.519C111.696 111.873 111.254 112.222 111.109 112.431C110.96 112.646 110.79 113.157 110.79 114.223V129.021C110.79 130.385 111.017 131.519 111.408 132.48C111.782 133.358 112.453 134.264 113.42 135.192C114.446 136.136 115.81 137.179 117.562 138.277L117.574 138.284L117.586 138.292C119.419 139.498 121.628 140.912 124.258 142.578C124.29 142.595 124.319 142.61 124.344 142.623L124.355 142.629C124.402 142.654 124.441 142.674 124.48 142.694C124.556 142.732 124.613 142.756 124.66 142.771L124.746 142.8L124.827 142.841C124.85 142.852 124.871 142.859 124.895 142.864C124.921 142.869 124.958 142.874 125.014 142.874C125.069 142.874 125.106 142.869 125.132 142.864C125.156 142.859 125.177 142.852 125.2 142.841C125.351 142.765 125.487 142.704 125.595 142.655L125.62 142.644C125.695 142.611 125.747 142.587 125.789 142.567C128.449 140.949 130.65 139.54 132.393 138.38L132.399 138.376L132.405 138.372C134.186 137.215 135.547 136.212 136.566 135.276C137.534 134.347 138.201 133.443 138.574 132.53C138.967 131.567 139.195 130.431 139.195 129.063V114.223C139.195 113.135 139.017 112.663 138.904 112.513L138.89 112.493L138.876 112.473C138.72 112.249 138.303 111.903 137.279 111.51L137.274 111.508C137.013 111.407 136.71 111.296 136.395 111.18C135.933 111.011 135.445 110.833 135.03 110.663C134.649 110.515 134.279 110.367 133.916 110.222L133.913 110.221C133.544 110.074 133.182 109.929 132.81 109.785C132.81 109.785 132.809 109.785 132.808 109.784L130.622 108.945L130.617 108.943C130.438 108.874 130.266 108.806 130.098 108.74C129.524 108.515 128.999 108.309 128.443 108.124L128.434 108.121L128.425 108.118C128.028 107.979 127.679 107.851 127.348 107.731C126.917 107.573 126.517 107.427 126.084 107.283C125.806 107.191 125.637 107.137 125.521 107.114L125.406 107.091L125.334 107.062C125.33 107.061 125.324 107.061 125.318 107.06C125.292 107.058 125.255 107.056 125.202 107.055Z"
        fill="#ED2939" />
    <path fill-rule="evenodd" clip-rule="evenodd"
        d="M126.783 91.0236C127.207 91.12 127.659 91.2712 128.009 91.3883L128.059 91.405C128.803 91.654 129.596 91.9443 130.392 92.2354C130.946 92.4384 131.502 92.6418 132.043 92.8318C133.082 93.1796 134.086 93.5762 135.065 93.9629C135.333 94.069 135.6 94.1744 135.866 94.2779C135.867 94.2783 135.868 94.2787 135.869 94.279L139.553 95.7006L139.556 95.7017C140.202 95.9537 140.829 96.2052 141.448 96.4533L141.451 96.4547C142.073 96.7041 142.686 96.95 143.315 97.1955L143.331 97.2017L143.347 97.2081C144.038 97.4935 144.68 97.7284 145.365 97.9784C145.895 98.1721 146.45 98.3748 147.071 98.6171C148.998 99.3607 150.592 100.291 151.529 101.632C152.504 102.956 152.772 104.856 152.772 106.826V131.936C152.772 134.69 152.314 137.117 151.441 139.266C150.542 141.479 149.022 143.45 147.142 145.26L147.13 145.272L147.118 145.283C145.174 147.083 142.674 148.92 139.594 150.932C136.596 152.937 132.82 155.366 128.266 158.149L128.205 158.187L128.141 158.219C127.98 158.3 127.804 158.379 127.653 158.447C127.635 158.455 127.617 158.463 127.6 158.471C127.426 158.549 127.257 158.626 127.077 158.717C126.362 159.076 125.661 159.183 125.035 159.183C124.441 159.183 123.779 159.086 123.102 158.77C122.659 158.609 122.238 158.384 122.031 158.273C121.986 158.249 121.951 158.23 121.928 158.219L121.85 158.18L121.776 158.133C117.313 155.291 113.55 152.869 110.42 150.8C107.306 148.838 104.812 146.929 102.881 145.141L102.869 145.13L102.857 145.118C100.978 143.309 99.4649 141.346 98.5666 139.216L98.5622 139.206L98.5579 139.195C97.685 137.046 97.2266 134.619 97.2266 131.865V106.826C97.2266 104.814 97.5084 102.953 98.4511 101.587C99.3996 100.213 101.096 99.2786 102.959 98.6052C103.374 98.4518 103.77 98.3071 104.156 98.1663C105.045 97.8414 105.878 97.5374 106.754 97.1955C107.405 96.9418 108.035 96.7068 108.653 96.477L108.658 96.4749C109.28 96.2431 109.889 96.0163 110.513 95.7729C111.142 95.5274 111.755 95.2814 112.377 95.032L112.381 95.0306C112.999 94.7825 113.626 94.531 114.272 94.279C114.93 94.0225 115.584 93.7854 116.217 93.5563L116.226 93.553C116.867 93.3207 117.486 93.0965 118.102 92.8564C118.759 92.5998 119.414 92.3627 120.046 92.1337L120.056 92.1303C120.697 91.898 121.316 91.6738 121.931 91.4337L121.971 91.4184L122.011 91.405C122.027 91.3995 122.044 91.394 122.061 91.3883C122.448 91.2586 122.961 91.0871 123.422 90.9946L123.449 90.9891L123.476 90.9846C123.491 90.9821 123.506 90.9795 123.522 90.977C123.919 90.9104 124.465 90.8189 125.035 90.8189C125.062 90.8189 125.092 90.8188 125.123 90.8187C125.507 90.8171 126.157 90.8144 126.783 91.0236ZM125.584 94.2489C125.456 94.2382 125.3 94.2371 125.035 94.2371C124.781 94.2371 124.504 94.2786 124.071 94.3508C123.852 94.3971 123.556 94.4928 123.134 94.6337C122.489 94.8843 121.848 95.1165 121.229 95.3409L121.22 95.3442C120.578 95.5765 119.959 95.8007 119.344 96.0409C118.686 96.2974 118.031 96.5346 117.399 96.7636L117.39 96.7669C116.748 96.9992 116.13 97.2234 115.514 97.4636C114.885 97.7091 114.272 97.955 113.65 98.2044L113.646 98.2059C113.028 98.4539 112.401 98.7054 111.755 98.9574C111.105 99.2111 110.474 99.4461 109.857 99.676L109.851 99.678C109.229 99.9099 108.621 100.137 107.996 100.38C107.084 100.736 106.197 101.06 105.291 101.391C104.911 101.53 104.528 101.67 104.138 101.814L104.132 101.816L104.126 101.818C102.445 102.425 101.591 103.055 101.264 103.529C100.93 104.013 100.645 104.996 100.645 106.826V131.865C100.645 134.228 101.036 136.208 101.72 137.898C102.382 139.46 103.558 141.046 105.215 142.644C106.967 144.264 109.287 146.047 112.258 147.918L112.274 147.928L112.289 147.938C115.382 149.983 119.108 152.381 123.544 155.206C123.607 155.238 123.669 155.271 123.72 155.298C123.8 155.341 123.869 155.377 123.939 155.412C124.078 155.482 124.193 155.532 124.3 155.568L124.416 155.607L124.524 155.661C124.66 155.729 124.81 155.764 125.035 155.764C125.26 155.764 125.41 155.729 125.545 155.661C125.791 155.538 126.013 155.437 126.193 155.356L126.24 155.335C126.373 155.274 126.469 155.231 126.551 155.192C131.041 152.446 134.758 150.054 137.702 148.086L137.709 148.081L137.717 148.075C140.725 146.111 143.042 144.396 144.783 142.786C146.443 141.186 147.614 139.604 148.274 137.98C148.961 136.287 149.354 134.304 149.354 131.936V106.826C149.354 104.968 149.058 104.035 148.772 103.653L148.753 103.627L148.734 103.6C148.393 103.106 147.585 102.479 145.838 101.805L145.835 101.804L145.832 101.803C145.372 101.623 144.855 101.433 144.323 101.238C143.554 100.955 142.756 100.662 142.058 100.374C141.417 100.124 140.795 99.8746 140.182 99.6286L140.178 99.6271C139.558 99.3781 138.946 99.1325 138.317 98.8874C138.316 98.887 138.315 98.8866 138.314 98.8862L134.629 97.4647L134.626 97.4636C134.329 97.3478 134.042 97.2341 133.76 97.1229C132.791 96.7405 131.895 96.3864 130.947 96.0695L130.935 96.0655L130.922 96.0612C130.268 95.8315 129.683 95.6168 129.126 95.4123C128.392 95.1428 127.706 94.8912 126.975 94.6468C126.517 94.4936 126.203 94.3916 125.975 94.346L125.821 94.315L125.69 94.2626C125.679 94.2602 125.646 94.2541 125.584 94.2489Z"
        fill="#ED2939" fill-opacity="0.5" />
    <path fill-rule="evenodd" clip-rule="evenodd"
        d="M127.882 68.9303C128.574 69.0867 129.317 69.3357 129.904 69.5323L129.982 69.5585C131.214 69.9708 132.518 70.4489 133.83 70.9299C134.749 71.2668 135.672 71.6052 136.576 71.9233C138.29 72.4976 139.944 73.152 141.565 73.7928C142.011 73.9693 142.454 74.1447 142.896 74.3172C142.897 74.3177 142.899 74.3183 142.9 74.3189L149.002 76.6758L149.007 76.6775C150.075 77.0947 151.112 77.5112 152.135 77.9225L152.141 77.9249C153.171 78.3384 154.187 78.7466 155.23 79.1541L155.254 79.1633L155.277 79.173C156.422 79.6464 157.498 80.0401 158.638 80.4573C159.517 80.7788 160.433 81.1143 161.449 81.511C164.627 82.7388 167.205 84.2586 168.711 86.4164C170.272 88.537 170.718 91.6112 170.718 94.8685V136.499C170.718 141.034 169.964 145.022 168.533 148.548C167.064 152.171 164.575 155.408 161.479 158.393L161.461 158.41L161.442 158.427C158.239 161.397 154.115 164.433 149.019 167.766C144.058 171.087 137.809 175.113 130.271 179.726L130.18 179.782L130.084 179.83C129.822 179.962 129.535 180.091 129.286 180.204C129.255 180.218 129.226 180.231 129.196 180.244C128.908 180.374 128.625 180.504 128.322 180.656C127.182 181.228 126.064 181.4 125.058 181.4C124.101 181.4 123.042 181.245 121.959 180.736C121.247 180.478 120.572 180.117 120.219 179.929C120.139 179.886 120.076 179.852 120.033 179.83L119.915 179.772L119.805 179.701C112.414 174.989 106.184 170.975 101.003 167.546C95.8566 164.298 91.741 161.143 88.5568 158.192L88.5384 158.175L88.5203 158.157C85.4266 155.174 82.9472 151.948 81.4786 148.462L81.472 148.446L81.4655 148.43C80.0351 144.904 79.2812 140.916 79.2812 136.381V94.8685C79.2812 91.548 79.7481 88.5319 81.2607 86.3375C82.7825 84.13 85.5256 82.6046 88.5968 81.4932C89.2823 81.2396 89.9375 81 90.5755 80.7666C92.0497 80.2276 93.4322 79.722 94.8861 79.1541C95.9613 78.7342 97.0042 78.3452 98.0265 77.9638L98.0346 77.9608C99.0646 77.5766 100.074 77.2 101.11 76.7955C102.153 76.3879 103.169 75.9797 104.199 75.5663L104.204 75.5641C105.228 75.1527 106.265 74.7361 107.333 74.3189C108.419 73.8947 109.501 73.5025 110.549 73.1225L110.563 73.1175C111.624 72.7325 112.652 72.3597 113.674 71.9602C114.761 71.536 115.842 71.1438 116.89 70.7638L116.904 70.7588C117.965 70.3738 118.993 70.0011 120.016 69.6016L120.074 69.5786L120.213 69.5323C120.858 69.3161 121.692 69.0365 122.44 68.8864L122.48 68.8783L122.521 68.8714C122.544 68.8675 122.568 68.8636 122.592 68.8596C123.252 68.7489 124.138 68.6004 125.058 68.6004C125.103 68.6004 125.151 68.6002 125.201 68.6C125.845 68.5977 126.888 68.594 127.882 68.9303ZM125.989 73.7482C125.764 73.7293 125.495 73.7276 125.058 73.7276C124.612 73.7276 124.131 73.8009 123.414 73.9206C123.031 74.0011 122.522 74.1663 121.821 74.4007C120.755 74.816 119.694 75.2008 118.665 75.5739L118.652 75.5789C117.59 75.9639 116.563 76.3367 115.54 76.7362C114.454 77.1603 113.372 77.5526 112.324 77.9326L112.311 77.9376C111.249 78.3225 110.222 78.6953 109.199 79.0948C108.155 79.5024 107.139 79.9106 106.11 80.324L106.104 80.3262C105.08 80.7376 104.043 81.1542 102.975 81.5714C101.9 81.9913 100.857 82.3803 99.8349 82.7616L99.8266 82.7647C98.7965 83.149 97.7871 83.5256 96.7514 83.9301C95.2434 84.519 93.779 85.0546 92.2803 85.6027C91.6506 85.833 91.0149 86.0655 90.3673 86.3051L90.3583 86.3084L90.3493 86.3117C87.5529 87.3227 86.0726 88.3911 85.4822 89.2475C84.8811 90.1195 84.4085 91.8207 84.4085 94.8685V136.381C84.4085 140.33 85.0614 143.648 86.2103 146.487C87.3239 149.122 89.2982 151.782 92.061 154.449C94.9758 157.148 98.8316 160.115 103.762 163.224L103.786 163.239L103.81 163.255C108.934 166.646 115.109 170.625 122.458 175.312C122.565 175.367 122.669 175.423 122.758 175.47C122.891 175.54 123.007 175.602 123.126 175.661C123.362 175.78 123.565 175.869 123.758 175.934L123.932 175.992L124.095 176.074C124.364 176.209 124.655 176.273 125.058 176.273C125.461 176.273 125.752 176.209 126.021 176.074C126.423 175.872 126.786 175.707 127.085 175.572L127.163 175.537C127.388 175.435 127.553 175.36 127.694 175.292C135.137 170.735 141.298 166.765 146.178 163.498L146.189 163.49L146.201 163.483C151.188 160.221 155.039 157.369 157.938 154.685C160.703 152.015 162.671 149.361 163.782 146.621C164.935 143.779 165.59 140.455 165.59 136.499V94.8685C165.59 91.778 165.102 90.153 164.573 89.4444L164.544 89.4055L164.517 89.3655C163.905 88.4788 162.505 87.4154 159.597 86.2922L159.593 86.2905L159.589 86.2887C158.815 85.9867 157.955 85.6701 157.073 85.3457C155.807 84.8798 154.497 84.398 153.342 83.921C152.281 83.5066 151.251 83.093 150.235 82.6845L150.23 82.6827C149.202 82.2698 148.188 81.8621 147.146 81.4552C147.144 81.4546 147.143 81.454 147.141 81.4535L141.039 79.0966L141.035 79.0948C140.546 78.9038 140.071 78.716 139.605 78.532C138.001 77.8975 136.507 77.3071 134.93 76.7792L134.912 76.7731L134.894 76.7668C133.819 76.389 132.852 76.0336 131.929 75.6944C130.708 75.246 129.565 74.826 128.354 74.4206C127.6 74.1682 127.063 73.9929 126.667 73.9133L126.435 73.8668L126.223 73.7816C126.214 73.7789 126.148 73.7615 125.989 73.7482Z"
        fill="#ED2939" fill-opacity="0.2" />
    <path fill-rule="evenodd" clip-rule="evenodd"
        d="M129.328 38.3297C130.381 38.5655 131.526 38.9494 132.456 39.2611L132.566 39.298C134.478 39.9386 136.486 40.6755 138.516 41.4202C139.946 41.9451 141.387 42.4738 142.813 42.9753C145.461 43.8636 148.016 44.8747 150.534 45.8713C151.23 46.1467 151.923 46.4209 152.615 46.6912C152.617 46.692 152.619 46.6927 152.621 46.6935L162.107 50.3602L162.113 50.3626C163.771 51.0108 165.381 51.6582 166.974 52.2985L166.98 52.301C168.58 52.9439 170.162 53.5799 171.787 54.215L171.818 54.2273L171.85 54.2403C173.631 54.9773 175.328 55.599 177.115 56.2537C178.483 56.7548 179.904 57.2754 181.456 57.8819C186.366 59.7807 190.246 62.0954 192.488 65.3137C194.802 68.4561 195.5 73.0793 195.5 78.1287V142.887C195.5 149.876 194.339 156.006 192.147 161.415C189.902 166.953 186.09 171.924 181.313 176.534L181.289 176.557L181.264 176.58C176.318 181.168 169.936 185.872 162.025 191.05C154.32 196.212 144.612 202.47 132.9 209.643L132.778 209.718L132.65 209.782C132.254 209.981 131.82 210.177 131.43 210.353L131.291 210.416C130.842 210.619 130.393 210.824 129.912 211.066C128.236 211.908 126.589 212.164 125.091 212.164C123.659 212.164 122.091 211.93 120.491 211.174C119.427 210.791 118.424 210.256 117.858 209.953C117.723 209.881 117.613 209.822 117.533 209.782L117.376 209.704L117.229 209.609C105.74 202.278 96.0559 196.035 88.0059 190.703C80.0272 185.666 73.6568 180.778 68.736 176.213L68.7115 176.19L68.6874 176.167C63.9134 171.561 60.1143 166.603 57.8709 161.274L57.862 161.253L57.8535 161.232C55.6608 155.823 54.5 149.693 54.5 142.703V78.1287C54.5 72.9939 55.2262 68.4488 57.4762 65.1825C59.7387 61.8981 63.8636 59.5758 68.6079 57.8579C69.6696 57.4648 70.6861 57.0928 71.6773 56.73C73.9716 55.8904 76.1297 55.1006 78.3956 54.215C80.0628 53.5634 81.6804 52.9596 83.2706 52.366L83.2817 52.3618C84.8824 51.7643 86.4554 51.1771 88.07 50.546C89.695 49.9109 91.2771 49.2749 92.8765 48.6319L92.8836 48.6291C94.4762 47.9889 96.0862 47.3416 97.7444 46.6935C99.4262 46.0362 101.102 45.4281 102.733 44.8363L102.751 44.8296C104.4 44.2311 106.004 43.6489 107.601 43.0245C109.283 42.3672 110.959 41.7591 112.589 41.1673L112.608 41.1605C114.257 40.562 115.861 39.9799 117.458 39.3555L117.537 39.3248L117.727 39.2611C118.739 38.9218 120.006 38.497 121.132 38.2707L121.186 38.2598L121.34 38.234C122.372 38.0609 123.708 37.8368 125.091 37.8368C125.16 37.8368 125.231 37.8366 125.305 37.8364C126.324 37.8335 127.871 37.8291 129.328 38.3297ZM127.102 44.7934C126.928 44.7236 126.569 44.6732 125.091 44.6732C124.342 44.6732 123.545 44.7967 122.431 44.983C121.793 45.1162 120.961 45.3877 119.867 45.7538C118.212 46.3992 116.564 46.9975 114.959 47.58L114.94 47.5868C113.291 48.1853 111.687 48.7675 110.09 49.3918C108.408 50.0492 106.732 50.6573 105.102 51.2491L105.083 51.2558C103.434 51.8543 101.83 52.4365 100.233 53.0609C98.608 53.696 97.0259 54.3319 95.4265 54.9749L95.4194 54.9778C93.8268 55.618 92.2168 56.2652 90.5586 56.9133C88.8914 57.565 87.2737 58.1688 85.6834 58.7624L85.6725 58.7665C84.0719 59.364 82.4988 59.9513 80.8842 60.5824C78.5461 61.4962 76.279 62.3259 73.9518 63.1776C72.9718 63.5362 71.981 63.8988 70.9699 64.2732L70.9579 64.2776L70.9459 64.282C66.5686 65.8658 64.1273 67.5782 63.1061 69.0607C62.0704 70.5642 61.3364 73.3571 61.3364 78.1287V142.703C61.3364 148.913 62.3627 154.15 64.1804 158.642C65.951 162.838 69.077 167.039 73.4102 171.224C77.9718 175.452 83.9956 180.089 91.6861 184.942L91.7181 184.962L91.7495 184.983C99.724 190.265 109.333 196.461 120.767 203.758C120.92 203.837 121.072 203.917 121.208 203.989L121.251 204.012C121.457 204.121 121.644 204.22 121.835 204.316C122.214 204.506 122.556 204.659 122.891 204.771L123.123 204.848L123.34 204.958C123.855 205.216 124.398 205.328 125.091 205.328C125.784 205.328 126.328 205.216 126.842 204.958C127.456 204.649 128.011 204.396 128.474 204.187L128.599 204.13C128.958 203.968 129.227 203.846 129.461 203.733C141.047 196.635 150.638 190.45 158.235 185.36L158.251 185.349L158.266 185.339C166.033 180.257 172.05 175.798 176.59 171.59C180.927 167.402 184.043 163.208 185.811 158.847C187.634 154.35 188.664 149.106 188.664 142.887V78.1287C188.664 73.3001 187.909 70.6089 186.969 69.3494L186.931 69.2975L186.894 69.2441C185.845 67.7214 183.536 66.0155 178.985 64.256L178.979 64.2537L178.973 64.2514C177.745 63.7714 176.399 63.276 175.027 62.7711C173.071 62.0512 171.062 61.3119 169.267 60.5702C167.62 59.9261 166.02 59.283 164.437 58.6468L164.43 58.644C162.833 58.0017 161.252 57.3664 159.629 56.7319C159.627 56.7312 159.626 56.7306 159.624 56.7299L150.138 53.0632L150.132 53.0609C149.377 52.7658 148.642 52.475 147.92 52.1895C145.423 51.2014 143.083 50.2757 140.616 49.4493L140.592 49.4412L140.568 49.4327C138.916 48.8515 137.416 48.3 135.98 47.7723C134.073 47.0711 132.279 46.4118 130.394 45.7803C129.233 45.3913 128.362 45.1054 127.703 44.9731L127.394 44.9109L127.102 44.7934Z"
        fill="#ED2939" fill-opacity="0.1" />
</svg>