<svg width="80" height="80" viewBox="0 0 80 80" fill="none" xmlns="http://www.w3.org/2000/svg">
    <path
        d="M40.3525 72.8984C39.9652 72.8984 39.5664 72.8073 39.1562 72.625C38.7461 72.4427 38.4043 72.2718 38.1309 72.1123C33.528 69.1956 29.6771 66.7119 26.5781 64.6611C23.4792 62.6331 21.0068 60.7646 19.1611 59.0557C17.3154 57.3467 15.9938 55.5693 15.1963 53.7236C14.3988 51.8551 14 49.6221 14 47.0244V21.3896C14 19.4756 14.2962 18.0856 14.8887 17.2197C15.5039 16.3538 16.723 15.5791 18.5459 14.8955C19.8675 14.417 21.1663 13.9385 22.4424 13.46C23.7184 12.9587 24.9945 12.4688 26.2705 11.9902C27.5693 11.4889 28.8568 10.9876 30.1328 10.4863C31.4316 9.98503 32.7305 9.49512 34.0293 9.0166C35.3281 8.5153 36.627 8.02539 37.9258 7.54688C38.3587 7.38737 38.7689 7.26204 39.1562 7.1709C39.5436 7.05697 39.9424 7 40.3525 7C40.7855 7 41.1842 7.05697 41.5488 7.1709C41.9362 7.26204 42.3464 7.38737 42.7793 7.54688C44.1009 8.0026 45.4111 8.46973 46.71 8.94824C48.0088 9.42676 49.2962 9.91667 50.5723 10.418C51.8483 10.9193 53.1243 11.4206 54.4004 11.9219C55.6992 12.4004 56.9867 12.9017 58.2627 13.4258C59.5387 13.9271 60.8376 14.417 62.1592 14.8955C63.9821 15.6019 65.1898 16.388 65.7822 17.2539C66.3975 18.097 66.7051 19.4756 66.7051 21.3896V47.0244C66.7051 49.6221 66.3063 51.8665 65.5088 53.7578C64.734 55.6491 63.4352 57.4606 61.6123 59.1924C59.7894 60.9014 57.3171 62.7585 54.1953 64.7637C51.0964 66.7917 47.234 69.2412 42.6084 72.1123C42.3122 72.2718 41.959 72.4427 41.5488 72.625C41.1387 72.8073 40.7399 72.8984 40.3525 72.8984ZM40.3525 71.2236C40.6488 71.2236 40.9564 71.1325 41.2754 70.9502C41.6172 70.7679 41.8906 70.6084 42.0957 70.4717C46.0605 67.8285 49.4899 65.584 52.3838 63.7383C55.2777 61.8926 57.6589 60.1836 59.5273 58.6113C61.3958 57.0163 62.7744 55.3187 63.6631 53.5186C64.5518 51.7184 64.9961 49.5537 64.9961 47.0244V21.6973C64.9961 20.2845 64.8252 19.2591 64.4834 18.6211C64.1644 17.9603 63.515 17.4362 62.5352 17.0488C61.8743 16.7982 60.8717 16.4108 59.5273 15.8867C58.2057 15.3626 56.7132 14.7816 55.0498 14.1436C53.3864 13.4827 51.723 12.8333 50.0596 12.1953C48.3962 11.5573 46.8923 10.9876 45.5479 10.4863C44.2262 9.96224 43.2236 9.57487 42.54 9.32422C42.0843 9.16471 41.6628 9.02799 41.2754 8.91406C40.888 8.77734 40.5804 8.70898 40.3525 8.70898C40.1247 8.70898 39.8057 8.76595 39.3955 8.87988C39.0081 8.99382 38.5866 9.14193 38.1309 9.32422C37.4928 9.57487 36.5016 9.96224 35.1572 10.4863C33.8128 10.9876 32.3089 11.5573 30.6455 12.1953C28.9821 12.8333 27.3187 13.4827 25.6553 14.1436C24.0146 14.8044 22.5221 15.3854 21.1777 15.8867C19.8561 16.388 18.8535 16.7754 18.1699 17.0488C17.1901 17.4362 16.5293 17.9603 16.1875 18.6211C15.8457 19.2591 15.6748 20.2845 15.6748 21.6973V47.0244C15.6748 49.5537 16.1191 51.7298 17.0078 53.5527C17.9193 55.3529 19.2979 57.0505 21.1436 58.6455C23.012 60.2406 25.3932 61.9609 28.2871 63.8066C31.181 65.6523 34.6331 67.874 38.6436 70.4717C38.8258 70.6084 39.0765 70.7679 39.3955 70.9502C39.7373 71.1325 40.0563 71.2236 40.3525 71.2236Z"
        fill="#ED2939" />
    <path fill-rule="evenodd" clip-rule="evenodd"
        d="M37.8175 72.625L37.8081 72.6191C33.204 69.7017 29.35 67.216 26.2469 65.1625C23.1322 63.1241 20.6305 61.2354 18.7519 59.4959C16.8599 57.744 15.4818 55.9007 14.6439 53.9616L14.6429 53.9592C13.8061 51.9986 13.3984 49.6814 13.3984 47.0244V21.3897C13.3984 19.441 13.6949 17.8997 14.3919 16.8809L14.3979 16.8722C15.1196 15.8565 16.4792 15.0292 18.3337 14.3337L18.3401 14.3313C19.6581 13.8541 20.9534 13.377 22.2258 12.8998C23.5024 12.3983 24.779 11.9082 26.0556 11.4295C27.3524 10.9289 28.6378 10.4284 29.9119 9.9279L29.9152 9.92659C31.2154 9.42474 32.5157 8.93429 33.816 8.4552C35.1162 7.95338 36.4165 7.46295 37.7168 6.98389C38.1634 6.81937 38.5918 6.68778 39.0015 6.5906C39.4396 6.46338 39.8901 6.40002 40.351 6.40002C40.8287 6.40002 41.2815 6.4619 41.7052 6.59171C42.1116 6.68835 42.5365 6.81882 42.9792 6.9817C44.3028 7.43814 45.615 7.90599 46.9158 8.38526C48.2186 8.86524 49.51 9.35666 50.7901 9.85954L54.6122 11.3611C55.9144 11.8409 57.2053 12.3436 58.4848 12.869C59.7543 13.3677 61.0467 13.8552 62.3619 14.3314L62.3745 14.3359C64.2222 15.0519 65.571 15.8905 66.2707 16.9076C66.9974 17.909 67.3035 19.4454 67.3035 21.3897V47.0244C67.3035 49.6804 66.8962 52.0069 66.0613 53.9882C65.2477 55.9727 63.8937 57.8512 62.024 59.6274L62.0211 59.6301C60.1626 61.3725 57.6584 63.2512 54.5203 65.267C51.4163 67.2983 47.5503 69.7502 42.9233 72.6221L42.9076 72.6319L42.8913 72.6406C42.5782 72.8092 42.2107 72.9868 41.7909 73.1733C41.3162 73.3843 40.8346 73.4985 40.351 73.4985C39.8674 73.4985 39.3858 73.3843 38.911 73.1733C38.4883 72.9855 38.1254 72.8047 37.827 72.6306L37.8175 72.625ZM54.1937 64.7637C57.3155 62.7585 59.7878 60.9014 61.6107 59.1924C63.4337 57.4606 64.7325 55.6491 65.5072 53.7578C66.3048 51.8666 66.7035 49.6221 66.7035 47.0244V21.3897C66.7035 19.4756 66.3959 18.097 65.7807 17.2539C65.1882 16.388 63.9805 15.6019 62.1576 14.8955C60.836 14.417 59.5372 13.9271 58.2611 13.4258C56.9851 12.9017 55.6977 12.4004 54.3988 11.9219L50.5707 10.418C49.2947 9.91669 48.0072 9.42678 46.7084 8.94827C45.4096 8.46975 44.0993 8.00263 42.7777 7.5469C42.3448 7.38739 41.9346 7.26207 41.5473 7.17092C41.1827 7.05699 40.7839 7.00002 40.351 7.00002C39.9408 7.00002 39.5421 7.05699 39.1547 7.17092C38.7673 7.26207 38.3572 7.38739 37.9242 7.5469C36.6254 8.02542 35.3266 8.51532 34.0277 9.01663C32.7289 9.49514 31.4301 9.98505 30.1313 10.4864C28.8552 10.9877 27.5678 11.489 26.2689 11.9903C24.9929 12.4688 23.7169 12.9587 22.4408 13.46C21.1648 13.9385 19.866 14.417 18.5443 14.8955C16.7214 15.5791 15.5023 16.3539 14.8871 17.2198C14.2947 18.0856 13.9984 19.4756 13.9984 21.3897V47.0244C13.9984 49.6221 14.3972 51.8552 15.1947 53.7237C15.9923 55.5694 17.3139 57.3467 19.1596 59.0557C21.0053 60.7647 23.4776 62.6332 26.5766 64.6612C29.6755 66.7119 33.5264 69.1957 38.1293 72.1123C38.4027 72.2718 38.7445 72.4427 39.1547 72.625C39.5648 72.8073 39.9636 72.8985 40.351 72.8985C40.7383 72.8985 41.1371 72.8073 41.5473 72.625C41.9574 72.4427 42.3106 72.2718 42.6068 72.1123C47.2325 69.2412 51.0948 66.7917 54.1937 64.7637ZM40.9837 70.4249L40.9915 70.4208C41.3245 70.2432 41.579 70.094 41.7613 69.9725C45.7283 67.3278 49.1613 65.081 52.0596 63.2324C54.9387 61.3962 57.2962 59.7032 59.1381 58.1534C60.9572 56.6002 62.2783 54.9652 63.1235 53.253C63.9622 51.5541 64.3945 49.4849 64.3945 47.0244V21.6973C64.3945 20.3061 64.2217 19.4061 63.9529 18.9045L63.947 18.8933L63.9415 18.882C63.712 18.4066 63.2147 17.964 62.3167 17.6083C61.6532 17.3566 60.6499 16.9689 59.3079 16.4458L59.3046 16.4445C57.9855 15.9214 56.4952 15.3412 54.8334 14.7038L54.8267 14.7012C53.1655 14.0413 51.5043 13.3927 49.8431 12.7555C48.1811 12.118 46.679 11.5491 45.3367 11.0485L45.3251 11.0442C44.0074 10.5217 43.012 10.137 42.3361 9.88909C41.8897 9.73294 41.4794 9.59995 41.1045 9.48971L41.0892 9.4852L41.0741 9.47988C40.708 9.35067 40.4767 9.30901 40.351 9.30901C40.2062 9.30901 39.9512 9.34806 39.5589 9.4568C39.1942 9.56426 38.7922 9.70532 38.3521 9.88133L38.3487 9.8827C37.7099 10.1336 36.7181 10.5213 35.3736 11.0454L35.3653 11.0486C34.023 11.5491 32.5209 12.118 30.8588 12.7555C29.1981 13.3925 27.5373 14.0409 25.8766 14.7007C24.2334 15.3625 22.7369 15.9451 21.3874 16.4483C20.0675 16.949 19.0694 17.3346 18.3912 17.6059L18.389 17.6068C17.4884 17.9629 16.971 18.4094 16.7189 18.8968L16.7149 18.9045C16.4461 19.4061 16.2732 20.3061 16.2732 21.6973V47.0244C16.2732 49.4827 16.7048 51.5632 17.5436 53.2858C18.4131 55.0014 19.7365 56.6377 21.5331 58.1905C23.3738 59.7617 25.7301 61.4652 28.6082 63.3008C31.5036 65.1475 34.957 67.37 38.9682 69.9681L38.9855 69.9793L39.002 69.9917C39.1548 70.1063 39.379 70.2504 39.6838 70.4248C39.961 70.5715 40.1804 70.6237 40.351 70.6237C40.5205 70.6237 40.7262 70.5721 40.9761 70.4293L40.9837 70.4249ZM21.142 58.6455C19.2963 57.0505 17.9177 55.3529 17.0062 53.5528C16.1176 51.7298 15.6732 49.5537 15.6732 47.0244V21.6973C15.6732 20.2845 15.8441 19.2591 16.1859 18.6211C16.5277 17.9603 17.1885 17.4362 18.1684 17.0489C18.852 16.7754 19.8546 16.388 21.1762 15.8867C22.5206 15.3854 24.0131 14.8044 25.6537 14.1436C27.3171 13.4828 28.9805 12.8334 30.6439 12.1953C32.3074 11.5573 33.8113 10.9877 35.1557 10.4864C36.5001 9.96226 37.4913 9.57489 38.1293 9.32424C38.585 9.14195 39.0066 8.99384 39.3939 8.87991C39.8041 8.76597 40.1231 8.70901 40.351 8.70901C40.5788 8.70901 40.8865 8.77737 41.2738 8.91409C41.6612 9.02802 42.0827 9.16474 42.5385 9.32424C43.2221 9.57489 44.2247 9.96226 45.5463 10.4864C46.8907 10.9877 48.3946 11.5573 50.058 12.1953C51.7214 12.8334 53.3848 13.4828 55.0482 14.1436C56.7117 14.7816 58.2042 15.3627 59.5258 15.8867C60.8702 16.4108 61.8728 16.7982 62.5336 17.0489C63.5134 17.4362 64.1628 17.9603 64.4818 18.6211C64.8236 19.2591 64.9945 20.2845 64.9945 21.6973V47.0244C64.9945 49.5537 64.5502 51.7184 63.6615 53.5186C62.7729 55.3187 61.3943 57.0163 59.5258 58.6114C57.6573 60.1836 55.2761 61.8926 52.3822 63.7383C49.4883 65.584 46.059 67.8285 42.0941 70.4717C41.8891 70.6084 41.6156 70.7679 41.2738 70.9502C40.9548 71.1325 40.6472 71.2237 40.351 71.2237C40.0548 71.2237 39.7357 71.1325 39.3939 70.9502C39.0749 70.7679 38.8243 70.6084 38.642 70.4717C34.6316 67.874 31.1794 65.6524 28.2855 63.8067C25.3917 61.961 23.0105 60.2406 21.142 58.6455Z"
        fill="#ED2939" />
</svg>