<svg width="250" height="250" viewBox="0 0 250 250" fill="none" xmlns="http://www.w3.org/2000/svg">
    <path fill-rule="evenodd" clip-rule="evenodd"
        d="M125.03 118.654C123.865 118.654 122.796 118.935 121.835 119.52C120.84 120.126 120.066 120.902 119.462 121.9L119.458 121.907L119.453 121.914C118.88 122.827 118.597 123.893 118.597 125.066C118.597 126.236 118.878 127.309 119.462 128.274C120.066 129.272 120.84 130.048 121.835 130.653C122.798 131.24 123.827 131.519 125.03 131.519C126.195 131.519 127.264 131.238 128.225 130.653C129.22 130.048 129.994 129.272 130.598 128.274C131.183 127.307 131.463 126.274 131.463 125.066C131.463 123.902 131.185 122.869 130.598 121.9C129.994 120.902 129.22 120.126 128.225 119.52C127.262 118.934 126.233 118.654 125.03 118.654ZM120.724 117.695C122.046 116.89 123.505 116.518 125.03 116.518C126.599 116.518 128.016 116.892 129.336 117.695C130.624 118.48 131.644 119.502 132.426 120.793C133.225 122.113 133.599 123.532 133.599 125.066C133.599 126.638 133.226 128.058 132.426 129.38C131.644 130.671 130.624 131.694 129.336 132.478C128.014 133.283 126.555 133.656 125.03 133.656C123.461 133.656 122.044 133.281 120.724 132.478C119.436 131.694 118.416 130.671 117.635 129.38C116.832 128.055 116.461 126.594 116.461 125.066C116.461 123.545 116.829 122.078 117.639 120.786C118.42 119.498 119.438 118.478 120.724 117.695Z"
        fill="#ED2939" />
    <path fill-rule="evenodd" clip-rule="evenodd"
        d="M121.161 103.377C121.684 102.941 122.316 102.781 122.939 102.781H126.95C127.54 102.781 128.177 102.913 128.715 103.348C129.25 103.782 129.515 104.378 129.644 104.957L129.645 104.96L130.609 109.355C130.851 109.432 131.095 109.516 131.341 109.613C131.588 109.689 131.821 109.776 132.038 109.866L135.811 107.493C136.335 107.148 136.961 106.937 137.645 107.022C138.325 107.107 138.877 107.461 139.305 107.889L142.145 110.729C142.566 111.15 142.902 111.699 142.975 112.37C143.048 113.038 142.841 113.655 142.496 114.179L140.093 117.999C140.119 118.064 140.147 118.13 140.176 118.2C140.23 118.333 140.29 118.477 140.355 118.641C140.455 118.891 140.542 119.139 140.621 119.379L144.994 120.347L145.003 120.349C145.562 120.48 146.139 120.746 146.567 121.26C147.003 121.784 147.163 122.416 147.163 123.039V127.05C147.163 127.665 146.996 128.285 146.577 128.8C146.16 129.312 145.592 129.602 145.003 129.74L144.994 129.742L140.621 130.71C140.542 130.95 140.455 131.198 140.355 131.448C140.261 131.683 140.167 131.907 140.074 132.122L142.493 135.906C142.841 136.433 143.047 137.051 142.975 137.723C142.904 138.387 142.579 138.936 142.18 139.368L142.16 139.391L139.305 142.2C139.304 142.201 139.303 142.202 139.301 142.204C138.874 142.63 138.323 142.982 137.645 143.067C136.961 143.152 136.335 142.941 135.811 142.596L132.006 140.203C132 140.205 131.994 140.208 131.988 140.21C131.817 140.282 131.627 140.361 131.393 140.455C131.129 140.561 130.867 140.652 130.607 140.734L129.65 145.062C129.536 145.672 129.249 146.259 128.706 146.677C128.17 147.088 127.535 147.218 126.95 147.218H122.939C122.322 147.218 121.683 147.061 121.155 146.631C120.631 146.204 120.352 145.619 120.24 145.017L119.282 140.689C119.022 140.607 118.761 140.516 118.497 140.41C118.329 140.343 118.163 140.284 117.975 140.216C117.941 140.204 117.905 140.191 117.869 140.178C117.848 140.171 117.826 140.163 117.804 140.155L114.036 142.549C113.511 142.896 112.885 143.107 112.199 143.022C111.522 142.937 110.971 142.585 110.543 142.159C110.542 142.157 110.54 142.156 110.539 142.155L107.685 139.346L107.664 139.323C107.265 138.891 106.94 138.342 106.869 137.678C106.798 137.008 107.002 136.392 107.348 135.865L109.751 132.044C109.725 131.98 109.698 131.914 109.669 131.844C109.614 131.711 109.555 131.567 109.489 131.403C109.389 131.152 109.302 130.904 109.223 130.663L104.894 129.697L104.887 129.695C104.328 129.564 103.751 129.298 103.322 128.784C102.886 128.26 102.727 127.628 102.727 127.005V122.994C102.727 122.379 102.893 121.759 103.313 121.244C103.729 120.732 104.298 120.442 104.887 120.304L104.894 120.302L109.266 119.326C109.266 119.326 109.266 119.325 109.266 119.325L109.27 119.314C109.347 119.096 109.433 118.848 109.534 118.596C109.592 118.451 109.642 118.314 109.698 118.161C109.72 118.098 109.744 118.034 109.769 117.964C109.773 117.953 109.778 117.942 109.782 117.931L107.394 114.133C107.049 113.61 106.842 112.993 106.915 112.325C106.988 111.654 107.324 111.105 107.745 110.684L110.584 107.844C111.012 107.416 111.565 107.062 112.244 106.977C112.93 106.892 113.556 107.103 114.082 107.45L117.849 109.844C117.871 109.836 117.893 109.828 117.914 109.82C117.95 109.807 117.986 109.795 118.02 109.782C118.208 109.715 118.374 109.656 118.542 109.589L118.565 109.579C118.788 109.49 119.027 109.394 119.275 109.302L120.247 104.949L120.249 104.941C120.38 104.382 120.646 103.806 121.161 103.377ZM122.746 105.522L121.457 111.295L120.738 111.511C120.352 111.627 119.955 111.785 119.494 111.969C119.278 112.055 119.062 112.133 118.875 112.199C118.842 112.211 118.811 112.222 118.78 112.233C118.562 112.312 118.387 112.377 118.231 112.446L117.603 112.725L112.684 109.6L112.673 109.592C112.616 109.554 112.578 109.536 112.556 109.528C112.528 109.543 112.475 109.579 112.397 109.657L109.557 112.497C109.508 112.546 109.482 112.582 109.47 112.602C109.478 112.625 109.497 112.667 109.537 112.727L109.547 112.741L112.689 117.738L112.367 118.384C112.31 118.496 112.252 118.642 112.175 118.851C112.158 118.897 112.139 118.948 112.12 119.002C112.06 119.167 111.989 119.362 111.914 119.548C111.836 119.743 111.767 119.942 111.686 120.172L111.682 120.183C111.606 120.401 111.519 120.649 111.419 120.901L111.168 121.528L105.468 122.8C105.371 122.824 105.324 122.849 105.304 122.861C105.3 122.877 105.29 122.918 105.29 122.994V127.005C105.29 127.074 105.296 127.118 105.301 127.142C105.328 127.156 105.379 127.177 105.468 127.198L111.24 128.487L111.456 129.206C111.594 129.665 111.714 130.061 111.869 130.45C111.911 130.554 111.956 130.664 112.004 130.779C112.135 131.098 112.28 131.451 112.391 131.783L112.583 132.358L109.502 137.257L109.492 137.272C109.443 137.345 109.426 137.391 109.421 137.408C109.43 137.43 109.457 137.483 109.53 137.565L112.348 140.338L112.352 140.342C112.43 140.42 112.483 140.456 112.511 140.471C112.533 140.462 112.571 140.444 112.627 140.407L112.639 140.399L117.558 137.274L118.186 137.553C118.342 137.622 118.517 137.687 118.735 137.766C118.766 137.777 118.797 137.788 118.83 137.799C119.017 137.866 119.233 137.944 119.449 138.03C119.832 138.183 120.228 138.303 120.707 138.434L121.454 138.638L122.754 144.514L122.759 144.541C122.767 144.588 122.777 144.62 122.784 144.64C122.812 144.646 122.861 144.654 122.939 144.654H126.95C127.03 144.654 127.084 144.648 127.119 144.641C127.122 144.627 127.127 144.609 127.131 144.586L127.135 144.559L128.435 138.683L129.182 138.479C129.662 138.348 130.058 138.228 130.441 138.075C130.586 138.017 130.751 137.948 130.921 137.878C131.187 137.767 131.462 137.652 131.684 137.569L132.279 137.346L137.203 140.443L137.217 140.452C137.273 140.49 137.312 140.508 137.333 140.516C137.361 140.501 137.414 140.465 137.493 140.387L137.496 140.383L140.314 137.61C140.387 137.528 140.414 137.475 140.423 137.453C140.418 137.436 140.401 137.39 140.352 137.317L140.345 137.306L137.173 132.343L137.453 131.713C137.634 131.305 137.805 130.921 137.975 130.496C138.131 130.106 138.251 129.71 138.388 129.251L138.604 128.53L144.422 127.243C144.518 127.22 144.566 127.195 144.585 127.183C144.59 127.167 144.599 127.126 144.599 127.05V123.039C144.599 122.97 144.593 122.926 144.588 122.902C144.561 122.888 144.51 122.867 144.423 122.846L138.604 121.559L138.388 120.838C138.251 120.379 138.131 119.983 137.975 119.593C137.934 119.49 137.888 119.38 137.841 119.265C137.71 118.946 137.564 118.593 137.453 118.261L137.262 117.686L140.343 112.786L140.352 112.772C140.393 112.712 140.412 112.67 140.42 112.647C140.407 112.627 140.381 112.591 140.332 112.542L137.493 109.702C137.414 109.624 137.361 109.588 137.333 109.573C137.312 109.581 137.273 109.599 137.217 109.637L137.203 109.646L132.206 112.789L131.561 112.466C131.237 112.304 130.903 112.158 130.549 112.052L130.494 112.035L130.441 112.014C130.058 111.861 129.662 111.741 129.182 111.61L128.434 111.406L127.142 105.513C127.141 105.513 127.141 105.512 127.141 105.512C127.124 105.436 127.107 105.385 127.094 105.354C127.064 105.35 127.017 105.345 126.95 105.345H122.939C122.87 105.345 122.827 105.351 122.802 105.356C122.788 105.383 122.767 105.434 122.746 105.522Z"
        fill="#ED2939" />
    <path fill-rule="evenodd" clip-rule="evenodd"
        d="M119.068 89.993C119.836 89.3524 120.774 89.1094 121.726 89.1094H128.275C129.182 89.1094 130.126 89.3124 130.914 89.95C131.699 90.5854 132.1 91.4672 132.298 92.361L132.299 92.3657L133.921 99.7593C134.385 99.9013 134.848 100.058 135.316 100.242C135.781 100.385 136.215 100.551 136.616 100.724L142.948 96.7415C143.749 96.2133 144.681 95.9047 145.688 96.0307C146.689 96.1557 147.517 96.6784 148.175 97.3367L152.811 101.973C153.453 102.615 153.948 103.435 154.056 104.422C154.163 105.406 153.86 106.327 153.333 107.126L149.303 113.534C149.37 113.701 149.441 113.874 149.518 114.059C149.606 114.274 149.701 114.504 149.804 114.762C149.993 115.233 150.153 115.701 150.296 116.151L157.649 117.778L157.66 117.781C158.52 117.983 159.377 118.385 160.008 119.141C160.648 119.91 160.891 120.847 160.891 121.799V128.349C160.891 129.283 160.639 130.204 160.02 130.964C159.406 131.718 158.56 132.155 157.66 132.367L157.649 132.37L150.296 133.996C150.153 134.447 149.993 134.915 149.804 135.385C149.624 135.835 149.445 136.258 149.268 136.663L153.329 143.016C153.861 143.82 154.162 144.742 154.056 145.732C153.951 146.712 153.471 147.536 152.858 148.199L152.831 148.229L148.175 152.811C148.173 152.813 148.171 152.814 148.17 152.816C147.512 153.472 146.686 153.992 145.688 154.117C144.681 154.243 143.749 153.934 142.948 153.406L136.564 149.391C136.492 149.422 136.418 149.453 136.341 149.485C136.062 149.602 135.754 149.731 135.385 149.878C134.893 150.075 134.407 150.24 133.919 150.389L132.306 157.679C132.134 158.607 131.705 159.475 130.907 160.087C130.12 160.691 129.176 160.891 128.275 160.891H121.726C120.782 160.891 119.832 160.652 119.055 160.02C118.283 159.391 117.864 158.523 117.695 157.606L116.082 150.315C115.594 150.166 115.107 150.001 114.615 149.804C114.335 149.692 114.056 149.593 113.749 149.483C113.693 149.463 113.636 149.442 113.578 149.421C113.486 149.388 113.392 149.354 113.295 149.319L106.982 153.33C106.181 153.86 105.248 154.17 104.239 154.043C103.241 153.919 102.415 153.399 101.757 152.743C101.756 152.741 101.754 152.739 101.752 152.737L97.0965 148.156L97.0686 148.126C96.4563 147.462 95.9758 146.638 95.8708 145.658C95.765 144.671 96.0647 143.751 96.5943 142.948L100.624 136.541C100.557 136.374 100.486 136.2 100.409 136.015C100.321 135.801 100.226 135.57 100.123 135.312C99.9341 134.84 99.774 134.372 99.6305 133.921L92.3499 132.296L92.3403 132.293C91.4801 132.091 90.6236 131.69 89.993 130.933C89.3524 130.164 89.1094 129.227 89.1094 128.275V121.726C89.1094 120.792 89.3619 119.871 89.9805 119.111C90.5947 118.356 91.4404 117.919 92.3403 117.707L92.3499 117.705L99.6941 116.066C99.7175 115.999 99.7411 115.932 99.7653 115.863L99.7704 115.848C99.8959 115.489 100.035 115.092 100.196 114.689C100.293 114.446 100.378 114.214 100.47 113.96C100.506 113.86 100.544 113.756 100.584 113.647C100.612 113.572 100.64 113.495 100.67 113.417L96.6679 107.052C96.1407 106.253 95.8374 105.332 95.9448 104.348C96.0524 103.362 96.5477 102.541 97.1896 101.899L101.826 97.2632C102.484 96.6049 103.312 96.0821 104.312 95.9571C105.321 95.831 106.255 96.1406 107.056 96.6703L113.369 100.682C113.465 100.646 113.56 100.612 113.651 100.579C113.71 100.558 113.767 100.538 113.823 100.518C114.13 100.408 114.408 100.308 114.689 100.196L114.721 100.183C115.148 100.013 115.603 99.8305 116.073 99.6597L117.705 92.3499L117.707 92.3403C117.91 91.4801 118.311 90.6236 119.068 89.993ZM121.036 93.1147L118.981 102.323L118.022 102.611C117.372 102.806 116.708 103.07 115.958 103.37C115.614 103.508 115.268 103.631 114.962 103.741C114.909 103.76 114.857 103.778 114.806 103.796C114.449 103.925 114.152 104.035 113.883 104.154L113.046 104.527L105.192 99.5362L105.177 99.5258C104.883 99.3298 104.755 99.3465 104.737 99.3488L104.736 99.3489C104.706 99.3526 104.541 99.3818 104.243 99.6802L99.6066 104.316C99.3654 104.557 99.3456 104.693 99.3428 104.719C99.3407 104.738 99.3256 104.877 99.5258 105.177L99.5384 105.196L104.551 113.167L104.121 114.027C104.019 114.231 103.918 114.486 103.792 114.829C103.763 114.908 103.732 114.993 103.699 115.082C103.601 115.351 103.489 115.66 103.37 115.958C103.239 116.286 103.122 116.618 102.992 116.992L102.986 117.006C102.861 117.365 102.722 117.763 102.561 118.166L102.226 119.003L93.1149 121.036C92.7704 121.119 92.661 121.232 92.6315 121.268C92.6062 121.299 92.5276 121.409 92.5276 121.726V128.275C92.5276 128.64 92.6119 128.737 92.6186 128.744L92.6189 128.745C92.6322 128.76 92.731 128.873 93.1149 128.964L102.323 131.02L102.611 131.978C102.835 132.725 103.035 133.388 103.296 134.042C103.367 134.219 103.444 134.405 103.522 134.596C103.735 135.112 103.964 135.668 104.14 136.197L104.396 136.964L99.4648 144.805L99.4522 144.824C99.2544 145.12 99.2659 145.26 99.2696 145.294C99.2748 145.343 99.3075 145.504 99.5562 145.781L104.164 150.316L104.169 150.32C104.467 150.619 104.633 150.648 104.663 150.652L104.664 150.652C104.681 150.654 104.809 150.671 105.103 150.475L105.119 150.464L112.973 145.474L113.81 145.846C114.078 145.965 114.375 146.076 114.733 146.204C114.783 146.222 114.835 146.241 114.889 146.26C115.194 146.369 115.54 146.493 115.885 146.631C116.53 146.889 117.193 147.09 117.981 147.304L118.977 147.576L121.047 156.936L121.054 156.972C121.109 157.286 121.202 157.36 121.213 157.369L121.213 157.369C121.227 157.381 121.345 157.473 121.726 157.473H128.275C128.698 157.473 128.822 157.378 128.826 157.376C128.829 157.373 128.84 157.365 128.859 157.331C128.88 157.292 128.918 157.206 128.947 157.045L128.953 157.009L131.024 147.65L132.02 147.378C132.808 147.163 133.47 146.962 134.116 146.704C134.365 146.604 134.64 146.49 134.918 146.374C135.345 146.196 135.779 146.016 136.138 145.881L136.931 145.584L144.805 150.536L144.824 150.548C145.118 150.744 145.246 150.728 145.263 150.725L145.264 150.725C145.294 150.722 145.46 150.692 145.758 150.394L145.763 150.389L150.371 145.854C150.619 145.577 150.652 145.417 150.657 145.368C150.661 145.334 150.673 145.194 150.475 144.897L150.466 144.884L145.399 136.957L145.773 136.117C146.068 135.452 146.35 134.818 146.631 134.116C146.892 133.462 147.092 132.798 147.316 132.052L147.605 131.091L156.887 129.037C157.23 128.955 157.34 128.842 157.369 128.806C157.394 128.775 157.473 128.665 157.473 128.349V121.799C157.473 121.434 157.389 121.338 157.382 121.33L157.382 121.33C157.368 121.314 157.27 121.202 156.887 121.11L147.605 119.057L147.316 118.096C147.092 117.349 146.892 116.686 146.631 116.032C146.56 115.855 146.483 115.669 146.405 115.478C146.192 114.962 145.963 114.406 145.787 113.877L145.531 113.111L150.462 105.269L150.475 105.25C150.675 104.95 150.66 104.812 150.658 104.792C150.655 104.767 150.635 104.631 150.394 104.39L145.758 99.7538C145.46 99.4554 145.294 99.4262 145.264 99.4225L145.263 99.4224C145.246 99.4201 145.118 99.4034 144.824 99.5994L144.805 99.612L136.833 104.625L135.973 104.195C135.434 103.925 134.868 103.676 134.26 103.494L134.187 103.472L134.116 103.444C133.47 103.185 132.808 102.985 132.02 102.77L131.022 102.497L128.961 93.1025C128.961 93.1019 128.961 93.1012 128.961 93.1005C128.914 92.8881 128.861 92.7606 128.822 92.6894C128.786 92.6237 128.764 92.6072 128.763 92.6068C128.763 92.6066 128.745 92.5905 128.681 92.5717C128.61 92.551 128.483 92.5276 128.275 92.5276H121.726C121.361 92.5276 121.264 92.6119 121.256 92.6186L121.256 92.6189C121.24 92.6322 121.128 92.731 121.036 93.1147Z"
        fill="#ED2939" fill-opacity="0.5" />
    <path fill-rule="evenodd" clip-rule="evenodd"
        d="M115.496 68.277C116.697 67.2759 118.168 66.8906 119.678 66.8906H130.321C131.765 66.8906 133.245 67.2135 134.475 68.2091C135.701 69.2013 136.334 70.5838 136.65 72.0072L136.651 72.0107L136.652 72.0142L139.313 84.1511C140.107 84.3911 140.895 84.6551 141.691 84.9694C142.482 85.2121 143.218 85.4962 143.894 85.7911L154.281 79.2588C155.55 78.4205 157.015 77.9391 158.591 78.1361C160.156 78.3317 161.46 79.1503 162.507 80.1975L170.041 87.7311C171.059 88.7491 171.834 90.0398 172.003 91.5828C172.17 93.1223 171.697 94.5708 170.86 95.8377L164.253 106.344C164.375 106.651 164.505 106.968 164.646 107.31C164.789 107.657 164.943 108.029 165.108 108.442C165.428 109.242 165.697 110.037 165.939 110.802L178.007 113.472L178.023 113.476C179.392 113.798 180.736 114.432 181.722 115.616C182.724 116.817 183.109 118.287 183.109 119.798V130.441C183.109 131.92 182.709 133.366 181.741 134.555C180.78 135.737 179.451 136.427 178.023 136.763L178.007 136.767L165.939 139.437C165.697 140.201 165.428 140.996 165.108 141.796C164.801 142.563 164.495 143.282 164.193 143.971L170.855 154.392C171.698 155.667 172.169 157.116 172.003 158.666C171.839 160.2 171.086 161.498 170.112 162.553L170.07 162.598L162.507 170.041C162.505 170.044 162.502 170.046 162.5 170.049C161.454 171.092 160.152 171.907 158.591 172.102C157.015 172.299 155.55 171.818 154.281 170.98L143.811 164.396C143.659 164.459 143.503 164.524 143.341 164.592C142.887 164.782 142.387 164.991 141.796 165.227C140.963 165.561 140.14 165.838 139.31 166.088L136.662 178.061C136.391 179.53 135.715 180.889 134.468 181.846C133.237 182.791 131.756 183.109 130.321 183.109H119.678C118.18 183.109 116.689 182.73 115.474 181.741C114.266 180.758 113.605 179.395 113.338 177.941L110.689 165.969C109.859 165.718 109.036 165.441 108.203 165.108C107.744 164.924 107.287 164.761 106.788 164.582C106.697 164.55 106.605 164.517 106.51 164.483C106.33 164.418 106.144 164.351 105.954 164.28L95.6041 170.857C94.3336 171.697 92.867 172.18 91.2887 171.983C89.7278 171.788 88.4262 170.973 87.3804 169.929C87.3777 169.927 87.375 169.924 87.3724 169.921L79.8095 162.479L79.7678 162.434C78.7941 161.379 78.0412 160.081 77.8768 158.546C77.7111 157 78.1793 155.553 79.0197 154.281L85.6268 143.775C85.5053 143.468 85.3747 143.151 85.2338 142.809C85.0908 142.462 84.9373 142.09 84.772 141.677C84.4515 140.876 84.182 140.08 83.9404 139.314L71.9905 136.647L71.9762 136.643C70.6077 136.321 69.2632 135.687 68.277 134.503C67.2759 133.302 66.8906 131.832 66.8906 130.321V119.678C66.8906 118.199 67.2901 116.753 68.2582 115.564C69.2197 114.382 70.5481 113.692 71.9762 113.356L71.9905 113.353L84.0393 110.663C84.0902 110.519 84.1417 110.372 84.1944 110.222L84.2022 110.199C84.4066 109.616 84.6315 108.973 84.8916 108.323C85.0507 107.925 85.1894 107.543 85.3395 107.13C85.3986 106.967 85.4594 106.8 85.524 106.625C85.5803 106.472 85.6392 106.314 85.7011 106.153L79.1392 95.7182C78.3025 94.4514 77.8289 93.0028 77.9969 91.4632C78.1652 89.9202 78.9404 88.6296 79.9584 87.6116L87.492 80.0779C88.5392 79.0307 89.8434 78.2121 91.4083 78.0165C92.9865 77.8192 94.4531 78.3023 95.7237 79.1428L106.073 85.7191C106.263 85.6487 106.449 85.5814 106.63 85.5167C106.724 85.4828 106.817 85.4497 106.908 85.4171C107.407 85.2387 107.863 85.0753 108.323 84.8916L108.372 84.8718C109.1 84.5805 109.877 84.2699 110.676 83.9822L113.353 71.9905L113.356 71.9762C113.678 70.6077 114.313 69.2632 115.496 68.277ZM118.35 73.1379L115.037 87.9805L113.599 88.412C112.532 88.7322 111.443 89.1657 110.227 89.6521C109.671 89.8743 109.113 90.0738 108.617 90.2514C108.53 90.2824 108.445 90.3127 108.362 90.3424C107.782 90.5508 107.292 90.7327 106.848 90.9299L105.592 91.4882L92.9285 83.4415L92.9051 83.4259C92.3878 83.081 92.1295 83.0935 92.0442 83.1042C91.935 83.1179 91.6248 83.1961 91.1175 83.7035L83.5839 91.2371C83.1669 91.6541 83.105 91.9179 83.0939 92.0192C83.0839 92.1113 83.0795 92.3856 83.4259 92.9051L83.4448 92.9335L91.5253 105.783L90.8802 107.073C90.709 107.415 90.5405 107.84 90.3351 108.397C90.2873 108.527 90.2367 108.666 90.1835 108.813C90.025 109.249 89.8442 109.747 89.6521 110.227C89.4372 110.764 89.246 111.309 89.0339 111.915L89.0261 111.938C88.8218 112.521 88.5969 113.164 88.3367 113.814L87.8346 115.07L73.1382 118.35C72.5426 118.492 72.319 118.697 72.2347 118.8C72.1565 118.897 72.0179 119.125 72.0179 119.678V130.321C72.0179 130.963 72.1707 131.167 72.2159 131.221C72.2757 131.293 72.4834 131.493 73.1375 131.649L87.9805 134.962L88.412 136.401C88.7755 137.612 89.1034 138.7 89.5325 139.773C89.6492 140.064 89.7746 140.369 89.9033 140.681C90.2479 141.517 90.6157 142.41 90.8997 143.262L91.283 144.412L83.3252 157.066L83.3063 157.094C82.9637 157.608 82.9625 157.885 82.9749 158C82.9895 158.136 83.0695 158.439 83.4986 158.916L90.9907 166.289L90.9979 166.296C91.5052 166.803 91.8154 166.882 91.9247 166.895C92.0099 166.906 92.2682 166.918 92.7855 166.574L92.8089 166.558L105.473 158.511L106.729 159.069C107.172 159.267 107.662 159.449 108.243 159.657C108.325 159.687 108.41 159.717 108.497 159.748C108.994 159.926 109.552 160.125 110.107 160.347C111.168 160.772 112.254 161.1 113.537 161.45L115.031 161.858L118.367 176.936L118.376 176.991C118.475 177.548 118.65 177.715 118.711 177.765C118.782 177.822 119.025 177.982 119.678 177.982H130.321C131.039 177.982 131.291 177.821 131.346 177.779L131.348 177.778C131.374 177.758 131.53 177.64 131.623 177.11L131.633 177.056L134.969 161.977L136.463 161.57C137.745 161.22 138.831 160.891 139.892 160.467C140.305 160.302 140.754 160.115 141.207 159.926C141.896 159.639 142.592 159.349 143.173 159.131L144.362 158.685L157.066 166.674L157.094 166.693C157.612 167.038 157.87 167.025 157.955 167.015C158.064 167.001 158.375 166.923 158.882 166.416L158.889 166.408L166.381 159.035C166.81 158.559 166.89 158.256 166.905 158.12C166.917 158.004 166.916 157.728 166.574 157.214L166.56 157.193L158.39 144.411L158.95 143.151C159.43 142.071 159.889 141.037 160.347 139.892C160.776 138.819 161.104 137.732 161.468 136.52L161.9 135.079L176.863 131.768C177.457 131.626 177.681 131.422 177.765 131.319C177.843 131.222 177.982 130.994 177.982 130.441V119.798C177.982 119.156 177.829 118.952 177.784 118.898C177.724 118.826 177.516 118.626 176.864 118.47L161.9 115.16L161.468 113.718C161.104 112.507 160.776 111.419 160.347 110.346C160.231 110.055 160.105 109.75 159.977 109.438C159.632 108.602 159.264 107.709 158.98 106.857L158.597 105.707L166.555 93.0531L166.574 93.0247C166.92 92.5052 166.916 92.2309 166.905 92.1388C166.894 92.0375 166.833 91.7736 166.416 91.3567L158.882 83.823C158.375 83.3157 158.064 83.2374 157.955 83.2238C157.87 83.2131 157.612 83.2006 157.094 83.5455L157.066 83.5644L144.217 91.6449L142.926 90.9998C142.043 90.5582 141.111 90.1481 140.108 89.847L139.998 89.8141L139.892 89.7717C138.831 89.3475 137.745 89.0188 136.463 88.6689L134.965 88.2606L131.645 73.1195C131.645 73.1181 131.644 73.1166 131.644 73.1152C131.482 72.3899 131.279 72.2184 131.249 72.1942C131.223 72.1733 131.03 72.0179 130.321 72.0179H119.678C119.036 72.0179 118.833 72.1707 118.778 72.2159C118.707 72.2758 118.506 72.4835 118.35 73.1379Z"
        fill="#ED2939" fill-opacity="0.2" />
    <path fill-rule="evenodd" clip-rule="evenodd"
        d="M110.713 38.138C112.444 36.6958 114.576 36.127 116.811 36.127H133.184C135.33 36.127 137.476 36.6066 139.245 38.0382C141.007 39.4653 141.937 41.4681 142.408 43.5869L142.409 43.5915L146.571 62.5706C147.89 62.9624 149.19 63.3921 150.503 63.9114C151.804 64.3096 153.009 64.7828 154.109 65.2727L170.331 55.071C172.207 53.8308 174.338 53.1394 176.612 53.4236C178.87 53.7059 180.774 54.8893 182.33 56.4451L193.92 68.0352C195.425 69.5398 196.544 71.4201 196.787 73.646C197.029 75.8681 196.348 77.9776 195.11 79.8503L184.801 96.2443C185.019 96.8038 185.256 97.379 185.513 98.0029C185.732 98.5339 185.966 99.1002 186.214 99.722C186.741 101.038 187.177 102.347 187.57 103.605L206.43 107.777L206.452 107.783C208.485 108.261 210.437 109.193 211.859 110.899C213.302 112.63 213.87 114.762 213.87 116.997V133.37C213.87 135.551 213.283 137.651 211.884 139.369C210.495 141.075 208.565 142.088 206.452 142.585L206.43 142.59L187.57 146.763C187.177 148.021 186.741 149.329 186.214 150.645C185.707 151.915 185.2 153.097 184.701 154.232L195.103 170.506C196.351 172.389 197.028 174.499 196.788 176.738C196.55 178.955 195.46 180.852 194.015 182.417L193.959 182.478L182.33 193.922C182.327 193.926 182.323 193.929 182.32 193.932C180.766 195.483 178.865 196.662 176.612 196.944C174.338 197.228 172.207 196.536 170.331 195.296L153.989 185.019C153.669 185.151 153.341 185.288 152.998 185.431C152.298 185.724 151.533 186.044 150.643 186.4C149.281 186.945 147.934 187.392 146.567 187.798L142.424 206.527C142.026 208.695 141.039 210.661 139.244 212.039C137.472 213.399 135.318 213.872 133.184 213.872H116.811C114.592 213.872 112.426 213.312 110.675 211.886C108.931 210.467 107.965 208.489 107.572 206.344L103.428 187.614C102.061 187.208 100.714 186.761 99.3521 186.216C98.6357 185.93 97.923 185.675 97.1558 185.4C97.0158 185.35 96.8741 185.3 96.7301 185.248C96.3752 185.12 96.008 184.988 95.635 184.847L79.4879 195.107C77.6101 196.351 75.4765 197.044 73.1998 196.76C70.9466 196.478 69.0455 195.299 67.4916 193.748C67.4882 193.745 67.4848 193.742 67.4814 193.738L55.8522 182.294L55.7965 182.234C54.3511 180.668 53.2614 178.771 53.0238 176.554C52.7845 174.32 53.4582 172.213 54.7011 170.333L65.0107 153.939C64.7924 153.38 64.5553 152.804 64.2981 152.18C64.0793 151.649 63.8459 151.083 63.5972 150.461C63.07 149.143 62.6331 147.834 62.2404 146.574L43.5626 142.405L43.5435 142.401C41.5104 141.922 39.5582 140.991 38.1361 139.284C36.6939 137.553 36.125 135.421 36.125 133.186V116.813C36.125 114.632 36.7128 112.533 38.111 110.815C39.5003 109.108 41.4309 108.096 43.5435 107.599L43.5626 107.594L62.3802 103.394C62.4908 103.083 62.6021 102.766 62.7167 102.438L62.7273 102.408C63.0425 101.507 63.3853 100.528 63.7812 99.538C64.0292 98.9178 64.2469 98.3188 64.4789 97.6802C64.5693 97.4314 64.6619 97.1766 64.7593 96.9122C64.8743 96.6 64.9955 96.2763 65.1241 95.9481L54.8851 79.6663C53.647 77.7935 52.9661 75.6841 53.2085 73.462C53.4513 71.2361 54.5707 69.3558 56.0752 67.8513L67.6654 56.2611C69.2211 54.7054 71.1256 53.5219 73.3838 53.2397C75.6603 52.9551 77.7938 53.6486 79.6715 54.8917L95.819 65.1521C96.192 65.0118 96.5591 64.8789 96.9141 64.7515C97.0579 64.6999 97.1996 64.6492 97.3394 64.5992C98.1067 64.3247 98.8196 64.0697 99.5361 63.7831L99.6031 63.7563C100.812 63.2727 102.095 62.7593 103.412 62.2936L107.592 43.5646L107.597 43.5455C108.075 41.5123 109.007 39.5602 110.713 38.138ZM114.255 45.0942L109.225 67.6319L107.307 68.2072C105.638 68.7077 103.942 69.3838 102.075 70.1305C101.23 70.4683 100.382 70.7716 99.6178 71.0448C99.4837 71.0927 99.3523 71.1397 99.2239 71.1858C98.3302 71.5066 97.5608 71.792 96.8586 72.1041L95.184 72.8484L75.9443 60.6232L75.9131 60.6024C75.0393 60.0199 74.5172 59.9876 74.2318 60.0232C73.9144 60.0629 73.3353 60.2593 72.4994 61.0951L60.9092 72.6853C60.2061 73.3885 60.0376 73.8997 60.0045 74.2034C59.9727 74.4948 60.016 75.0384 60.6004 75.915L60.6257 75.9529L72.896 95.4647L72.0359 97.185C71.7585 97.7397 71.4909 98.4157 71.1741 99.2756C71.0991 99.4794 71.02 99.6969 70.9376 99.9239C70.6943 100.594 70.4207 101.347 70.1286 102.077C69.793 102.916 69.4951 103.765 69.1693 104.696L69.1588 104.726C68.8436 105.627 68.5008 106.606 68.1049 107.596L67.4353 109.27L45.0925 114.257C44.0893 114.496 43.6322 114.861 43.413 115.13C43.2014 115.39 42.9614 115.866 42.9614 116.813V133.186C42.9614 134.263 43.2203 134.706 43.3879 134.908C43.5745 135.131 44.0102 135.485 45.0918 135.742L67.6299 140.773L68.2052 142.691C68.7634 144.551 69.2743 146.247 69.9446 147.922C70.1285 148.382 70.3244 148.858 70.5242 149.343C71.052 150.624 71.6066 151.97 72.0373 153.262L72.5483 154.795L60.4417 174.046L60.4164 174.084C59.837 174.953 59.7864 175.5 59.8213 175.825C59.8588 176.176 60.0489 176.745 60.7699 177.542L72.3058 188.895L72.3154 188.904C73.1513 189.74 73.7304 189.936 74.0478 189.976C74.3332 190.012 74.8554 189.979 75.7291 189.397L75.7603 189.376L95 177.151L96.6747 177.895C97.3769 178.207 98.1462 178.493 99.0399 178.814C99.1684 178.86 99.3 178.907 99.4341 178.955C100.199 179.228 101.047 179.531 101.891 179.869C103.551 180.533 105.244 181.044 107.224 181.585L109.216 182.128L114.277 205.004L114.29 205.077C114.458 206.028 114.777 206.411 114.99 206.584C115.217 206.769 115.719 207.036 116.811 207.036H133.184C134.362 207.036 134.876 206.773 135.082 206.616C135.242 206.493 135.541 206.19 135.705 205.261L135.718 205.188L140.779 182.312L142.771 181.768C144.752 181.228 146.445 180.717 148.104 180.053C148.756 179.792 149.455 179.501 150.153 179.21C151.203 178.773 152.253 178.335 153.141 178.002L154.727 177.408L174.045 189.556L174.082 189.581C174.956 190.163 175.478 190.196 175.764 190.16C176.081 190.12 176.66 189.924 177.496 189.088L177.506 189.079L189.042 177.726C189.763 176.929 189.953 176.36 189.99 176.009C190.025 175.684 189.974 175.137 189.395 174.268L189.377 174.241L176.963 154.819L177.709 153.139C178.448 151.477 179.158 149.878 179.867 148.106C180.537 146.431 181.048 144.735 181.606 142.875L182.183 140.953L204.906 135.925C205.907 135.687 206.363 135.322 206.582 135.053C206.794 134.793 207.034 134.317 207.034 133.37V116.997C207.034 115.92 206.775 115.477 206.608 115.276C206.421 115.052 205.986 114.699 204.906 114.442L182.183 109.415L181.606 107.493C181.048 105.632 180.537 103.937 179.867 102.261C179.683 101.801 179.487 101.326 179.287 100.841C178.76 99.5596 178.205 98.2133 177.774 96.9212L177.263 95.3884L189.37 76.1369L189.395 76.099C189.979 75.2224 190.023 74.6788 189.991 74.3874C189.958 74.0837 189.789 73.5724 189.086 72.8693L177.496 61.2791C176.66 60.4432 176.081 60.2469 175.764 60.2072C175.478 60.1715 174.956 60.2038 174.082 60.7863L174.045 60.8116L154.533 73.0819L152.812 72.2218C151.439 71.5349 149.975 70.8899 148.392 70.4148L148.246 70.3711L148.104 70.3145C146.445 69.6507 144.752 69.1389 142.771 68.5988L140.775 68.0544L135.735 45.0699C135.734 45.0685 135.734 45.0672 135.734 45.0659C135.469 43.8763 135.112 43.4882 134.943 43.3517C134.78 43.2196 134.35 42.9633 133.184 42.9633H116.811C115.734 42.9633 115.291 43.2223 115.09 43.3899C114.866 43.5765 114.512 44.0123 114.255 45.0942Z"
        fill="#ED2939" fill-opacity="0.1" />
</svg>