<svg width="80" height="80" viewBox="0 0 80 80" fill="none" xmlns="http://www.w3.org/2000/svg">
    <mask id="path-1-outside-1_2001_1161" maskUnits="userSpaceOnUse" x="4" y="4" width="73" height="73" fill="black">
        <rect fill="white" x="4" y="4" width="73" height="73" />
        <path
            d="M36.9814 76C36.0059 76 35.193 75.7329 34.5427 75.1987C33.9156 74.6645 33.4743 73.8749 33.2188 72.8297L31.6163 65.7576L28.7944 64.7125L22.6281 68.6143C21.7455 69.2182 20.8862 69.4737 20.05 69.3808C19.2372 69.2879 18.4707 68.8814 17.7507 68.1614L12.8037 63.2841C12.0837 62.5641 11.6773 61.7861 11.5844 60.95C11.5147 60.1138 11.7702 59.2429 12.3508 58.3371L16.2527 52.1708L15.2076 49.4185L8.17026 47.7812C7.12512 47.5489 6.33546 47.1192 5.80128 46.4921C5.26709 45.8418 5 45.0173 5 44.0186V36.9814C5 35.9827 5.26709 35.1698 5.80128 34.5427C6.33546 33.9156 7.12512 33.4859 8.17026 33.2537L15.2076 31.5815L16.2527 28.8292L12.3508 22.6629C11.7702 21.7571 11.5147 20.8862 11.5844 20.05C11.6773 19.2139 12.0837 18.4475 12.8037 17.7507L17.7507 12.8386C18.4707 12.1186 19.2372 11.7237 20.05 11.6541C20.8862 11.5612 21.7455 11.805 22.6281 12.3857L28.7944 16.3224L31.6163 15.2772L33.2188 8.17026C33.4743 7.12512 33.9156 6.33546 34.5427 5.80128C35.193 5.26709 36.0059 5 36.9814 5H44.0186C45.0173 5 45.8302 5.26709 46.4573 5.80128C47.1076 6.33546 47.5489 7.12512 47.7812 8.17026L49.4185 15.2772L52.1708 16.3224L58.3719 12.3857C59.2545 11.805 60.1022 11.5612 60.9151 11.6541C61.728 11.7237 62.4944 12.1186 63.2144 12.8386L68.1614 17.7507C68.8814 18.4475 69.2763 19.2139 69.3459 20.05C69.4388 20.8862 69.2066 21.7571 68.6492 22.6629L64.7125 28.8292L65.7228 31.5815L72.8297 33.2537C73.8981 33.4859 74.6878 33.9156 75.1987 34.5427C75.7329 35.1698 76 35.9827 76 36.9814V44.0186C76 45.0173 75.7329 45.8418 75.1987 46.4921C74.6878 47.1192 73.8981 47.5489 72.8297 47.7812L65.7576 49.4185L64.7125 52.1708L68.6492 58.3371C69.2066 59.2429 69.4388 60.1138 69.3459 60.95C69.2763 61.7861 68.8814 62.5641 68.1614 63.2841L63.2144 68.1614C62.4944 68.8814 61.7164 69.2879 60.8803 69.3808C60.0674 69.4737 59.2313 69.2182 58.3719 68.6143L52.1708 64.7125L49.4185 65.7576L47.7812 72.8297C47.5489 73.8749 47.1076 74.6645 46.4573 75.1987C45.8302 75.7329 45.0173 76 44.0186 76H36.9814ZM37.2601 74.2581H43.7399C45.0406 74.2581 45.8186 73.6426 46.0741 72.4117L47.9205 64.2247C48.6869 64.0157 49.4302 63.7718 50.1501 63.4931C50.8701 63.2144 51.5321 62.9473 52.1359 62.6919L59.1732 67.1511C60.2416 67.8479 61.2519 67.7201 62.2041 66.7679L66.7679 62.239C67.6737 61.3099 67.7782 60.2996 67.0815 59.208L62.6222 52.1708C62.9241 51.5204 63.2144 50.8353 63.4931 50.1153C63.7718 49.3953 64.0157 48.6637 64.2247 47.9205L72.4117 46.0741C73.6658 45.7954 74.2929 45.0173 74.2929 43.7399V37.2601C74.2929 35.9827 73.6658 35.2046 72.4117 34.9259L64.2247 33.0795C64.0157 32.3363 63.7718 31.6047 63.4931 30.8847C63.2144 30.1415 62.9357 29.4679 62.657 28.8641L67.0815 21.792C67.7782 20.7004 67.6737 19.7017 66.7679 18.7959L62.2041 14.2321C61.2519 13.2798 60.2416 13.1637 59.1732 13.8837L52.1359 18.343C51.5321 18.0643 50.8701 17.7856 50.1501 17.5069C49.4302 17.2282 48.6869 16.9843 47.9205 16.7753L46.0741 8.62316C45.8186 7.34576 45.0406 6.70707 43.7399 6.70707H37.2601C35.9827 6.70707 35.2046 7.34576 34.9259 8.62316L33.0795 16.7753C32.3595 17.0075 31.6279 17.263 30.8847 17.5417C30.1415 17.7972 29.4447 18.0643 28.7944 18.343L21.792 13.8837C20.7236 13.1637 19.7133 13.2798 18.761 14.2321L14.1973 18.7959C13.3147 19.7017 13.2102 20.7004 13.8837 21.792L18.343 28.8641C18.0875 29.4679 17.8204 30.1415 17.5417 30.8847C17.263 31.6279 17.0075 32.3595 16.7753 33.0795L8.62316 34.9259C7.36899 35.2046 6.7419 35.9827 6.7419 37.2601V43.7399C6.7419 45.0173 7.36899 45.7954 8.62316 46.0741L16.7753 47.9205C16.9843 48.6405 17.2282 49.3721 17.5069 50.1153C17.8088 50.8353 18.0875 51.5204 18.343 52.1708L13.8837 59.208C13.1869 60.2996 13.2915 61.3099 14.1973 62.239L18.761 66.7679C19.7133 67.7201 20.7236 67.8479 21.792 67.1511L28.7944 62.6919C29.4447 62.9473 30.1415 63.2144 30.8847 63.4931C31.6279 63.7718 32.3711 64.0157 33.1143 64.2247L34.9259 72.4117C35.2046 73.6426 35.9827 74.2581 37.2601 74.2581ZM40.5348 53.843C38.0962 53.843 35.8549 53.2391 33.8111 52.0314C31.7905 50.8237 30.1763 49.2095 28.9686 47.1889C27.7609 45.1451 27.157 42.9038 27.157 40.4652C27.157 38.0497 27.7609 35.8317 28.9686 33.8111C30.1995 31.7905 31.8253 30.1763 33.8459 28.9686C35.8898 27.7609 38.1194 27.157 40.5348 27.157C42.9735 27.157 45.2031 27.7609 47.2237 28.9686C49.2444 30.1763 50.8585 31.7905 52.0662 33.8111C53.2972 35.8317 53.9127 38.0497 53.9127 40.4652C53.9127 42.9038 53.2972 45.1451 52.0662 47.1889C50.8585 49.2095 49.2444 50.8237 47.2237 52.0314C45.2031 53.2391 42.9735 53.843 40.5348 53.843ZM40.5348 52.1011C42.6483 52.1011 44.5877 51.5785 46.3528 50.5334C48.1179 49.465 49.5231 48.0482 50.5682 46.2831C51.6366 44.518 52.1708 42.5787 52.1708 40.4652C52.1708 38.3749 51.6366 36.4588 50.5682 34.7169C49.5231 32.9517 48.1179 31.5466 46.3528 30.5015C44.5877 29.4331 42.6483 28.8989 40.5348 28.8989C38.4446 28.8989 36.5168 29.4331 34.7517 30.5015C32.9866 31.5466 31.5698 32.9517 30.5015 34.7169C29.4331 36.4588 28.8989 38.3749 28.8989 40.4652C28.8989 42.5787 29.4215 44.518 30.4666 46.2831C31.535 48.0482 32.9517 49.465 34.7169 50.5334C36.482 51.5785 38.4213 52.1011 40.5348 52.1011Z" />
    </mask>
    <path
        d="M36.9814 76C36.0059 76 35.193 75.7329 34.5427 75.1987C33.9156 74.6645 33.4743 73.8749 33.2188 72.8297L31.6163 65.7576L28.7944 64.7125L22.6281 68.6143C21.7455 69.2182 20.8862 69.4737 20.05 69.3808C19.2372 69.2879 18.4707 68.8814 17.7507 68.1614L12.8037 63.2841C12.0837 62.5641 11.6773 61.7861 11.5844 60.95C11.5147 60.1138 11.7702 59.2429 12.3508 58.3371L16.2527 52.1708L15.2076 49.4185L8.17026 47.7812C7.12512 47.5489 6.33546 47.1192 5.80128 46.4921C5.26709 45.8418 5 45.0173 5 44.0186V36.9814C5 35.9827 5.26709 35.1698 5.80128 34.5427C6.33546 33.9156 7.12512 33.4859 8.17026 33.2537L15.2076 31.5815L16.2527 28.8292L12.3508 22.6629C11.7702 21.7571 11.5147 20.8862 11.5844 20.05C11.6773 19.2139 12.0837 18.4475 12.8037 17.7507L17.7507 12.8386C18.4707 12.1186 19.2372 11.7237 20.05 11.6541C20.8862 11.5612 21.7455 11.805 22.6281 12.3857L28.7944 16.3224L31.6163 15.2772L33.2188 8.17026C33.4743 7.12512 33.9156 6.33546 34.5427 5.80128C35.193 5.26709 36.0059 5 36.9814 5H44.0186C45.0173 5 45.8302 5.26709 46.4573 5.80128C47.1076 6.33546 47.5489 7.12512 47.7812 8.17026L49.4185 15.2772L52.1708 16.3224L58.3719 12.3857C59.2545 11.805 60.1022 11.5612 60.9151 11.6541C61.728 11.7237 62.4944 12.1186 63.2144 12.8386L68.1614 17.7507C68.8814 18.4475 69.2763 19.2139 69.3459 20.05C69.4388 20.8862 69.2066 21.7571 68.6492 22.6629L64.7125 28.8292L65.7228 31.5815L72.8297 33.2537C73.8981 33.4859 74.6878 33.9156 75.1987 34.5427C75.7329 35.1698 76 35.9827 76 36.9814V44.0186C76 45.0173 75.7329 45.8418 75.1987 46.4921C74.6878 47.1192 73.8981 47.5489 72.8297 47.7812L65.7576 49.4185L64.7125 52.1708L68.6492 58.3371C69.2066 59.2429 69.4388 60.1138 69.3459 60.95C69.2763 61.7861 68.8814 62.5641 68.1614 63.2841L63.2144 68.1614C62.4944 68.8814 61.7164 69.2879 60.8803 69.3808C60.0674 69.4737 59.2313 69.2182 58.3719 68.6143L52.1708 64.7125L49.4185 65.7576L47.7812 72.8297C47.5489 73.8749 47.1076 74.6645 46.4573 75.1987C45.8302 75.7329 45.0173 76 44.0186 76H36.9814ZM37.2601 74.2581H43.7399C45.0406 74.2581 45.8186 73.6426 46.0741 72.4117L47.9205 64.2247C48.6869 64.0157 49.4302 63.7718 50.1501 63.4931C50.8701 63.2144 51.5321 62.9473 52.1359 62.6919L59.1732 67.1511C60.2416 67.8479 61.2519 67.7201 62.2041 66.7679L66.7679 62.239C67.6737 61.3099 67.7782 60.2996 67.0815 59.208L62.6222 52.1708C62.9241 51.5204 63.2144 50.8353 63.4931 50.1153C63.7718 49.3953 64.0157 48.6637 64.2247 47.9205L72.4117 46.0741C73.6658 45.7954 74.2929 45.0173 74.2929 43.7399V37.2601C74.2929 35.9827 73.6658 35.2046 72.4117 34.9259L64.2247 33.0795C64.0157 32.3363 63.7718 31.6047 63.4931 30.8847C63.2144 30.1415 62.9357 29.4679 62.657 28.8641L67.0815 21.792C67.7782 20.7004 67.6737 19.7017 66.7679 18.7959L62.2041 14.2321C61.2519 13.2798 60.2416 13.1637 59.1732 13.8837L52.1359 18.343C51.5321 18.0643 50.8701 17.7856 50.1501 17.5069C49.4302 17.2282 48.6869 16.9843 47.9205 16.7753L46.0741 8.62316C45.8186 7.34576 45.0406 6.70707 43.7399 6.70707H37.2601C35.9827 6.70707 35.2046 7.34576 34.9259 8.62316L33.0795 16.7753C32.3595 17.0075 31.6279 17.263 30.8847 17.5417C30.1415 17.7972 29.4447 18.0643 28.7944 18.343L21.792 13.8837C20.7236 13.1637 19.7133 13.2798 18.761 14.2321L14.1973 18.7959C13.3147 19.7017 13.2102 20.7004 13.8837 21.792L18.343 28.8641C18.0875 29.4679 17.8204 30.1415 17.5417 30.8847C17.263 31.6279 17.0075 32.3595 16.7753 33.0795L8.62316 34.9259C7.36899 35.2046 6.7419 35.9827 6.7419 37.2601V43.7399C6.7419 45.0173 7.36899 45.7954 8.62316 46.0741L16.7753 47.9205C16.9843 48.6405 17.2282 49.3721 17.5069 50.1153C17.8088 50.8353 18.0875 51.5204 18.343 52.1708L13.8837 59.208C13.1869 60.2996 13.2915 61.3099 14.1973 62.239L18.761 66.7679C19.7133 67.7201 20.7236 67.8479 21.792 67.1511L28.7944 62.6919C29.4447 62.9473 30.1415 63.2144 30.8847 63.4931C31.6279 63.7718 32.3711 64.0157 33.1143 64.2247L34.9259 72.4117C35.2046 73.6426 35.9827 74.2581 37.2601 74.2581ZM40.5348 53.843C38.0962 53.843 35.8549 53.2391 33.8111 52.0314C31.7905 50.8237 30.1763 49.2095 28.9686 47.1889C27.7609 45.1451 27.157 42.9038 27.157 40.4652C27.157 38.0497 27.7609 35.8317 28.9686 33.8111C30.1995 31.7905 31.8253 30.1763 33.8459 28.9686C35.8898 27.7609 38.1194 27.157 40.5348 27.157C42.9735 27.157 45.2031 27.7609 47.2237 28.9686C49.2444 30.1763 50.8585 31.7905 52.0662 33.8111C53.2972 35.8317 53.9127 38.0497 53.9127 40.4652C53.9127 42.9038 53.2972 45.1451 52.0662 47.1889C50.8585 49.2095 49.2444 50.8237 47.2237 52.0314C45.2031 53.2391 42.9735 53.843 40.5348 53.843ZM40.5348 52.1011C42.6483 52.1011 44.5877 51.5785 46.3528 50.5334C48.1179 49.465 49.5231 48.0482 50.5682 46.2831C51.6366 44.518 52.1708 42.5787 52.1708 40.4652C52.1708 38.3749 51.6366 36.4588 50.5682 34.7169C49.5231 32.9517 48.1179 31.5466 46.3528 30.5015C44.5877 29.4331 42.6483 28.8989 40.5348 28.8989C38.4446 28.8989 36.5168 29.4331 34.7517 30.5015C32.9866 31.5466 31.5698 32.9517 30.5015 34.7169C29.4331 36.4588 28.8989 38.3749 28.8989 40.4652C28.8989 42.5787 29.4215 44.518 30.4666 46.2831C31.535 48.0482 32.9517 49.465 34.7169 50.5334C36.482 51.5785 38.4213 52.1011 40.5348 52.1011Z"
        fill="#ED2939" />
    <path
        d="M36.9814 76C36.0059 76 35.193 75.7329 34.5427 75.1987C33.9156 74.6645 33.4743 73.8749 33.2188 72.8297L31.6163 65.7576L28.7944 64.7125L22.6281 68.6143C21.7455 69.2182 20.8862 69.4737 20.05 69.3808C19.2372 69.2879 18.4707 68.8814 17.7507 68.1614L12.8037 63.2841C12.0837 62.5641 11.6773 61.7861 11.5844 60.95C11.5147 60.1138 11.7702 59.2429 12.3508 58.3371L16.2527 52.1708L15.2076 49.4185L8.17026 47.7812C7.12512 47.5489 6.33546 47.1192 5.80128 46.4921C5.26709 45.8418 5 45.0173 5 44.0186V36.9814C5 35.9827 5.26709 35.1698 5.80128 34.5427C6.33546 33.9156 7.12512 33.4859 8.17026 33.2537L15.2076 31.5815L16.2527 28.8292L12.3508 22.6629C11.7702 21.7571 11.5147 20.8862 11.5844 20.05C11.6773 19.2139 12.0837 18.4475 12.8037 17.7507L17.7507 12.8386C18.4707 12.1186 19.2372 11.7237 20.05 11.6541C20.8862 11.5612 21.7455 11.805 22.6281 12.3857L28.7944 16.3224L31.6163 15.2772L33.2188 8.17026C33.4743 7.12512 33.9156 6.33546 34.5427 5.80128C35.193 5.26709 36.0059 5 36.9814 5H44.0186C45.0173 5 45.8302 5.26709 46.4573 5.80128C47.1076 6.33546 47.5489 7.12512 47.7812 8.17026L49.4185 15.2772L52.1708 16.3224L58.3719 12.3857C59.2545 11.805 60.1022 11.5612 60.9151 11.6541C61.728 11.7237 62.4944 12.1186 63.2144 12.8386L68.1614 17.7507C68.8814 18.4475 69.2763 19.2139 69.3459 20.05C69.4388 20.8862 69.2066 21.7571 68.6492 22.6629L64.7125 28.8292L65.7228 31.5815L72.8297 33.2537C73.8981 33.4859 74.6878 33.9156 75.1987 34.5427C75.7329 35.1698 76 35.9827 76 36.9814V44.0186C76 45.0173 75.7329 45.8418 75.1987 46.4921C74.6878 47.1192 73.8981 47.5489 72.8297 47.7812L65.7576 49.4185L64.7125 52.1708L68.6492 58.3371C69.2066 59.2429 69.4388 60.1138 69.3459 60.95C69.2763 61.7861 68.8814 62.5641 68.1614 63.2841L63.2144 68.1614C62.4944 68.8814 61.7164 69.2879 60.8803 69.3808C60.0674 69.4737 59.2313 69.2182 58.3719 68.6143L52.1708 64.7125L49.4185 65.7576L47.7812 72.8297C47.5489 73.8749 47.1076 74.6645 46.4573 75.1987C45.8302 75.7329 45.0173 76 44.0186 76H36.9814ZM37.2601 74.2581H43.7399C45.0406 74.2581 45.8186 73.6426 46.0741 72.4117L47.9205 64.2247C48.6869 64.0157 49.4302 63.7718 50.1501 63.4931C50.8701 63.2144 51.5321 62.9473 52.1359 62.6919L59.1732 67.1511C60.2416 67.8479 61.2519 67.7201 62.2041 66.7679L66.7679 62.239C67.6737 61.3099 67.7782 60.2996 67.0815 59.208L62.6222 52.1708C62.9241 51.5204 63.2144 50.8353 63.4931 50.1153C63.7718 49.3953 64.0157 48.6637 64.2247 47.9205L72.4117 46.0741C73.6658 45.7954 74.2929 45.0173 74.2929 43.7399V37.2601C74.2929 35.9827 73.6658 35.2046 72.4117 34.9259L64.2247 33.0795C64.0157 32.3363 63.7718 31.6047 63.4931 30.8847C63.2144 30.1415 62.9357 29.4679 62.657 28.8641L67.0815 21.792C67.7782 20.7004 67.6737 19.7017 66.7679 18.7959L62.2041 14.2321C61.2519 13.2798 60.2416 13.1637 59.1732 13.8837L52.1359 18.343C51.5321 18.0643 50.8701 17.7856 50.1501 17.5069C49.4302 17.2282 48.6869 16.9843 47.9205 16.7753L46.0741 8.62316C45.8186 7.34576 45.0406 6.70707 43.7399 6.70707H37.2601C35.9827 6.70707 35.2046 7.34576 34.9259 8.62316L33.0795 16.7753C32.3595 17.0075 31.6279 17.263 30.8847 17.5417C30.1415 17.7972 29.4447 18.0643 28.7944 18.343L21.792 13.8837C20.7236 13.1637 19.7133 13.2798 18.761 14.2321L14.1973 18.7959C13.3147 19.7017 13.2102 20.7004 13.8837 21.792L18.343 28.8641C18.0875 29.4679 17.8204 30.1415 17.5417 30.8847C17.263 31.6279 17.0075 32.3595 16.7753 33.0795L8.62316 34.9259C7.36899 35.2046 6.7419 35.9827 6.7419 37.2601V43.7399C6.7419 45.0173 7.36899 45.7954 8.62316 46.0741L16.7753 47.9205C16.9843 48.6405 17.2282 49.3721 17.5069 50.1153C17.8088 50.8353 18.0875 51.5204 18.343 52.1708L13.8837 59.208C13.1869 60.2996 13.2915 61.3099 14.1973 62.239L18.761 66.7679C19.7133 67.7201 20.7236 67.8479 21.792 67.1511L28.7944 62.6919C29.4447 62.9473 30.1415 63.2144 30.8847 63.4931C31.6279 63.7718 32.3711 64.0157 33.1143 64.2247L34.9259 72.4117C35.2046 73.6426 35.9827 74.2581 37.2601 74.2581ZM40.5348 53.843C38.0962 53.843 35.8549 53.2391 33.8111 52.0314C31.7905 50.8237 30.1763 49.2095 28.9686 47.1889C27.7609 45.1451 27.157 42.9038 27.157 40.4652C27.157 38.0497 27.7609 35.8317 28.9686 33.8111C30.1995 31.7905 31.8253 30.1763 33.8459 28.9686C35.8898 27.7609 38.1194 27.157 40.5348 27.157C42.9735 27.157 45.2031 27.7609 47.2237 28.9686C49.2444 30.1763 50.8585 31.7905 52.0662 33.8111C53.2972 35.8317 53.9127 38.0497 53.9127 40.4652C53.9127 42.9038 53.2972 45.1451 52.0662 47.1889C50.8585 49.2095 49.2444 50.8237 47.2237 52.0314C45.2031 53.2391 42.9735 53.843 40.5348 53.843ZM40.5348 52.1011C42.6483 52.1011 44.5877 51.5785 46.3528 50.5334C48.1179 49.465 49.5231 48.0482 50.5682 46.2831C51.6366 44.518 52.1708 42.5787 52.1708 40.4652C52.1708 38.3749 51.6366 36.4588 50.5682 34.7169C49.5231 32.9517 48.1179 31.5466 46.3528 30.5015C44.5877 29.4331 42.6483 28.8989 40.5348 28.8989C38.4446 28.8989 36.5168 29.4331 34.7517 30.5015C32.9866 31.5466 31.5698 32.9517 30.5015 34.7169C29.4331 36.4588 28.8989 38.3749 28.8989 40.4652C28.8989 42.5787 29.4215 44.518 30.4666 46.2831C31.535 48.0482 32.9517 49.465 34.7169 50.5334C36.482 51.5785 38.4213 52.1011 40.5348 52.1011Z"
        stroke="#ED2939" stroke-width="1.2" mask="url(#path-1-outside-1_2001_1161)" />
</svg>