<svg width="250" height="250" viewBox="0 0 250 250" fill="none" xmlns="http://www.w3.org/2000/svg">
    <path fill-rule="evenodd" clip-rule="evenodd"
        d="M127.44 110.459C128.03 110.459 128.508 110.937 128.508 111.527V113.557C129.124 113.61 129.71 113.871 130.158 114.306C130.602 114.736 130.88 115.306 130.941 115.918H133.183C133.773 115.918 134.251 116.396 134.251 116.986C134.251 117.576 133.773 118.055 133.183 118.055H130.954V120.556H133.183C133.773 120.556 134.251 121.034 134.251 121.624C134.251 122.214 133.773 122.692 133.183 122.692H130.937C130.867 123.288 130.592 123.842 130.158 124.262C129.714 124.693 129.136 124.953 128.526 125.01V127.12C128.526 127.71 128.048 128.189 127.458 128.189C126.868 128.189 126.39 127.71 126.39 127.12V125.022H123.664V127.12C123.664 127.71 123.186 128.189 122.596 128.189C122.006 128.189 121.528 127.71 121.528 127.12V124.997C120.342 124.835 119.375 123.902 119.238 122.692H116.99C116.4 122.692 115.922 122.214 115.922 121.624C115.922 121.034 116.4 120.556 116.99 120.556H119.221V118.055H116.99C116.4 118.055 115.922 117.576 115.922 116.986C115.922 116.396 116.4 115.918 116.99 115.918H119.234C119.294 115.307 119.572 114.737 120.015 114.307C120.43 113.905 120.961 113.651 121.526 113.572V111.529C121.526 110.939 122.004 110.461 122.594 110.461C123.184 110.461 123.662 110.939 123.662 111.529V113.546H126.372V111.527C126.372 110.937 126.85 110.459 127.44 110.459ZM121.898 115.683C121.743 115.684 121.602 115.744 121.503 115.84C121.405 115.935 121.357 116.056 121.357 116.174V122.394C121.357 122.635 121.568 122.885 121.896 122.885H128.276C128.431 122.884 128.572 122.824 128.671 122.728C128.769 122.633 128.818 122.512 128.818 122.394V116.174C128.818 116.056 128.769 115.935 128.671 115.84C128.572 115.744 128.431 115.684 128.275 115.683H121.898Z"
        fill="#ED2939" />
    <path fill-rule="evenodd" clip-rule="evenodd"
        d="M102.922 140.313C102.922 139.605 103.496 139.031 104.204 139.031L147.985 139.031C148.693 139.031 149.266 139.605 149.266 140.313C149.266 141.021 148.693 141.595 147.985 141.595L104.204 141.595C103.496 141.595 102.922 141.021 102.922 140.313Z"
        fill="#ED2939" />
    <path fill-rule="evenodd" clip-rule="evenodd"
        d="M103.711 109.127C103.711 105.769 106.433 103.047 109.791 103.047H140.377C143.735 103.047 146.457 105.769 146.457 109.127V129.518C146.457 132.875 143.735 135.597 140.377 135.597H109.791C106.433 135.597 103.711 132.875 103.711 129.518V109.127ZM109.791 105.611C107.849 105.611 106.275 107.185 106.275 109.127V129.518C106.275 131.46 107.849 133.034 109.791 133.034H140.377C142.319 133.034 143.893 131.46 143.893 129.518V109.127C143.893 107.185 142.319 105.611 140.377 105.611H109.791Z"
        fill="#ED2939" />
    <path fill-rule="evenodd" clip-rule="evenodd"
        d="M83.5547 100.057C83.5547 94.1574 88.3371 89.375 94.2365 89.375H155.764C161.663 89.375 166.446 94.1574 166.446 100.057V141.075C166.446 146.974 161.663 151.757 155.764 151.757H94.2365C88.3371 151.757 83.5547 146.974 83.5547 141.075V100.057ZM94.2365 92.7932C90.2249 92.7932 86.9729 96.0452 86.9729 100.057V141.075C86.9729 145.087 90.2249 148.339 94.2365 148.339H155.764C159.775 148.339 163.027 145.087 163.027 141.075V100.057C163.027 96.0452 159.775 92.7932 155.764 92.7932H94.2365Z"
        fill="#ED2939" fill-opacity="0.5" />
    <path fill-rule="evenodd" clip-rule="evenodd"
        d="M58.7734 82.9653C58.7734 74.2342 65.8514 67.1562 74.5825 67.1562H175.419C184.15 67.1562 191.228 74.2342 191.228 82.9653V151.329C191.228 160.06 184.15 167.138 175.419 167.138H74.5825C65.8514 167.138 58.7734 160.06 58.7734 151.329V82.9653ZM74.5825 72.2835C68.6831 72.2835 63.9007 77.0659 63.9007 82.9653V151.329C63.9007 157.228 68.6831 162.011 74.5825 162.011H175.419C181.318 162.011 186.101 157.228 186.101 151.329V82.9653C186.101 77.0659 181.318 72.2835 175.419 72.2835H74.5825Z"
        fill="#ED2939" fill-opacity="0.2" />
    <path fill-rule="evenodd" clip-rule="evenodd"
        d="M21.1719 58.1835C21.1719 46.1487 30.928 36.3926 42.9628 36.3926H207.036C219.07 36.3926 228.826 46.1487 228.826 58.1835V170.983C228.826 183.018 219.07 192.774 207.036 192.774H42.9628C30.928 192.774 21.1719 183.018 21.1719 170.983V58.1835ZM42.9628 43.2289C34.7036 43.2289 28.0082 49.9243 28.0082 58.1835V170.983C28.0082 179.243 34.7036 185.938 42.9628 185.938H207.036C215.295 185.938 221.99 179.243 221.99 170.983V58.1835C221.99 49.9243 215.295 43.2289 207.036 43.2289H42.9628Z"
        fill="#ED2939" fill-opacity="0.1" />
</svg>