<svg width="80" height="80" viewBox="0 0 80 80" fill="none" xmlns="http://www.w3.org/2000/svg">
    <rect x="7" y="8" width="67" height="50" rx="8" stroke="#ED2939" stroke-width="3" />
    <path d="M4 68L77 68" stroke="#ED2939" stroke-width="3" stroke-linecap="round" />
    <path
        d="M36.3443 20.0026V25.148M27 29.1026H32.5006M48.5021 29.1026H54M48.5021 36.835H54M27 36.835H32.5006M36.347 40.852V46M44.454 40.852V46M44.4244 20V25.148M35.1796 40.7194H45.8204C46.5324 40.7173 47.2144 40.4425 47.7171 39.9551C48.2198 39.4678 48.5021 38.8076 48.5021 38.1194V27.748C48.5021 27.0598 48.2198 26.3996 47.7171 25.9123C47.2144 25.4249 46.5324 25.1501 45.8204 25.148H35.1796C34.4681 25.1508 33.7867 25.4259 33.2846 25.9132C32.7825 26.4005 32.5006 27.0602 32.5006 27.748V38.1194C32.5006 39.5546 33.7002 40.7194 35.1796 40.7194Z"
        stroke="#ED2939" stroke-width="3" stroke-linecap="round" stroke-linejoin="round" />
</svg>