<svg width="120" height="80" viewBox="0 0 120 80" fill="none" xmlns="http://www.w3.org/2000/svg">
    <path fill-rule="evenodd" clip-rule="evenodd"
        d="M23 20.5V16.5H104.487L104.07 63.5442C104.046 66.2883 101.815 68.5 99.0705 68.5H28C25.2386 68.5 23 66.2614 23 63.5V23.5V20.5ZM20 20.5V10.5C16.4101 10.5 13.5 13.4101 13.5 17V20.5H20ZM20 23.5H13.5V70.5C13.5 74.0898 16.4102 77 20 77H91.1168C94.3622 77 97.0583 74.6197 97.5402 71.5H28C23.5817 71.5 20 67.9183 20 63.5V23.5ZM100.578 71.3581C100.143 76.2106 96.0672 80 91.1168 80H20C14.7533 80 10.5 75.7467 10.5 70.5V17C10.5 11.7533 14.7533 7.5 20 7.5H20.3984C21.4482 4.30607 24.4548 2 28 2H99.5C103.918 2 107.5 5.58172 107.5 10V15L107.07 63.5708C107.036 67.4459 104.251 70.6575 100.578 71.3581ZM23 13.5H104.5V10C104.5 7.23858 102.261 5 99.5 5H28C25.2386 5 23 7.23858 23 10V13.5ZM69.0943 29.2422C66.5062 28.1694 63.6364 27.9808 60.9303 28.7058C58.2241 29.4308 55.8329 31.0288 54.1278 33.2517C52.4226 35.4746 51.4989 38.1982 51.5 40.9998C51.5003 41.8283 50.829 42.5001 50.0006 42.5004C49.1721 42.5007 48.5003 41.8294 48.5 41.001C48.4987 37.5388 49.6402 34.1729 51.7474 31.4258C53.8546 28.6787 56.8096 26.7039 60.1539 25.808C63.4982 24.9121 67.0447 25.1451 70.243 26.4708C72.0868 27.2351 73.7555 28.338 75.1696 29.7096V25C75.1696 24.1716 75.8411 23.5 76.6696 23.5C77.498 23.5 78.1696 24.1716 78.1696 25V33.8892C78.1696 34.7176 77.498 35.3892 76.6696 35.3892H76.5883C76.5589 35.39 76.5296 35.39 76.5003 35.3892H67.7812C66.9528 35.3892 66.2812 34.7176 66.2812 33.8892C66.2812 33.0607 66.9528 32.3892 67.7812 32.3892H73.5928C72.3476 31.0334 70.8152 29.9556 69.0943 29.2422ZM78.4446 39.5004C79.273 39.5002 79.9448 40.1716 79.945 41C79.946 44.4619 78.8043 47.8273 76.6972 50.5741C74.59 53.3209 71.6352 55.2954 68.2912 56.1913C64.9472 57.0872 61.401 56.8543 58.2029 55.5289C56.3613 54.7656 54.6943 53.6646 53.2812 52.2953V57C53.2812 57.8284 52.6097 58.5 51.7812 58.5C50.9528 58.5 50.2812 57.8284 50.2812 57V48.1108C50.2812 47.2824 50.9528 46.6108 51.7812 46.6108H60.6696C61.498 46.6108 62.1696 47.2824 62.1696 48.1108C62.1696 48.9393 61.498 49.6108 60.6696 49.6108H54.8528C56.0981 50.9665 57.6305 52.0442 59.3515 52.7574C61.9394 53.83 64.8089 54.0184 67.5149 53.2935C70.2208 52.5685 72.6118 50.9708 74.3169 48.7481C76.022 46.5254 76.9458 43.8022 76.945 41.0008C76.9448 40.1724 77.6162 39.5006 78.4446 39.5004Z"
        fill="#ED2939" />
    <circle cx="84.5" cy="10.5" r="1.5" fill="#ED2939" />
    <circle cx="91.5" cy="10.5" r="1.5" fill="#ED2939" />
    <circle cx="98.5" cy="10.5" r="1.5" fill="#ED2939" />
</svg>