<svg width="120" height="80" viewBox="0 0 120 80" fill="none" xmlns="http://www.w3.org/2000/svg">
    <path fill-rule="evenodd" clip-rule="evenodd"
        d="M53.0595 5.6047L53.8137 5.363C60.2444 3.46461 67.31 4.74861 72.3743 8.72034L72.3764 8.72195C76.3921 11.8601 78.6759 16.2896 78.8635 20.8868L78.8934 22.949L80.5993 23.004C87.049 23.302 92.1802 28.3752 92.4882 34.6469L92.5 35.2574C92.4925 41.7967 87.2493 47.1754 80.6029 47.4853L79.9786 47.4998H42.7689L42.1 47.4763C33.5951 47.1648 26.8414 40.713 26.515 32.7913L26.5 32.1601C26.509 24.5657 32.4053 18.2071 40.2157 17.0546L41.4342 16.8874L41.9707 15.5314C43.8702 11.0062 47.8803 7.3554 53.0595 5.6047ZM52.9256 2.49666L52.951 2.67136L52.8981 2.50614L52.1219 2.7549L52.111 2.75857C46.2604 4.73268 41.5881 8.87173 39.2924 14.1645C30.3884 15.7025 23.5 23.1048 23.5 32.1774V32.1951L23.5164 32.8876L23.5169 32.9001C23.7184 37.8911 26.0038 42.3301 29.541 45.5H29.5C25.3579 45.5 22 48.8579 22 53V56.5H18C15.5147 56.5 13.5 58.5147 13.5 61V69C13.5 71.4853 15.5147 73.5 18 73.5H31C33.4853 73.5 35.5 71.4853 35.5 69V61C35.5 58.5147 33.4853 56.5 31 56.5H25V53C25 50.5147 27.0147 48.5 29.5 48.5H34C34.0063 48.5 34.0125 48.5 34.0188 48.4999C36.4353 49.6712 39.14 50.37 41.9913 50.4743L42.716 50.4998H58V56.5H53C50.5147 56.5 48.5 58.5147 48.5 61V69C48.5 71.4853 50.5147 73.5 53 73.5H66C68.4853 73.5 70.5 71.4853 70.5 69V61C70.5 58.5147 68.4853 56.5 66 56.5H61V50.4998H80.0136L80.7062 50.4837L80.7228 50.483C83.2421 50.3687 85.6072 49.662 87.6752 48.5H89C91.4853 48.5 93.5 50.5147 93.5 53V56.5H88C85.5147 56.5 83.5 58.5147 83.5 61V69C83.5 71.4853 85.5147 73.5 88 73.5H101C103.485 73.5 105.5 71.4853 105.5 69V61C105.5 58.5147 103.485 56.5 101 56.5H96.5V53C96.5 49.6131 94.255 46.7505 91.1719 45.8193C93.8505 43.0802 95.5 39.3562 95.5 35.2433V35.2287L95.4868 34.5463L95.4858 34.5253C95.1298 27.0156 89.2732 20.9536 81.8213 20.0945C81.41 14.814 78.7016 9.8577 74.2242 6.35854C68.3516 1.75372 60.2539 0.31984 52.9256 2.49666ZM16.5 61C16.5 60.1716 17.1716 59.5 18 59.5H31C31.8284 59.5 32.5 60.1716 32.5 61V69C32.5 69.8284 31.8284 70.5 31 70.5H18C17.1716 70.5 16.5 69.8284 16.5 69V61ZM86.5 61C86.5 60.1716 87.1716 59.5 88 59.5H101C101.828 59.5 102.5 60.1716 102.5 61V69C102.5 69.8284 101.828 70.5 101 70.5H88C87.1716 70.5 86.5 69.8284 86.5 69V61ZM53 59.5C52.1716 59.5 51.5 60.1716 51.5 61V69C51.5 69.8284 52.1716 70.5 53 70.5H66C66.8284 70.5 67.5 69.8284 67.5 69V61C67.5 60.1716 66.8284 59.5 66 59.5H53ZM15 75.5C14.1716 75.5 13.5 76.1716 13.5 77C13.5 77.8284 14.1716 78.5 15 78.5H34C34.8284 78.5 35.5 77.8284 35.5 77C35.5 76.1716 34.8284 75.5 34 75.5H15ZM83.5 77C83.5 76.1716 84.1716 75.5 85 75.5H104C104.828 75.5 105.5 76.1716 105.5 77C105.5 77.8284 104.828 78.5 104 78.5H85C84.1716 78.5 83.5 77.8284 83.5 77ZM50 75.5C49.1716 75.5 48.5 76.1716 48.5 77C48.5 77.8284 49.1716 78.5 50 78.5H69C69.8284 78.5 70.5 77.8284 70.5 77C70.5 76.1716 69.8284 75.5 69 75.5H50Z"
        fill="#ED2939" />
</svg>