<svg width="120" height="80" viewBox="0 0 120 80" fill="none" xmlns="http://www.w3.org/2000/svg">
    <path fill-rule="evenodd" clip-rule="evenodd"
        d="M15.5 14.05C15.5 8.77568 19.7757 4.5 25.05 4.5H95.95C101.224 4.5 105.5 8.77568 105.5 14.05V25.4644H113.2C113.98 25.4644 114.63 26.062 114.695 26.8391C114.76 27.6162 114.219 28.3137 113.45 28.4435L104.229 30H105.5V64.4004H114.408C114.852 64.4004 115.213 64.7604 115.213 65.2046C115.213 71.4224 110.172 76.4629 103.954 76.4629H16.7896C10.5718 76.4629 5.53125 71.4224 5.53125 65.2046C5.53125 64.7604 5.89129 64.4004 6.33542 64.4004H15.5V14.05ZM102.5 30.2918L86.8597 32.9319L66.6444 51.6374C66.4357 51.8305 66.1764 51.9603 65.8967 52.0117L42.47 56.3157C41.7695 56.4443 41.0751 56.0627 40.8082 55.4024C40.5413 54.7421 40.7756 53.9852 41.3687 53.591L57.2273 43.0526L37.096 19.5922C36.6675 19.0927 36.6145 18.3723 36.9654 17.8156C37.3163 17.2588 37.9891 16.9958 38.6245 17.167L69.094 25.3743L81.2142 19.7647C81.6731 19.5523 82.2082 19.5855 82.6374 19.8529L91.644 25.4644H102.5V14.05C102.5 10.4325 99.5675 7.5 95.95 7.5H25.05C21.4325 7.5 18.5 10.4325 18.5 14.05V64.4004H51.411C51.839 65.6879 53.0434 66.5566 54.4002 66.5566H67.0605C67.3356 66.5566 67.6045 66.5209 67.8619 66.4532C68.8738 66.187 69.7084 65.4268 70.0496 64.4004H102.5V30.2918ZM71.7377 67.4004C70.5932 68.7401 68.8984 69.5566 67.0605 69.5566H54.4002C52.5622 69.5566 50.8675 68.7401 49.7229 67.4004H8.82637C9.78797 70.8955 12.989 73.4629 16.7896 73.4629H103.954C107.755 73.4629 110.956 70.8955 111.917 67.4004H71.7377ZM49.1167 52.0443L59.1958 45.3466L62.7878 49.5327L49.1167 52.0443ZM61.9221 43.917L65.7499 48.3778L78.5251 36.5567L61.9221 43.917ZM69.9374 28.7084L81.6871 31.8734L63.1679 40.0832L69.9374 28.7084ZM59.2491 40.8019L66.9286 27.898L42.5389 21.3283L59.2491 40.8019ZM86.2427 29.9936L80.5656 28.4644H95.3019L86.2427 29.9936ZM85.9708 25.4644H76.0419L81.7388 22.8276L85.9708 25.4644Z"
        fill="#ED2939" />
</svg>