<svg width="120" height="80" viewBox="0 0 120 80" fill="none" xmlns="http://www.w3.org/2000/svg">
    <path fill-rule="evenodd" clip-rule="evenodd"
        d="M97.4345 12.9138C98.0344 13.4851 98.0575 14.4345 97.4862 15.0345L87.9153 25.0845C87.6322 25.3817 87.2396 25.55 86.8291 25.55C86.4186 25.55 86.026 25.3818 85.7429 25.0846L81.9139 21.0646C81.3425 20.4647 81.3656 19.5152 81.9655 18.9439C82.5653 18.3725 83.5148 18.3956 84.0861 18.9955L86.829 21.875L95.3138 12.9655C95.8851 12.3656 96.8345 12.3425 97.4345 12.9138Z"
        fill="#ED2939" />
    <path fill-rule="evenodd" clip-rule="evenodd"
        d="M97.4345 52.9138C98.0344 53.4851 98.0575 54.4345 97.4862 55.0345L87.9153 65.0845C87.6322 65.3817 87.2396 65.55 86.8291 65.55C86.4186 65.55 86.026 65.3818 85.7429 65.0846L81.9139 61.0646C81.3425 60.4647 81.3656 59.5152 81.9655 58.9439C82.5653 58.3725 83.5148 58.3956 84.0861 58.9955L86.829 61.875L95.3138 52.9655C95.8851 52.3656 96.8345 52.3425 97.4345 52.9138Z"
        fill="#ED2939" />
    <path fill-rule="evenodd" clip-rule="evenodd"
        d="M23.5 15C23.5 14.1716 24.1716 13.5 25 13.5H63C63.8284 13.5 64.5 14.1716 64.5 15C64.5 15.8284 63.8284 16.5 63 16.5H25C24.1716 16.5 23.5 15.8284 23.5 15ZM23.5 23C23.5 22.1716 24.1716 21.5 25 21.5H43.5C44.3284 21.5 45 22.1716 45 23C45 23.8284 44.3284 24.5 43.5 24.5H25C24.1716 24.5 23.5 23.8284 23.5 23Z"
        fill="#ED2939" />
    <path fill-rule="evenodd" clip-rule="evenodd"
        d="M23.5 55C23.5 54.1716 24.1716 53.5 25 53.5H63C63.8284 53.5 64.5 54.1716 64.5 55C64.5 55.8284 63.8284 56.5 63 56.5H25C24.1716 56.5 23.5 55.8284 23.5 55ZM23.5 63C23.5 62.1716 24.1716 61.5 25 61.5H43.5C44.3284 61.5 45 62.1716 45 63C45 63.8284 44.3284 64.5 43.5 64.5H25C24.1716 64.5 23.5 63.8284 23.5 63Z"
        fill="#ED2939" />
    <path fill-rule="evenodd" clip-rule="evenodd"
        d="M11.5 9C11.5 4.85786 14.8579 1.5 19 1.5H101C105.142 1.5 108.5 4.85786 108.5 9V30C108.5 34.1421 105.142 37.5 101 37.5H19C14.8579 37.5 11.5 34.1421 11.5 30V9ZM19 4.5C16.5147 4.5 14.5 6.51472 14.5 9V30C14.5 32.4853 16.5147 34.5 19 34.5H101C103.485 34.5 105.5 32.4853 105.5 30V9C105.5 6.51472 103.485 4.5 101 4.5H19Z"
        fill="#ED2939" />
    <path fill-rule="evenodd" clip-rule="evenodd"
        d="M11.5 49C11.5 44.8579 14.8579 41.5 19 41.5H101C105.142 41.5 108.5 44.8579 108.5 49V69C108.5 73.1421 105.142 76.5 101 76.5H19C14.8579 76.5 11.5 73.1421 11.5 69V49ZM19 44.5C16.5147 44.5 14.5 46.5147 14.5 49V69C14.5 71.4853 16.5147 73.5 19 73.5H101C103.485 73.5 105.5 71.4853 105.5 69V49C105.5 46.5147 103.485 44.5 101 44.5H19Z"
        fill="#ED2939" />
</svg>