<svg xmlns="http://www.w3.org/2000/svg" width="20" height="20" viewBox="0 0 20 20">
    <path fill-rule="evenodd" clip-rule="evenodd"
        d="M12.253 5.17336C10.0219 2.94221 6.4045 2.94221 4.17336 5.17336C1.94221 7.4045 1.94221 11.0219 4.17336 13.253C6.4045 15.4842 10.0219 15.4842 12.253 13.253C14.4842 11.0219 14.4842 7.4045 12.253 5.17336ZM3.46625 4.46625C6.08792 1.84458 10.3385 1.84458 12.9602 4.46625C15.4629 6.969 15.5764 10.9562 13.3007 13.5936L17.3536 17.6464L16.6464 18.3536L12.5936 14.3007C9.95621 16.5764 5.969 16.4629 3.46625 13.9602C0.844583 11.3385 0.844583 7.08792 3.46625 4.46625Z" />
</svg>