<svg width="32" height="32" viewBox="0 0 32 32" xmlns="http://www.w3.org/2000/svg">
    <path fill-rule="evenodd" clip-rule="evenodd"
        d="M26.3671 5.90515C27.8177 5.29439 29.3727 6.52097 29.1166 8.07389L26.0914 26.4162C25.7997 28.1847 23.8573 29.1995 22.2347 28.3182C20.877 27.5807 18.8626 26.4456 17.0471 25.2594C16.1406 24.667 13.3647 22.7675 13.7059 21.4154C13.9977 20.2592 18.6642 15.9154 21.3309 13.332C22.3783 12.3173 21.9013 11.731 20.6642 12.6654C17.5954 14.9831 12.6685 18.507 11.0392 19.4987C9.6017 20.3736 8.85114 20.523 7.95587 20.3736C6.32103 20.1012 4.80534 19.6794 3.5679 19.1664C1.8954 18.4731 1.97687 16.1747 3.56676 15.5054L26.3671 5.90515Z" />
</svg>