<svg width="41" height="32" viewBox="0 0 41 32" xmlns="http://www.w3.org/2000/svg">
    <path
        d="M18.667 6.00093C20.0261 5.98685 21.3554 6.13753 22.004 6.15621C24.408 6.22541 24.8325 7.44129 24.8018 8.44137C24.7568 9.90605 23.8144 16.1018 25.5606 16.706C28.105 15.3454 29.8112 11.1196 31.0537 8.44137C31.6823 7.08665 31.5829 7.01933 33.0312 7.01753L38.7852 7.00873C40.1708 7.00701 40.1167 6.95841 40.5606 7.52437C41.593 8.84069 37.3027 14.3161 35.917 15.83C33.3598 18.6239 34.8518 19.7058 35.2637 20.0898C37.1721 21.8691 39.0161 23.7142 40.1622 25.416C41.0733 26.7688 40.697 28.0284 39.5381 28.0761L33.3682 28.331C31.3207 28.4152 28.1371 24.7449 27.629 23.9452C27.218 23.2856 25.2374 22.459 25.0508 24.1444L24.79 26.4969C24.6007 28.1786 23.359 28.1393 22.379 28.1814C15.5922 28.4735 13.281 25.8896 9.86328 22.076C7.35844 18.5336 4.96808 14.9708 2.98732 10.7029C2.39444 9.42541 2.0804 8.48825 2 7.49493C2.99664 6.71597 6.49492 7.05149 8.84376 6.99981C9.4862 6.98565 9.91968 7.35377 10.2588 8.08673C11.582 10.9472 13.0252 13.7563 14.9346 16.24C15.7662 17.006 16.5013 17.2876 16.8682 15.7303C17.0812 15.7107 17.0641 13.1318 17.0762 11.1863C17.0845 9.85057 16.9276 8.24869 14.6651 7.50957C15.1227 6.31001 16.9197 6.01905 18.667 6.00093Z" />
</svg>