<svg width="32" height="32" viewBox="0 0 32 32" xmlns="http://www.w3.org/2000/svg">
    <path fill-rule="evenodd" clip-rule="evenodd"
        d="M15.9974 2.66602C8.6336 2.66602 2.66406 8.63555 2.66406 15.9993C2.66406 18.5188 3.36413 20.8785 4.58081 22.8904L3.39181 26.9329C3.09104 27.9556 4.04118 28.9057 5.06373 28.6049L9.10634 27.4159C11.1182 28.6327 13.4779 29.3327 15.9974 29.3327C23.3611 29.3327 29.3307 23.3631 29.3307 15.9993C29.3307 8.63555 23.3611 2.66602 15.9974 2.66602ZM12.9817 19.0163C15.6783 21.7129 18.2534 22.0684 19.1626 22.1019C20.5455 22.1528 21.8921 21.0967 22.417 19.8716C22.5457 19.5716 22.5135 19.2107 22.2981 18.9345C21.5683 18 20.5805 17.3304 19.6153 16.6639C19.1982 16.3753 18.6247 16.4647 18.3175 16.8733L17.5166 18.0935C17.4277 18.2288 17.251 18.2753 17.1105 18.1949C16.5685 17.8851 15.7782 17.3567 15.2097 16.7881C14.6418 16.2203 14.1455 15.4657 13.867 14.9587C13.7938 14.8253 13.8343 14.6607 13.9563 14.57L15.1877 13.6556C15.5549 13.3377 15.6194 12.7978 15.3491 12.4024C14.7507 11.5269 14.0537 10.4143 13.0447 9.67836C12.7692 9.47735 12.4206 9.45479 12.1328 9.57812C10.9063 10.1037 9.84505 11.4499 9.89604 12.8353C9.9295 13.7445 10.285 16.3196 12.9817 19.0163Z" />
</svg>