<svg fill="none" height="142" viewBox="0 0 454 142" width="454" xmlns="http://www.w3.org/2000/svg"
    xmlns:xlink="http://www.w3.org/1999/xlink">
    <clipPath id="a">
        <path d="m0 0h453.5v141.7h-453.5z" />
    </clipPath>
    <g clip-path="url(#a)">
        <path d="m453.5 0h-453.5v141.7h453.5z" fill="#fff" />
        <g clip-rule="evenodd" fill-rule="evenodd">
            <path d="m70.7998 46.2012h12.9v3.2l-12.9 15.5zm12.9 9.2-12.9 15.4v24.3h12.9z" fill="#e5162b" />
            <path d="m139.899 46.2012h12.9v36.8h18.3l-10.2 12.2h-8.1-12.9v-12.2z" fill="#e5162b" />
            <path
                d="m112.2 44.4004c13.1 0 23.9 9.1 26.4 21.2h-12.3c-2.1-5.6-7.6-9.5-14.1-9.5-8.3 0-15.0002 6.6-15.0002 14.6 0 8.1 6.7002 14.6 15.0002 14.6 6.5 0 12-4 14.1-9.5h12.3c-2.4 12.1-13.3 21.2-26.4 21.2-14.8002 0-26.9002-11.8-26.9002-26.3.1-14.5 12.1-26.3 26.9002-26.3z"
                fill="#e5162b" />
            <path
                d="m343.199 45.1004h-4.3v22.5h9.2c4.4 0 8-3.6 8-8s-3.6-8-8-8h-4.8v-6.5zm-59.1 42.6v-5.5c0-5.1-4.2-9.3-9.3-9.3s-9.3 4.2-9.3 9.3v5.5c0 5.1 4.2 9.3 9.3 9.3 5.2 0 9.3-4.1 9.3-9.3zm-14.2 0v-5.5c0-2.7 2.2-4.9 4.9-4.9s4.9 2.2 4.9 4.9v5.5c0 2.7-2.2 4.9-4.9 4.9-2.7.1-4.9-2.1-4.9-4.9zm36 0c0 5.1 4.2 9.3 9.3 9.3s9.3-4.2 9.3-9.3v-5.5c0-5.1-4.2-9.3-9.3-9.3s-9.3 4.2-9.3 9.3zm14.2 0c0 2.7-2.2 4.9-4.9 4.9s-4.9-2.2-4.9-4.9v-5.5c0-2.7 2.2-4.9 4.9-4.9s4.9 2.2 4.9 4.9zm20.8-14c-3.9 0-9.1 0-13 0v22.5h4.3v-18.1h5zm-138 0v4.3h16.6v-4.3zm0 18.2v4.3h16.6v-4.3zm42 4.4h4.3v-9.1h8.4v9.1h4.3v-22.6h-4.3v9.1h-8.4v-9.1h-4.3zm44.4 0 4.5-18.2h2.3l4.5 18.2h4.5c-1.8-7.5-3.7-15-5.5-22.5-3 0-6.1 0-9.1 0-1.8 7.5-3.7 15-5.5 22.5zm-86.4-13.5v4.4h10.1l3.7-4.4zm175.1-9.1-9.2 19.4v-19.4h-4.4v22.5h7.7l6.5-13.7v13.7h4.4v-22.5c-1.7 0-3.3 0-5 0zm-22.5 0-9.2 19.4v-19.4h-4.4v22.5h7.7l6.5-13.7v13.7h4.4v-22.5c-1.7 0-3.3 0-5 0zm-127.5 11.3-5.3 11.3h4.8l4.7-10 4.7 10h4.8l-5.3-11.3 5.3-11.3h-4.7l-4.7 10-4.7-10h-4.8zm38.5-39.9v4.3h16.6v-4.3zm0 18.2v4.3h16.6v-4.3zm51.2 4.3h4.3v-9.1h8.4v9.1h4.3v-22.5h-4.3v9.1h-8.4v-9.1h-4.3zm48.7-22.5v4.3h16.6v-4.3zm0 18.2v4.3h16.6v-4.3zm-8.4 4.3h4.3v-22.5h-4.3zm-113-18.3c-1.6-2.9-4.6-4.9-8.2-4.9-5.1 0-9.3 4.2-9.3 9.3v5.5c0 5.1 4.2 9.3 9.3 9.3 5 0 9-3.9 9.3-8.8h-4.4c-.2 2.5-2.3 4.5-4.9 4.5-2.7 0-4.9-2.2-4.9-4.9v-5.5c0-2.7 2.2-4.9 4.9-4.9 2.6 0 4.7 2 4.9 4.5zm21.5 4.9v4.4h10.1l3.7-4.4zm99.9 0v4.4h10.1l3.7-4.4zm-79.3 13.4h4.4v-19.4l7.2 15.1h3.7l.6-1.2 6.6-13.9v19.4h4.4v-22.5c-2.6 0-5.1 0-7.7 0l-5.9 11.9-5.6-11.9c-2.6 0-5.1 0-7.7 0zm-68-22.5-9.2 19.4v-19.4h-4.4v22.5h7.7l6.5-13.7v13.7h4.4v-22.5c-1.7 0-3.3 0-5 0zm-17.7 4.2c-1.6-2.9-4.6-4.9-8.2-4.9-5.1 0-9.3 4.2-9.3 9.3v5.5c0 5.1 4.2 9.3 9.3 9.3 5 0 9-3.9 9.3-8.8h-4.4c-.2 2.5-2.3 4.5-4.9 4.5-2.7 0-4.9-2.2-4.9-4.9v-5.5c0-2.7 2.2-4.9 4.9-4.9 2.6 0 4.7 2 4.9 4.5zm44.5.2 3.7-4.4h14.6v4.4h-6.2v18.2h-4.4v-18.2zm-63.5 28.6h7.8v18.2h4.4v-18.2h6.1v-4.4h-14.7zm160.8-22.2h4.8c2 0 3.7 1.6 3.7 3.7 0 2-1.6 3.7-3.7 3.7h-4.8z"
                fill="#010005" />
        </g>
    </g>
</svg>