<svg width="600" height="600" viewBox="0 0 600 600" fill="none" xmlns="http://www.w3.org/2000/svg">
    <g clip-path="url(#clip0_2051_3623)">
        <g clip-path="url(#clip1_2051_3623)">
            <g opacity="0.1">
                <path fill-rule="evenodd" clip-rule="evenodd"
                    d="M557.02 458.402C558.192 458.671 559.415 459.078 560.314 459.378C560.366 459.395 560.416 459.412 560.465 459.428C562.447 460.087 564.591 460.868 566.722 461.644C568.19 462.178 569.651 462.71 571.049 463.199C573.836 464.127 576.537 465.189 579.137 466.21C579.845 466.489 580.546 466.764 581.24 467.033C581.243 467.034 581.246 467.036 581.249 467.037L591.039 470.794C592.759 471.461 594.427 472.127 596.067 472.781L596.079 472.786C597.73 473.445 599.352 474.093 601.017 474.739L601.069 474.759L601.121 474.78C602.952 475.533 604.61 476.134 606.395 476.783C607.797 477.292 609.279 477.83 610.985 478.492C616.156 480.477 620.657 483.037 623.357 486.87C626.184 490.7 626.886 496.06 626.886 501.304V567.612C626.886 575.025 625.645 581.595 623.261 587.435C620.789 593.489 616.632 598.829 611.566 603.682L611.526 603.72L611.485 603.758C606.254 608.576 599.559 613.467 591.36 618.795C583.389 624.097 573.354 630.519 561.257 637.875L561.052 638L560.838 638.106C560.386 638.332 559.895 638.552 559.499 638.729C559.45 638.751 559.402 638.773 559.356 638.793C558.897 638.999 558.469 639.195 558.014 639.421C555.915 640.468 553.867 640.775 552.069 640.775C550.375 640.775 548.46 640.503 546.489 639.597C545.216 639.13 543.999 638.479 543.499 638.212C543.406 638.162 543.338 638.126 543.299 638.106L543.038 637.976L542.791 637.82C530.948 630.317 520.955 623.921 512.64 618.453C504.328 613.242 497.652 608.161 492.464 603.383L492.423 603.345L492.383 603.306C487.323 598.459 483.187 593.142 480.717 587.317L480.702 587.282L480.688 587.247C478.304 581.407 477.062 574.837 477.062 567.425V501.304C477.062 495.924 477.81 490.691 480.532 486.769C483.269 482.824 488.065 480.252 493.07 478.452C494.18 478.044 495.235 477.661 496.26 477.288C498.615 476.433 500.806 475.636 503.121 474.739C504.856 474.065 506.537 473.442 508.173 472.836L508.191 472.829C509.844 472.217 511.451 471.621 513.098 470.982C514.763 470.336 516.385 469.688 518.036 469.029L518.047 469.025C519.687 468.37 521.356 467.704 523.076 467.037C524.835 466.354 526.584 465.724 528.259 465.121L528.289 465.11C529.994 464.496 531.623 463.908 533.242 463.28C535.001 462.597 536.75 461.967 538.425 461.364L538.455 461.353C540.16 460.739 541.789 460.151 543.408 459.523L543.539 459.472L543.672 459.428C543.721 459.412 543.772 459.395 543.823 459.378C544.836 459.04 546.26 458.566 547.559 458.307L547.649 458.289L547.74 458.274C547.785 458.266 547.831 458.259 547.877 458.251C548.923 458.077 550.457 457.821 552.069 457.821C552.141 457.821 552.221 457.82 552.308 457.82C553.299 457.814 555.177 457.803 557.02 458.402ZM552.912 469.28C552.671 469.275 552.409 469.275 552.069 469.275C551.51 469.275 550.872 469.366 549.727 469.555C549.231 469.662 548.524 469.887 547.418 470.254C545.704 470.917 544 471.53 542.368 472.118L542.338 472.129C540.633 472.744 539.004 473.331 537.385 473.959C535.626 474.642 533.877 475.272 532.202 475.875L532.172 475.886C530.467 476.5 528.838 477.088 527.22 477.716C525.555 478.362 523.933 479.009 522.282 479.668L522.27 479.673C520.63 480.327 518.962 480.993 517.242 481.66C515.507 482.334 513.825 482.957 512.19 483.563L512.172 483.57C510.519 484.182 508.912 484.778 507.264 485.417C504.83 486.362 502.456 487.224 500.047 488.1C499.041 488.465 498.028 488.833 497.003 489.21L496.983 489.218L496.963 489.225C492.562 490.806 490.59 492.365 489.943 493.298C489.276 494.26 488.517 496.541 488.517 501.304V567.425C488.517 573.519 489.529 578.584 491.278 582.881C492.948 586.801 495.947 590.851 500.266 594.995C504.851 599.213 510.946 603.875 518.776 608.78L518.829 608.814L518.882 608.849C527.071 614.234 536.942 620.553 548.694 628C548.834 628.072 548.966 628.141 549.079 628.201L549.125 628.225C549.338 628.337 549.511 628.428 549.684 628.514C550.025 628.684 550.276 628.792 550.487 628.862L550.873 628.99L551.237 629.172C551.337 629.222 551.431 629.253 551.54 629.276C551.655 629.3 551.822 629.321 552.069 629.321C552.316 629.321 552.482 629.3 552.597 629.276C552.706 629.253 552.8 629.222 552.9 629.172C553.575 628.835 554.182 628.56 554.664 628.344L554.776 628.294C555.112 628.143 555.344 628.039 555.534 627.949C567.418 620.719 577.254 614.422 585.042 609.241L585.068 609.224L585.094 609.207C593.05 604.038 599.134 599.554 603.683 595.371C608.008 591.22 610.992 587.181 612.656 583.105C614.414 578.8 615.432 573.724 615.432 567.612V501.304C615.432 496.446 614.639 494.335 614.134 493.663L614.068 493.576L614.006 493.486C613.312 492.486 611.445 490.937 606.87 489.182L606.851 489.174C605.684 488.722 604.329 488.226 602.921 487.711C600.855 486.955 598.678 486.158 596.821 485.397C595.119 484.736 593.467 484.077 591.844 483.429L591.833 483.425C590.185 482.767 588.566 482.121 586.905 481.476C586.902 481.475 586.898 481.474 586.895 481.473L577.126 477.723L577.106 477.716C576.307 477.406 575.536 477.103 574.784 476.808C572.219 475.8 569.876 474.88 567.392 474.054L567.352 474.041L567.312 474.027C565.537 473.407 563.976 472.837 562.499 472.297C560.572 471.593 558.786 470.941 556.85 470.297C555.611 469.885 554.854 469.643 554.336 469.54L553.822 469.437L553.5 469.309C553.481 469.307 553.457 469.305 553.429 469.302C553.311 469.292 553.148 469.284 552.912 469.28Z"
                    fill="white" />
                <path fill-rule="evenodd" clip-rule="evenodd"
                    d="M559.966 397.644C561.861 398.075 563.881 398.75 565.444 399.274L565.668 399.348C568.995 400.461 572.538 401.758 576.091 403.058C578.568 403.965 581.051 404.874 583.468 405.723C588.11 407.277 592.596 409.049 596.97 410.777C598.171 411.251 599.364 411.722 600.548 412.184C600.553 412.186 600.557 412.188 600.562 412.19L617.026 418.541L617.04 418.546C619.926 419.672 622.727 420.796 625.49 421.904L625.505 421.911C628.283 423.025 631.022 424.124 633.834 425.221L633.905 425.248L633.974 425.277C637.062 426.552 639.934 427.602 642.992 428.719C645.361 429.584 647.84 430.49 650.616 431.572C659.225 434.895 666.347 439.053 670.536 445.044C674.89 450.959 676.088 459.448 676.088 468.25V580.446C676.088 592.75 674.04 603.594 670.14 613.196C666.123 623.084 659.334 631.889 650.933 639.978L650.879 640.03L650.824 640.081C642.138 648.122 630.971 656.33 617.208 665.321C603.813 674.277 586.942 685.131 566.595 697.567L566.322 697.734L566.036 697.878C565.314 698.239 564.527 698.594 563.854 698.897C563.773 698.934 563.693 698.97 563.615 699.005C562.839 699.356 562.086 699.7 561.283 700.102C558.086 701.706 554.954 702.184 552.156 702.184C549.501 702.184 546.546 701.754 543.52 700.34C541.541 699.621 539.662 698.615 538.734 698.12C538.534 698.012 538.378 697.929 538.275 697.878L537.926 697.702L537.597 697.493C517.656 684.794 500.841 673.975 486.857 664.732C472.941 655.962 461.8 647.435 453.17 639.445L453.115 639.394L453.062 639.342C444.669 631.261 437.907 622.487 433.894 612.972L433.874 612.925L433.855 612.878C429.955 603.276 427.906 592.432 427.906 580.128V468.25C427.906 459.262 429.165 450.945 433.377 444.842C437.615 438.703 445.194 434.528 453.519 431.519C455.374 430.834 457.144 430.187 458.867 429.558C462.841 428.107 466.561 426.748 470.477 425.221C473.383 424.087 476.201 423.037 478.959 422.01L478.983 422.001C481.764 420.965 484.483 419.952 487.272 418.864C490.084 417.767 492.823 416.668 495.601 415.554L495.617 415.548C498.379 414.439 501.18 413.315 504.066 412.19C507.005 411.043 509.93 409.984 512.756 408.961L512.797 408.946C515.663 407.908 518.427 406.906 521.178 405.833C524.117 404.687 527.042 403.627 529.867 402.604L529.908 402.589C532.774 401.551 535.539 400.549 538.29 399.476L538.465 399.408L538.643 399.348C538.717 399.324 538.791 399.299 538.867 399.274C540.598 398.694 542.888 397.928 544.95 397.514L545.071 397.49L545.193 397.47C545.259 397.459 545.327 397.447 545.395 397.436C547.17 397.138 549.611 396.729 552.156 396.729C552.279 396.729 552.41 396.729 552.549 396.728C554.266 396.721 557.172 396.709 559.966 397.644ZM554.609 412.055C554.036 412.007 553.342 412.002 552.156 412.002C551.023 412.002 549.783 412.188 547.849 412.51C546.871 412.717 545.547 413.145 543.662 413.774C540.783 414.894 537.918 415.932 535.15 416.934L535.109 416.949C532.243 417.987 529.479 418.989 526.728 420.062C523.789 421.208 520.864 422.268 518.038 423.291L517.998 423.306C515.132 424.344 512.367 425.345 509.616 426.418C506.804 427.515 504.065 428.614 501.287 429.729L501.271 429.735C498.508 430.843 495.707 431.967 492.821 433.093C489.915 434.226 487.097 435.276 484.34 436.304L484.315 436.313C481.535 437.349 478.816 438.362 476.027 439.45C471.95 441.04 467.987 442.487 463.939 443.966C462.241 444.586 460.529 445.211 458.787 445.855L458.76 445.865L458.733 445.874C451.225 448.586 447.408 451.401 445.947 453.518C444.455 455.68 443.179 460.076 443.179 468.25V580.128C443.179 590.685 444.926 599.531 447.985 607.083C450.94 614.063 456.195 621.148 463.601 628.289C471.428 635.528 481.795 643.494 495.067 651.853L495.138 651.898L495.208 651.944C509.025 661.078 525.675 671.793 545.494 684.415C545.777 684.561 546.051 684.707 546.281 684.829C546.639 685.018 546.948 685.181 547.261 685.338C547.88 685.649 548.396 685.874 548.873 686.034L549.389 686.206L549.875 686.45C550.48 686.754 551.151 686.911 552.156 686.911C553.16 686.911 553.831 686.754 554.436 686.45C555.534 685.9 556.525 685.449 557.332 685.084L557.54 684.991C558.136 684.722 558.565 684.528 558.929 684.353C578.992 672.085 595.6 661.397 608.752 652.602L608.787 652.579L608.821 652.557C622.262 643.779 632.615 636.117 640.393 628.925C647.808 621.775 653.042 614.705 655.99 607.448C659.061 599.886 660.815 591.025 660.815 580.446V468.25C660.815 459.949 659.494 455.78 658.217 454.071L658.13 453.955L658.048 453.836C656.524 451.629 652.913 448.828 645.106 445.816L645.093 445.811L645.079 445.806C643.026 445.005 640.713 444.155 638.336 443.282C634.903 442.02 631.335 440.708 628.215 439.422C625.354 438.306 622.576 437.191 619.836 436.092L619.819 436.085C617.045 434.972 614.31 433.875 611.503 432.78C611.498 432.778 611.494 432.777 611.49 432.775L595.025 426.424L595.012 426.418C593.685 425.901 592.399 425.393 591.141 424.896C586.813 423.188 582.806 421.606 578.571 420.19L578.516 420.172L578.463 420.153C575.539 419.126 572.924 418.167 570.435 417.253C567.154 416.049 564.091 414.925 560.825 413.833C558.777 413.148 557.375 412.693 556.358 412.489L555.668 412.35L555.084 412.116C555.033 412.105 554.887 412.078 554.609 412.055Z"
                    fill="white" fill-opacity="0.5" />
                <path fill-rule="evenodd" clip-rule="evenodd"
                    d="M564.878 298.932C567.969 299.631 571.29 300.743 573.912 301.622L574.262 301.739C579.765 303.581 585.592 305.718 591.454 307.867C595.56 309.372 599.684 310.884 603.726 312.305C611.381 314.871 618.774 317.795 626.014 320.658C628.008 321.447 629.99 322.231 631.963 323.001C631.969 323.004 631.976 323.006 631.982 323.009L659.245 333.54L659.265 333.547C664.038 335.411 668.67 337.272 673.245 339.11L673.272 339.121C677.87 340.968 682.411 342.792 687.073 344.613L687.178 344.654L687.283 344.698C692.398 346.813 697.205 348.572 702.299 350.436C706.225 351.872 710.322 353.371 714.861 355.144C729.057 360.63 740.579 367.42 747.307 377.061C754.279 386.536 756.272 400.272 756.272 414.826V600.834C756.272 621.096 752.904 638.916 746.512 654.672C739.946 670.858 728.826 685.32 714.991 698.659L714.91 698.737L714.828 698.813C700.516 712.081 682.088 725.648 659.32 740.54C637.155 755.379 609.233 773.366 575.555 793.977L575.145 794.228L574.716 794.444C573.545 795.031 572.267 795.608 571.15 796.112C571.015 796.173 570.882 796.233 570.752 796.292C569.463 796.874 568.199 797.453 566.846 798.132C561.753 800.69 556.757 801.458 552.262 801.458C547.984 801.458 543.252 800.762 538.415 798.491C535.232 797.338 532.217 795.725 530.64 794.883C530.284 794.692 530.002 794.541 529.807 794.444L529.283 794.18L528.789 793.865C495.769 772.81 467.929 754.875 444.782 739.554C421.786 725.045 403.398 710.949 389.17 697.759L389.088 697.683L389.007 697.605C375.185 684.278 364.106 669.862 357.544 654.286L357.515 654.215L357.486 654.145C351.095 638.389 347.727 620.569 347.727 600.307V414.826C347.727 399.99 349.812 386.514 356.571 376.709C363.37 366.845 375.627 360.03 389.349 355.064C392.412 353.931 395.34 352.86 398.19 351.818C404.777 349.409 410.954 347.15 417.45 344.613C422.254 342.737 426.914 340.999 431.482 339.295L431.518 339.281C436.12 337.564 440.631 335.882 445.258 334.074C449.92 332.253 454.461 330.43 459.059 328.582L459.084 328.572C463.659 326.734 468.293 324.873 473.066 323.009C477.919 321.114 482.751 319.361 487.433 317.663L487.494 317.641C492.237 315.921 496.828 314.255 501.398 312.47C506.251 310.575 511.083 308.822 515.766 307.124L515.826 307.102C520.57 305.382 525.16 303.716 529.731 301.931L529.994 301.829L530.611 301.622C533.494 300.656 537.223 299.407 540.562 298.736L540.744 298.7L540.926 298.669C541.03 298.652 541.136 298.634 541.242 298.616C544.191 298.122 548.148 297.458 552.262 297.458C552.463 297.458 552.677 297.457 552.901 297.456C555.777 297.446 560.436 297.43 564.878 298.932ZM556.422 320.459C555.416 320.375 554.214 320.367 552.262 320.367C550.27 320.367 548.117 320.694 544.914 321.229C543.206 321.589 540.931 322.327 537.799 323.375C533.036 325.23 528.295 326.949 523.698 328.616L523.637 328.639C518.894 330.359 514.303 332.024 509.733 333.809C504.88 335.705 500.047 337.457 495.365 339.155L495.305 339.177C490.561 340.897 485.971 342.563 481.4 344.348C476.738 346.169 472.198 347.993 467.599 349.84L467.575 349.85C462.999 351.688 458.366 353.549 453.592 355.414C448.789 357.29 444.129 359.028 439.562 360.732L439.525 360.746C434.922 362.462 430.412 364.145 425.785 365.952C419.047 368.584 412.504 370.977 405.807 373.426C402.994 374.455 400.153 375.494 397.26 376.564L397.22 376.579L397.18 376.594C384.685 381.111 378.071 385.885 375.433 389.711C372.747 393.607 370.636 401.208 370.636 414.826V600.307C370.636 617.952 373.553 632.779 378.686 645.461C383.662 657.238 392.483 669.119 404.827 681.035C417.851 693.097 435.079 706.352 457.109 720.244L457.216 720.311L457.322 720.381C480.217 735.536 507.808 753.315 540.643 774.254C541.121 774.501 541.587 774.749 541.984 774.959C542.577 775.273 543.099 775.549 543.629 775.815C544.682 776.343 545.59 776.744 546.454 777.034L547.228 777.293L547.958 777.659C549.161 778.263 550.461 778.549 552.262 778.549C554.063 778.549 555.363 778.263 556.566 777.659C558.361 776.758 559.982 776.019 561.317 775.416L561.666 775.258C562.673 774.803 563.41 774.47 564.041 774.165C597.296 753.805 624.824 736.066 646.627 721.469L646.678 721.434L646.73 721.4C669.013 706.828 686.22 694.082 699.171 682.089C711.527 670.162 720.318 658.302 725.284 646.06C730.435 633.361 733.363 618.512 733.363 600.834V414.826C733.363 401.017 731.183 393.757 728.819 390.591L728.689 390.417L728.566 390.238C725.835 386.276 719.578 381.525 706.586 376.507L706.566 376.499L706.546 376.491C703.092 375.142 699.246 373.727 695.307 372.278C689.648 370.196 683.797 368.043 678.635 365.912C673.897 364.06 669.296 362.212 664.752 360.387L664.732 360.379C660.14 358.534 655.606 356.713 650.95 354.894C650.944 354.892 650.937 354.889 650.931 354.887L623.668 344.356L623.648 344.348C621.462 343.495 619.34 342.656 617.26 341.833C610.089 338.998 603.416 336.36 596.371 334.002L596.289 333.975L596.209 333.946C591.407 332.258 587.085 330.67 582.96 329.155C577.508 327.151 572.401 325.275 566.989 323.463C563.62 322.335 561.222 321.552 559.45 321.197L558.415 320.989L557.468 320.608C557.424 320.596 557.132 320.518 556.422 320.459Z"
                    fill="white" fill-opacity="0.2" />
                <path fill-rule="evenodd" clip-rule="evenodd"
                    d="M571.336 162.206C576.041 163.26 581.158 164.975 585.312 166.368L585.805 166.533C594.349 169.395 603.322 172.688 612.39 176.015C618.782 178.36 625.22 180.722 631.588 182.963C643.422 186.932 654.838 191.45 666.09 195.903C669.199 197.133 672.295 198.358 675.384 199.566C675.393 199.569 675.403 199.573 675.412 199.577L717.795 215.96L717.822 215.97C725.232 218.866 732.428 221.759 739.545 224.62L739.572 224.631C746.718 227.504 753.787 230.345 761.048 233.183L761.189 233.238L761.328 233.296C769.286 236.589 776.868 239.367 784.853 242.292C790.966 244.531 797.314 246.857 804.249 249.567C826.19 258.051 843.525 268.393 853.54 282.773C863.881 296.814 867 317.47 867 340.031V629.377C867 660.606 861.814 687.996 852.016 712.164C841.986 736.906 824.957 759.116 803.61 779.713L803.502 779.816L803.392 779.918C781.293 800.419 752.778 821.437 717.431 844.571C683.005 867.636 639.627 895.6 587.299 927.648L586.752 927.983L586.18 928.27C584.41 929.159 582.473 930.034 580.73 930.821L580.11 931.101C578.102 932.009 576.098 932.927 573.946 934.008C566.458 937.771 559.099 938.913 552.408 938.913C546.01 938.913 539.002 937.869 531.854 934.488C527.099 932.779 522.618 930.385 520.09 929.035C519.486 928.713 518.994 928.45 518.636 928.27L517.937 927.919L517.278 927.499C465.943 894.741 422.675 866.847 386.707 843.023C351.058 820.516 322.594 798.676 300.608 778.279L300.498 778.177L300.39 778.073C279.06 757.493 262.085 735.344 252.061 711.532L252.022 711.438L251.984 711.344C242.186 687.176 237 659.787 237 628.557V340.031C237 317.089 240.245 296.781 250.298 282.187C260.407 267.512 278.837 257.135 300.035 249.46C304.779 247.703 309.321 246.041 313.75 244.42C324.001 240.669 333.643 237.14 343.768 233.183C351.217 230.272 358.445 227.574 365.549 224.922L365.599 224.903C372.751 222.233 379.779 219.609 386.994 216.79C394.254 213.952 401.323 211.11 408.47 208.237L408.501 208.225C415.617 205.364 422.811 202.472 430.22 199.577C437.734 196.64 445.221 193.922 452.507 191.278L452.59 191.248C459.958 188.574 467.123 185.973 474.261 183.183C481.775 180.246 489.262 177.529 496.549 174.885L496.631 174.855C504 172.181 511.165 169.579 518.303 166.79L518.654 166.652L519.503 166.368C524.025 164.852 529.687 162.954 534.718 161.943L534.96 161.894L535.649 161.779C540.259 161.005 546.228 160.004 552.408 160.004C552.713 160.004 553.031 160.003 553.362 160.002C557.916 159.989 564.828 159.97 571.336 162.206ZM561.392 191.087C560.616 190.775 559.011 190.549 552.408 190.549C549.061 190.549 545.498 191.101 540.52 191.934C537.673 192.529 533.954 193.742 529.067 195.378C521.672 198.261 514.307 200.935 507.135 203.537L507.052 203.568C499.684 206.242 492.518 208.843 485.38 211.633C477.866 214.57 470.379 217.287 463.092 219.931L463.01 219.961C455.642 222.635 448.477 225.236 441.339 228.026C434.078 230.864 427.009 233.706 419.863 236.579L419.831 236.591C412.715 239.452 405.522 242.344 398.113 245.239C390.664 248.151 383.435 250.849 376.33 253.501L376.281 253.52C369.13 256.189 362.101 258.813 354.887 261.633C344.44 265.716 334.31 269.423 323.912 273.229C319.533 274.831 315.107 276.451 310.589 278.124L310.535 278.144L310.482 278.163C290.923 285.24 280.016 292.891 275.453 299.515C270.825 306.233 267.545 318.711 267.545 340.031V628.557C267.545 656.3 272.131 679.7 280.253 699.773C288.164 718.519 302.131 737.289 321.492 755.988C341.874 774.881 368.789 795.597 403.151 817.281L403.293 817.371L403.434 817.464C439.065 841.066 481.999 868.75 533.087 901.352C533.772 901.705 534.451 902.065 535.057 902.387L535.25 902.489C536.171 902.977 537.004 903.418 537.856 903.846C539.55 904.697 541.08 905.377 542.579 905.88L543.612 906.226L544.585 906.715C546.884 907.87 549.312 908.367 552.408 908.367C555.504 908.367 557.932 907.87 560.231 906.715C562.972 905.337 565.453 904.206 567.523 903.269L568.08 903.018C569.683 902.293 570.887 901.749 571.931 901.241C623.7 869.526 666.555 841.891 700.499 819.148L700.568 819.102L700.637 819.057C735.338 796.348 762.225 776.426 782.51 757.625C801.885 738.912 815.81 720.172 823.708 700.689C831.854 680.594 836.454 657.164 836.454 629.377V340.031C836.454 318.457 833.084 306.432 828.885 300.805L828.711 300.573L828.547 300.335C823.86 293.531 813.545 285.908 793.208 278.047L793.181 278.037L793.155 278.026C787.668 275.882 781.654 273.668 775.524 271.412C766.784 268.196 757.809 264.893 749.79 261.579C742.429 258.701 735.281 255.827 728.21 252.985L728.179 252.972C721.04 250.102 713.978 247.264 706.726 244.429C706.718 244.426 706.71 244.423 706.703 244.42L664.319 228.037L664.292 228.026C660.919 226.708 657.635 225.409 654.41 224.133C643.251 219.718 632.796 215.582 621.774 211.89L621.666 211.853L621.558 211.815C614.176 209.219 607.473 206.755 601.059 204.396C592.537 201.263 584.524 198.317 576.102 195.496C570.914 193.758 567.02 192.48 564.079 191.889L562.698 191.612L561.392 191.087Z"
                    fill="white" fill-opacity="0.1" />
            </g>
        </g>
    </g>
    <defs>
        <clipPath id="clip0_2051_3623">
            <rect width="600" height="600" fill="white" />
        </clipPath>
        <clipPath id="clip1_2051_3623">
            <rect width="1375" height="756" fill="white" transform="translate(-773 -156)" />
        </clipPath>
    </defs>
</svg>