<svg width="600" height="600" viewBox="0 0 600 600" fill="none" xmlns="http://www.w3.org/2000/svg">
    <g clip-path="url(#clip0_2051_3623)">
        <g clip-path="url(#clip1_2051_3623)">
            <g opacity="0.1">
                <path fill-rule="evenodd" clip-rule="evenodd"
                    d="M509.766 506.347C504.934 506.347 500.502 507.513 496.518 509.939C492.393 512.45 489.184 515.667 486.678 519.806L486.66 519.836L486.64 519.867C484.263 523.652 483.093 528.069 483.093 532.935C483.093 537.787 484.257 542.236 486.678 546.235C489.184 550.373 492.393 553.591 496.518 556.102C500.513 558.534 504.778 559.693 509.766 559.693C514.598 559.693 519.029 558.528 523.014 556.102C527.138 553.591 530.348 550.373 532.853 546.235C535.281 542.226 536.439 537.944 536.439 532.935C536.439 528.11 535.287 523.825 532.853 519.806C530.348 515.667 527.138 512.45 523.014 509.939C519.019 507.507 514.754 506.347 509.766 506.347ZM491.911 502.372C497.393 499.035 503.442 497.489 509.766 497.489C516.272 497.489 522.149 499.041 527.62 502.372C532.962 505.624 537.19 509.864 540.431 515.217C543.744 520.69 545.297 526.575 545.297 532.935C545.297 539.453 543.751 545.34 540.431 550.823C537.19 556.177 532.962 560.417 527.62 563.668C522.139 567.006 516.09 568.552 509.766 568.552C503.26 568.552 497.383 566.999 491.911 563.668C486.57 560.417 482.342 556.177 479.101 550.823C475.775 545.33 474.234 539.27 474.234 532.935C474.234 526.628 475.762 520.547 479.119 515.187C482.358 509.848 486.58 505.618 491.911 502.372Z"
                    fill="white" />
                <path fill-rule="evenodd" clip-rule="evenodd"
                    d="M493.717 443.007C495.888 441.198 498.509 440.537 501.091 440.537H517.725C520.169 440.537 522.811 441.084 525.041 442.889C527.261 444.686 528.36 447.156 528.894 449.558L528.897 449.572L532.894 467.796C533.9 468.114 534.908 468.463 535.928 468.865C536.954 469.181 537.919 469.539 538.82 469.913L554.464 460.075C556.639 458.642 559.232 457.767 562.071 458.122C564.888 458.474 567.18 459.943 568.954 461.717L580.728 473.491C582.473 475.236 583.866 477.515 584.169 480.294C584.472 483.065 583.613 485.625 582.183 487.795L572.22 503.638C572.329 503.905 572.443 504.181 572.562 504.471C572.788 505.02 573.035 505.619 573.308 506.3C573.722 507.336 574.083 508.364 574.408 509.359L592.544 513.371L592.578 513.379C594.897 513.925 597.288 515.027 599.065 517.16C600.874 519.33 601.535 521.951 601.535 524.534V541.167C601.535 543.715 600.844 546.286 599.104 548.424C597.378 550.545 595.02 551.747 592.578 552.322L592.544 552.33L574.408 556.342C574.083 557.337 573.722 558.365 573.308 559.401C572.917 560.379 572.526 561.306 572.142 562.196L582.171 577.887C583.616 580.073 584.469 582.635 584.171 585.42C583.875 588.174 582.528 590.453 580.876 592.243L580.789 592.337L568.954 603.984C568.949 603.989 568.943 603.995 568.938 604C567.166 605.767 564.879 607.228 562.071 607.579C559.232 607.933 556.639 607.059 554.464 605.626L538.687 595.704C538.662 595.714 538.637 595.725 538.613 595.735C537.906 596.031 537.117 596.362 536.145 596.75C535.049 597.189 533.967 597.566 532.887 597.907L528.917 615.853C528.446 618.383 527.257 620.817 525.002 622.547C522.78 624.253 520.15 624.791 517.725 624.791H501.091C498.533 624.791 495.885 624.142 493.695 622.359C491.52 620.59 490.364 618.163 489.9 615.666L485.929 597.72C484.85 597.379 483.767 597.002 482.671 596.563C481.977 596.286 481.289 596.04 480.509 595.76C480.365 595.709 480.219 595.657 480.069 595.603C479.98 595.571 479.89 595.539 479.798 595.505L464.177 605.431C462 606.869 459.402 607.747 456.559 607.392C453.751 607.041 451.465 605.581 449.692 603.814C449.687 603.808 449.681 603.803 449.675 603.797L437.84 592.15L437.754 592.056C436.101 590.266 434.754 587.987 434.459 585.233C434.161 582.456 435.009 579.9 436.446 577.719L446.409 561.876C446.301 561.609 446.187 561.333 446.067 561.043C445.841 560.494 445.594 559.895 445.322 559.214C444.906 558.176 444.545 557.146 444.22 556.149L426.268 552.142L426.238 552.135C423.92 551.589 421.529 550.487 419.751 548.354C417.943 546.184 417.281 543.563 417.281 540.98V524.347C417.281 521.799 417.972 519.228 419.712 517.09C421.439 514.969 423.796 513.767 426.238 513.193L426.268 513.186L444.397 509.139C444.398 509.137 444.398 509.136 444.399 509.135L444.414 509.09C444.732 508.184 445.091 507.156 445.508 506.113C445.749 505.512 445.956 504.943 446.187 504.306C446.281 504.049 446.378 503.78 446.484 503.493C446.501 503.447 446.518 503.401 446.535 503.354L436.633 487.608C435.203 485.438 434.345 482.878 434.647 480.107C434.95 477.328 436.344 475.049 438.088 473.305L449.862 461.53C451.637 459.756 453.929 458.288 456.746 457.935C459.589 457.58 462.187 458.458 464.364 459.896L479.985 469.822C480.077 469.789 480.167 469.756 480.256 469.724C480.406 469.67 480.553 469.618 480.696 469.566C481.476 469.287 482.164 469.041 482.858 468.764L482.956 468.725C483.881 468.355 484.872 467.958 485.901 467.575L489.93 449.523L489.937 449.494C490.483 447.175 491.584 444.784 493.717 443.007ZM500.291 451.903L494.948 475.839L491.966 476.734C490.363 477.215 488.717 477.869 486.806 478.634C485.913 478.991 485.014 479.312 484.239 479.589C484.104 479.637 483.974 479.684 483.847 479.729C482.941 480.054 482.216 480.325 481.57 480.611L478.966 481.769L458.57 468.809L458.522 468.776C458.289 468.621 458.129 468.547 458.039 468.512C457.923 468.575 457.703 468.723 457.379 469.047L445.605 480.821C445.4 481.025 445.293 481.174 445.241 481.259C445.276 481.353 445.353 481.526 445.521 481.777L445.56 481.836L458.591 502.556L457.253 505.231C457.02 505.697 456.778 506.302 456.459 507.168C456.388 507.36 456.311 507.571 456.23 507.795C455.981 508.481 455.687 509.289 455.378 510.061C455.055 510.87 454.765 511.695 454.432 512.646L454.417 512.691C454.099 513.597 453.74 514.625 453.322 515.668L452.281 518.271L428.649 523.546C428.248 523.642 428.051 523.746 427.971 523.798C427.951 523.864 427.911 524.034 427.911 524.347V540.98C427.911 541.265 427.937 541.447 427.958 541.549C428.069 541.605 428.281 541.693 428.648 541.781L452.584 547.124L453.478 550.106C454.049 552.008 454.546 553.652 455.191 555.266C455.363 555.694 455.552 556.153 455.748 556.63C456.292 557.949 456.895 559.414 457.355 560.792L458.149 563.176L445.373 583.491L445.334 583.55C445.131 583.855 445.061 584.043 445.039 584.115C445.077 584.208 445.189 584.424 445.493 584.767L457.177 596.265L457.192 596.28C457.516 596.605 457.737 596.752 457.852 596.815C457.942 596.781 458.102 596.706 458.335 596.551L458.383 596.518L478.78 583.558L481.384 584.716C482.029 585.003 482.754 585.273 483.661 585.598C483.787 585.643 483.918 585.69 484.052 585.738C484.828 586.015 485.726 586.336 486.619 586.694C488.207 587.329 489.849 587.827 491.837 588.37L494.935 589.214L500.325 613.58L500.345 613.693C500.379 613.888 500.419 614.019 500.449 614.101C500.564 614.128 500.77 614.16 501.091 614.16H517.725C518.055 614.16 518.28 614.134 518.422 614.108C518.438 614.048 518.455 613.972 518.471 613.879L518.491 613.767L523.882 589.401L526.979 588.556C528.968 588.014 530.609 587.516 532.198 586.88C532.8 586.64 533.485 586.354 534.187 586.062C535.29 585.603 536.432 585.128 537.351 584.783L539.818 583.858L560.236 596.698L560.295 596.738C560.527 596.893 560.688 596.967 560.777 597.002C560.893 596.939 561.113 596.791 561.438 596.467L561.453 596.452L573.136 584.954C573.441 584.611 573.552 584.395 573.59 584.302C573.569 584.23 573.499 584.042 573.295 583.737L573.267 583.694L560.112 563.114L561.273 560.501C562.025 558.81 562.733 557.216 563.438 555.453C564.084 553.839 564.581 552.195 565.151 550.293L566.048 547.305L590.172 541.967C590.57 541.871 590.766 541.768 590.846 541.716C590.866 541.65 590.905 541.48 590.905 541.167V524.534C590.905 524.249 590.88 524.067 590.859 523.965C590.748 523.909 590.537 523.821 590.173 523.734L566.048 518.396L565.151 515.408C564.581 513.506 564.084 511.862 563.438 510.248C563.267 509.82 563.078 509.361 562.881 508.884C562.338 507.565 561.734 506.1 561.275 504.722L560.48 502.338L573.256 482.023L573.295 481.964C573.463 481.712 573.541 481.539 573.575 481.446C573.523 481.361 573.416 481.212 573.212 481.008L561.438 469.234C561.113 468.909 560.893 468.762 560.777 468.699C560.688 468.733 560.527 468.808 560.295 468.963L560.236 469.003L539.516 482.033L536.841 480.695C535.498 480.024 534.115 479.418 532.644 478.976L532.417 478.908L532.198 478.82C530.609 478.185 528.968 477.687 526.979 477.144L523.875 476.298L518.517 451.864C518.517 451.862 518.516 451.861 518.516 451.859C518.446 451.544 518.375 451.335 518.321 451.206C518.196 451.186 518.003 451.167 517.725 451.167H501.091C500.807 451.167 500.625 451.192 500.523 451.213C500.466 451.324 500.378 451.537 500.291 451.903Z"
                    fill="white" />
                <path fill-rule="evenodd" clip-rule="evenodd"
                    d="M485.026 387.507C488.213 384.851 492.1 383.843 496.047 383.843H523.204C526.966 383.843 530.881 384.685 534.147 387.329C537.401 389.964 539.062 393.62 539.886 397.326L539.89 397.345L546.613 428.003C548.54 428.592 550.458 429.24 552.397 430.005C554.327 430.598 556.128 431.286 557.789 432.002L584.046 415.49C587.365 413.299 591.229 412.02 595.407 412.542C599.555 413.061 602.988 415.228 605.718 417.958L624.941 437.181C627.603 439.843 629.657 443.245 630.103 447.336C630.548 451.416 629.29 455.236 627.104 458.548L610.396 485.117C610.673 485.81 610.968 486.528 611.286 487.297C611.652 488.186 612.047 489.143 612.474 490.212C613.255 492.164 613.918 494.104 614.512 495.971L645.003 502.717L645.049 502.728C648.615 503.567 652.167 505.232 654.782 508.37C657.438 511.557 658.446 515.444 658.446 519.39V546.547C658.446 550.42 657.399 554.239 654.834 557.39C652.287 560.519 648.78 562.332 645.049 563.21L645.003 563.221L614.512 569.966C613.918 571.834 613.255 573.773 612.474 575.726C611.728 577.591 610.983 579.343 610.251 581.023L627.089 607.366C629.294 610.699 630.544 614.521 630.104 618.627C629.669 622.69 627.677 626.107 625.138 628.858L625.022 628.982L605.718 647.98C605.711 647.987 605.704 647.994 605.697 648.001C602.97 650.721 599.544 652.878 595.407 653.395C591.229 653.918 587.365 652.638 584.046 650.448L557.575 633.801C557.274 633.926 556.967 634.055 556.651 634.187C555.492 634.672 554.214 635.207 552.687 635.818C550.646 636.634 548.63 637.319 546.604 637.937L539.917 668.166C539.206 672.013 537.426 675.61 534.117 678.151C530.852 680.656 526.94 681.484 523.204 681.484H496.047C492.133 681.484 488.196 680.494 484.975 677.872C481.772 675.266 480.035 671.663 479.334 667.861L472.646 637.632C470.62 637.014 468.604 636.329 466.563 635.513C465.401 635.048 464.246 634.635 462.973 634.179C462.74 634.096 462.504 634.011 462.262 633.925C461.882 633.788 461.49 633.647 461.091 633.5L434.914 650.133C431.592 652.329 427.723 653.613 423.538 653.09C419.401 652.573 415.975 650.416 413.249 647.697C413.242 647.69 413.234 647.682 413.227 647.675L393.923 628.677L393.808 628.552C391.269 625.802 389.276 622.385 388.841 618.322C388.402 614.226 389.645 610.412 391.841 607.085L408.55 580.515C408.273 579.823 407.977 579.105 407.659 578.335C407.293 577.447 406.899 576.489 406.471 575.421C405.689 573.465 405.025 571.523 404.43 569.653L374.241 562.914L374.202 562.905C370.635 562.065 367.083 560.401 364.469 557.263C361.812 554.075 360.805 550.189 360.805 546.242V519.085C360.805 515.212 361.852 511.393 364.417 508.242C366.963 505.113 370.47 503.301 374.202 502.423L374.241 502.414L404.694 495.616C404.791 495.341 404.889 495.061 404.989 494.775L405.01 494.714C405.531 493.227 406.108 491.578 406.776 489.907C407.179 488.901 407.529 487.938 407.91 486.887C408.062 486.471 408.218 486.041 408.385 485.588C408.499 485.278 408.618 484.958 408.742 484.632L392.146 458.242C389.96 454.931 388.702 451.111 389.147 447.03C389.594 442.94 391.647 439.537 394.309 436.876L413.532 417.653C416.262 414.923 419.695 412.756 423.843 412.237C428.027 411.714 431.897 412.998 435.219 415.194L461.396 431.828C461.795 431.681 462.187 431.539 462.567 431.403C462.809 431.316 463.046 431.231 463.279 431.148C464.552 430.693 465.706 430.28 466.868 429.815L467.003 429.761C468.772 429.053 470.66 428.298 472.609 427.59L479.375 397.28L479.384 397.24C480.224 393.673 481.888 390.122 485.026 387.507ZM493.189 400.451L484.666 438.633L480.691 439.826C477.994 440.635 475.24 441.732 472.132 442.974C470.705 443.545 469.269 444.058 468.002 444.511C467.781 444.59 467.566 444.667 467.356 444.743C465.875 445.274 464.642 445.732 463.53 446.227L460.058 447.77L427.493 427.078L427.428 427.034C426.209 426.222 425.677 426.291 425.604 426.301L425.601 426.301C425.477 426.317 424.791 426.438 423.554 427.675L404.331 446.898C403.331 447.898 403.249 448.462 403.237 448.567C403.229 448.647 403.166 449.221 403.996 450.466L404.048 450.545L424.834 483.598L423.051 487.164C422.629 488.009 422.207 489.068 421.684 490.488C421.564 490.815 421.435 491.168 421.3 491.539C420.895 492.654 420.43 493.936 419.936 495.171C419.393 496.529 418.909 497.909 418.367 499.457L418.345 499.518C417.825 501.005 417.248 502.654 416.579 504.325L415.191 507.795L377.414 516.228C375.985 516.569 375.531 517.039 375.409 517.189C375.304 517.318 374.978 517.771 374.978 519.085V546.242C374.978 547.755 375.328 548.156 375.356 548.188L375.357 548.189C375.412 548.255 375.822 548.72 377.414 549.1L415.595 557.622L416.787 561.598C417.716 564.693 418.546 567.445 419.631 570.157C419.924 570.889 420.241 571.659 420.567 572.452C421.449 574.591 422.399 576.898 423.13 579.091L424.19 582.269L403.743 614.783L403.691 614.861C402.871 616.091 402.918 616.671 402.934 616.812C402.955 617.014 403.091 617.68 404.122 618.829L423.229 637.633L423.249 637.653C424.486 638.89 425.172 639.011 425.296 639.026L425.299 639.027C425.372 639.036 425.904 639.105 427.123 638.293L427.187 638.25L459.753 617.557L463.225 619.101C464.337 619.595 465.57 620.053 467.051 620.585C467.261 620.66 467.477 620.737 467.698 620.816C468.965 621.269 470.4 621.782 471.827 622.353C474.505 623.424 477.252 624.256 480.519 625.147L484.649 626.274L493.235 665.082L493.261 665.233C493.491 666.534 493.877 666.844 493.92 666.878L493.922 666.88C493.981 666.928 494.469 667.311 496.047 667.311H523.204C524.959 667.311 525.472 666.919 525.487 666.907C525.5 666.897 525.547 666.865 525.625 666.724C525.714 666.562 525.871 666.204 525.989 665.538L526.015 665.387L534.601 626.579L538.731 625.452C541.998 624.561 544.746 623.729 547.423 622.658C548.457 622.244 549.598 621.77 550.75 621.29C552.52 620.553 554.319 619.804 555.805 619.246L559.094 618.013L591.744 638.546L591.822 638.598C593.041 639.411 593.573 639.341 593.646 639.332L593.649 639.332C593.773 639.316 594.459 639.195 595.696 637.958L595.716 637.938L614.823 619.134C615.854 617.985 615.99 617.319 616.012 617.117C616.027 616.976 616.074 616.396 615.254 615.166L615.217 615.109L594.209 582.242L595.757 578.759C596.983 576.001 598.151 573.371 599.314 570.462C600.399 567.75 601.229 564.998 602.158 561.903L603.353 557.919L641.841 549.404C643.266 549.062 643.719 548.593 643.841 548.443C643.946 548.314 644.272 547.861 644.272 546.547V519.39C644.272 517.878 643.922 517.477 643.895 517.445L643.893 517.443C643.839 517.378 643.43 516.914 641.843 516.534L603.353 508.019L602.158 504.034C601.229 500.939 600.399 498.188 599.314 495.476C599.022 494.744 598.704 493.974 598.378 493.181C597.496 491.042 596.546 488.735 595.815 486.541L594.756 483.363L615.202 450.85L615.254 450.772C616.085 449.526 616.022 448.952 616.013 448.873C616.002 448.767 615.919 448.203 614.919 447.203L595.696 427.98C594.459 426.743 593.773 426.622 593.649 426.606L593.646 426.606C593.573 426.596 593.041 426.527 591.822 427.34L591.744 427.392L558.691 448.178L555.124 446.395C552.887 445.276 550.539 444.244 548.019 443.488L547.716 443.397L547.423 443.28C544.746 442.209 541.998 441.376 538.731 440.485L534.593 439.357L526.05 400.401C526.049 400.398 526.049 400.395 526.048 400.393C525.852 399.512 525.632 398.983 525.471 398.688C525.324 398.415 525.231 398.347 525.229 398.345C525.228 398.344 525.154 398.277 524.888 398.2C524.595 398.114 524.066 398.017 523.204 398.017H496.047C494.534 398.017 494.133 398.367 494.101 398.394L494.1 398.396C494.034 398.45 493.569 398.86 493.189 400.451Z"
                    fill="white" fill-opacity="0.5" />
                <path fill-rule="evenodd" clip-rule="evenodd"
                    d="M470.228 297.465C475.21 293.314 481.307 291.716 487.57 291.716H531.7C537.687 291.716 543.826 293.055 548.925 297.183C554.007 301.297 556.632 307.03 557.944 312.932L557.947 312.947L557.95 312.961L568.986 363.286C572.278 364.281 575.544 365.376 578.846 366.679C582.125 367.686 585.175 368.864 587.978 370.087L631.049 343.001C636.312 339.525 642.386 337.528 648.921 338.345C655.409 339.156 660.817 342.551 665.16 346.893L696.397 378.131C700.619 382.352 703.833 387.704 704.531 394.101C705.227 400.485 703.264 406.491 699.794 411.744L672.397 455.31C672.901 456.581 673.443 457.896 674.027 459.313C674.62 460.751 675.257 462.296 675.942 464.009C677.269 467.326 678.386 470.622 679.386 473.793L729.426 484.864L729.495 484.88C735.17 486.216 740.745 488.846 744.834 493.753C748.985 498.734 750.582 504.831 750.582 511.095V555.224C750.582 561.358 748.926 567.354 744.912 572.285C740.925 577.184 735.417 580.045 729.495 581.439L729.426 581.455L679.386 592.526C678.386 595.697 677.269 598.993 675.942 602.31C674.67 605.491 673.4 608.47 672.151 611.327L699.771 654.539C703.27 659.823 705.221 665.834 704.533 672.259C703.851 678.621 700.729 684.004 696.692 688.378L696.519 688.565L665.16 719.426C665.149 719.437 665.138 719.448 665.128 719.458C660.791 723.785 655.393 727.165 648.921 727.974C642.386 728.791 636.313 726.795 631.05 723.319L587.636 696.018C587.004 696.28 586.358 696.551 585.687 696.831C583.802 697.62 581.731 698.487 579.282 699.467C575.827 700.848 572.414 701.997 568.973 703.037L557.99 752.679C556.868 758.772 554.065 764.408 548.894 768.377C543.792 772.292 537.648 773.611 531.7 773.611H487.57C481.355 773.611 475.173 772.04 470.137 767.94C465.127 763.863 462.389 758.21 461.279 752.183L450.297 702.541C446.856 701.501 443.443 700.353 439.988 698.971C438.084 698.209 436.191 697.532 434.123 696.792C433.744 696.657 433.36 696.519 432.969 696.379C432.221 696.11 431.449 695.831 430.661 695.539L387.747 722.808C382.479 726.293 376.398 728.296 369.853 727.478C363.381 726.669 357.984 723.29 353.647 718.963C353.636 718.952 353.625 718.941 353.614 718.93L322.255 688.069L322.082 687.882C318.045 683.508 314.923 678.125 314.241 671.763C313.554 665.352 315.496 659.354 318.98 654.078L346.377 610.513C345.873 609.242 345.331 607.928 344.747 606.511C344.154 605.072 343.517 603.528 342.832 601.814C341.503 598.492 340.385 595.193 339.384 592.017L289.834 580.957L289.775 580.943C284.1 579.608 278.525 576.977 274.436 572.07C270.285 567.089 268.688 560.992 268.688 554.729V510.599C268.688 504.465 270.344 498.47 274.358 493.538C278.345 488.64 283.853 485.778 289.775 484.385L289.834 484.371L339.794 473.219C340.005 472.622 340.218 472.012 340.437 471.387L340.47 471.294C341.317 468.874 342.249 466.209 343.328 463.513C343.988 461.864 344.563 460.28 345.185 458.568C345.43 457.893 345.683 457.199 345.95 456.472C346.184 455.838 346.428 455.183 346.684 454.515L319.476 411.249C316.006 405.996 314.043 399.99 314.739 393.606C315.437 387.208 318.651 381.856 322.872 377.635L354.11 346.397C358.453 342.055 363.86 338.661 370.349 337.849C376.893 337.031 382.975 339.034 388.243 342.519L431.157 369.788C431.944 369.496 432.717 369.217 433.465 368.949C433.856 368.808 434.24 368.671 434.618 368.536C436.686 367.796 438.579 367.119 440.484 366.357L440.689 366.275C443.709 365.067 446.928 363.779 450.243 362.586L461.342 312.863L461.356 312.803C462.691 307.129 465.322 301.554 470.228 297.465ZM482.063 317.621L468.326 379.165L462.362 380.954C457.936 382.282 453.422 384.079 448.38 386.096C446.077 387.017 443.762 387.845 441.703 388.581C441.343 388.71 440.991 388.835 440.648 388.958C438.241 389.823 436.21 390.576 434.37 391.394L429.162 393.709L376.653 360.344L376.556 360.279C374.411 358.849 373.34 358.901 372.986 358.945C372.533 359.002 371.247 359.327 369.143 361.43L337.906 392.668C336.177 394.397 335.92 395.491 335.874 395.911C335.832 396.293 335.814 397.43 337.25 399.584L337.329 399.702L370.834 452.982L368.16 458.331C367.45 459.751 366.751 461.51 365.899 463.822C365.701 464.36 365.491 464.938 365.271 465.545C364.613 467.355 363.864 469.417 363.067 471.409C362.176 473.636 361.383 475.897 360.504 478.41L360.472 478.502C359.624 480.923 358.692 483.587 357.613 486.284L355.531 491.489L294.593 505.092C292.123 505.681 291.196 506.529 290.847 506.959C290.522 507.357 289.948 508.304 289.948 510.599V554.729C289.948 557.39 290.581 558.235 290.769 558.46C291.017 558.758 291.878 559.589 294.59 560.235L356.136 573.973L357.925 579.937C359.432 584.961 360.792 589.47 362.571 593.919C363.055 595.127 363.575 596.39 364.109 597.685C365.537 601.153 367.063 604.856 368.241 608.389L369.829 613.155L336.833 665.625L336.755 665.743C335.334 667.874 335.329 669.02 335.38 669.499C335.441 670.063 335.773 671.319 337.552 673.295L368.618 703.867L368.648 703.897C370.751 706.001 372.037 706.325 372.49 706.382C372.844 706.426 373.915 706.478 376.06 705.048L376.157 704.984L428.666 671.618L433.874 673.933C435.715 674.751 437.745 675.505 440.152 676.369C440.495 676.492 440.847 676.618 441.207 676.747C443.267 677.483 445.581 678.31 447.884 679.231C452.282 680.99 456.785 682.353 462.104 683.804L468.299 685.494L482.132 748.017L482.171 748.242C482.579 750.552 483.306 751.247 483.558 751.452C483.852 751.691 484.86 752.351 487.57 752.351H531.7C534.677 752.351 535.722 751.687 535.951 751.511L535.957 751.507C536.066 751.424 536.711 750.935 537.098 748.738L537.138 748.512L550.971 685.989L557.166 684.3C562.485 682.849 566.988 681.486 571.386 679.727C573.096 679.043 574.961 678.266 576.837 677.485C579.696 676.294 582.582 675.092 584.989 674.189L589.921 672.34L642.596 705.466L642.714 705.544C644.859 706.974 645.93 706.922 646.284 706.878C646.737 706.821 648.023 706.497 650.126 704.393L650.156 704.363L681.222 673.79C683.001 671.815 683.333 670.558 683.394 669.994C683.445 669.516 683.44 668.37 682.019 666.239L681.963 666.154L648.086 613.153L650.408 607.929C652.4 603.448 654.304 599.16 656.202 594.415C657.982 589.966 659.342 585.457 660.849 580.433L662.642 574.456L724.686 560.729C727.149 560.14 728.074 559.293 728.423 558.865C728.747 558.466 729.322 557.52 729.322 555.224V511.095C729.322 508.433 728.689 507.588 728.501 507.363C728.253 507.066 727.394 506.236 724.688 505.59L662.642 491.863L660.849 485.886C659.342 480.863 657.982 476.353 656.202 471.905C655.719 470.696 655.199 469.433 654.665 468.138C653.237 464.67 651.711 460.968 650.533 457.435L648.945 452.668L681.941 400.198L682.019 400.08C683.456 397.926 683.437 396.789 683.396 396.407C683.35 395.987 683.093 394.893 681.364 393.164L650.126 361.926C648.023 359.822 646.737 359.498 646.284 359.441C645.93 359.397 644.859 359.345 642.714 360.775L642.596 360.854L589.317 394.359L583.967 391.684C580.305 389.853 576.441 388.153 572.279 386.904L571.825 386.768L571.386 386.592C566.988 384.833 562.485 383.47 557.166 382.019L550.958 380.326L537.19 317.544C537.188 317.538 537.187 317.532 537.186 317.526C536.515 314.519 535.672 313.808 535.548 313.707C535.441 313.621 534.638 312.976 531.7 312.976H487.57C484.908 312.976 484.063 313.61 483.839 313.797C483.541 314.046 482.71 314.907 482.063 317.621Z"
                    fill="white" fill-opacity="0.2" />
                <path fill-rule="evenodd" clip-rule="evenodd"
                    d="M450.403 172.495C457.579 166.515 466.42 164.156 475.687 164.156H543.579C552.477 164.156 561.374 166.144 568.707 172.081C576.017 177.998 579.873 186.303 581.825 195.088L581.829 195.107L599.087 273.804C604.554 275.428 609.945 277.21 615.391 279.363C620.786 281.014 625.779 282.976 630.341 285.008L697.606 242.707C705.385 237.564 714.221 234.697 723.648 235.876C733.012 237.046 740.909 241.953 747.36 248.404L795.418 296.462C801.656 302.701 806.298 310.498 807.305 319.727C808.31 328.941 805.486 337.688 800.352 345.453L757.604 413.43C758.509 415.75 759.492 418.135 760.559 420.722C761.466 422.924 762.434 425.272 763.465 427.85C765.649 433.309 767.459 438.733 769.086 443.95L847.288 461.252L847.38 461.273C855.81 463.257 863.905 467.121 869.802 474.197C875.782 481.373 878.141 490.214 878.141 499.48V567.372C878.141 576.416 875.703 585.121 869.906 592.244C864.145 599.321 856.14 603.518 847.38 605.579L847.288 605.601L769.086 622.902C767.459 628.12 765.649 633.544 763.465 639.002C761.36 644.266 759.258 649.169 757.192 653.876L800.321 721.353C805.495 729.16 808.302 737.913 807.307 747.194C806.322 756.388 801.804 764.252 795.81 770.745L795.58 770.995L747.36 818.449C747.345 818.463 747.331 818.477 747.317 818.491C740.874 824.921 732.991 829.809 723.648 830.977C714.22 832.155 705.384 829.288 697.606 824.146L629.842 781.532C628.517 782.078 627.159 782.646 625.736 783.241C622.831 784.457 619.66 785.784 615.972 787.259C610.323 789.518 604.738 791.371 599.07 793.054L581.888 870.716C580.24 879.702 576.149 887.856 568.704 893.57C561.355 899.209 552.425 901.171 543.579 901.171H475.687C466.485 901.171 457.505 898.847 450.243 892.937C443.014 887.052 439.008 878.851 437.377 869.953L420.195 792.291C414.528 790.608 408.943 788.756 403.294 786.496C400.324 785.308 397.368 784.251 394.187 783.113C393.607 782.905 393.019 782.695 392.422 782.481C390.95 781.952 389.428 781.401 387.881 780.819L320.928 823.363C313.142 828.518 304.295 831.394 294.855 830.214C285.512 829.046 277.629 824.158 271.186 817.728C271.171 817.714 271.157 817.7 271.143 817.686L222.923 770.232L222.692 769.982C216.699 763.489 212.18 755.626 211.195 746.431C210.203 737.168 212.996 728.433 218.15 720.637L260.899 652.66C259.993 650.34 259.01 647.954 257.944 645.367C257.036 643.165 256.069 640.818 255.038 638.24C252.852 632.775 251.04 627.345 249.412 622.123L171.965 604.835L171.886 604.817C163.455 602.833 155.361 598.969 149.464 591.893C143.484 584.717 141.125 575.876 141.125 566.61V498.718C141.125 489.674 143.562 480.969 149.36 473.846C155.121 466.769 163.126 462.572 171.886 460.51L171.965 460.492L249.991 443.075C250.45 441.787 250.911 440.47 251.387 439.112L251.43 438.987C252.737 435.252 254.159 431.191 255.8 427.088C256.829 424.516 257.731 422.032 258.693 419.384C259.068 418.353 259.452 417.296 259.856 416.2C260.333 414.905 260.835 413.563 261.369 412.202L218.913 344.69C213.779 336.925 210.956 328.178 211.961 318.964C212.968 309.735 217.609 301.938 223.848 295.7L271.906 247.641C278.357 241.19 286.254 236.283 295.617 235.113C305.057 233.933 313.903 236.809 321.689 241.963L388.644 284.508C390.191 283.926 391.713 283.375 393.185 282.846C393.781 282.632 394.369 282.422 394.949 282.215C398.13 281.077 401.086 280.019 404.057 278.831L404.335 278.72C409.348 276.715 414.669 274.586 420.126 272.655L437.461 194.996L437.48 194.916C439.463 186.486 443.327 178.391 450.403 172.495ZM465.09 201.338L444.23 294.79L436.278 297.175C429.36 299.251 422.325 302.054 414.585 305.15C411.083 306.551 407.565 307.808 404.396 308.942C403.84 309.14 403.295 309.335 402.762 309.526C399.057 310.856 395.867 312.04 392.955 313.334L386.011 316.42L306.234 265.729L306.105 265.642C302.482 263.227 300.317 263.093 299.133 263.241C297.817 263.405 295.416 264.22 291.95 267.686L243.892 315.744C240.976 318.659 240.278 320.779 240.141 322.039C240.009 323.247 240.188 325.501 242.611 329.136L242.716 329.293L293.595 410.198L290.028 417.331C288.878 419.631 287.769 422.434 286.455 426C286.144 426.844 285.816 427.746 285.474 428.688C284.465 431.465 283.331 434.587 282.12 437.615C280.728 441.094 279.493 444.617 278.142 448.476L278.099 448.6C276.792 452.335 275.37 456.396 273.729 460.5L270.952 467.441L178.308 488.12C174.149 489.111 172.253 490.624 171.344 491.741C170.467 492.819 169.472 494.793 169.472 498.718V566.61C169.472 571.074 170.546 572.912 171.24 573.746C172.014 574.674 173.821 576.14 178.305 577.206L271.759 598.066L274.145 606.018C276.459 613.734 278.577 620.763 281.357 627.712C282.119 629.618 282.932 631.59 283.76 633.6C285.949 638.913 288.248 644.495 290.034 649.853L292.153 656.209L241.953 736.034L241.849 736.191C239.446 739.795 239.236 742.061 239.381 743.411C239.536 744.863 240.325 747.223 243.314 750.528L291.147 797.602L291.187 797.642C294.653 801.108 297.054 801.922 298.371 802.086C299.554 802.234 301.719 802.1 305.342 799.685L305.472 799.599L385.248 748.907L392.192 751.993C395.104 753.288 398.294 754.471 401.999 755.801C402.532 755.992 403.078 756.187 403.634 756.386C406.804 757.519 410.32 758.776 413.822 760.177C420.703 762.929 427.724 765.051 435.935 767.291L444.195 769.543L465.181 864.401L465.234 864.701C465.93 868.646 467.255 870.233 468.138 870.952C469.077 871.716 471.158 872.825 475.687 872.825H543.579C548.463 872.825 550.594 871.735 551.446 871.082C552.112 870.571 553.352 869.317 554.032 865.464L554.085 865.164L575.071 770.306L583.331 768.054C591.542 765.814 598.563 763.692 605.444 760.94C608.147 759.858 611.043 758.652 613.937 757.446C618.294 755.631 622.645 753.818 626.328 752.437L632.904 749.971L713.004 800.343L713.161 800.448C716.784 802.863 718.949 802.997 720.132 802.849C721.448 802.685 723.85 801.87 727.315 798.404L727.356 798.364L775.189 751.29C778.178 747.986 778.966 745.626 779.122 744.174C779.267 742.824 779.057 740.558 776.654 736.954L776.578 736.841L725.104 656.308L728.2 649.341C731.262 642.452 734.208 635.819 737.146 628.475C739.925 621.526 742.044 614.496 744.358 606.781L746.749 598.812L840.969 577.967C845.121 576.976 847.013 575.465 847.921 574.349C848.798 573.271 849.794 571.297 849.794 567.372V499.48C849.794 495.016 848.72 493.178 848.025 492.344C847.252 491.416 845.448 489.953 840.972 488.887L746.749 468.041L744.358 460.072C742.044 452.356 739.925 445.327 737.146 438.378C736.383 436.472 735.571 434.5 734.743 432.489C732.554 427.177 730.254 421.595 728.468 416.237L726.35 409.881L776.549 330.056L776.654 329.899C779.077 326.264 779.257 324.01 779.125 322.801C778.988 321.542 778.289 319.422 775.374 316.507L727.315 268.448C723.85 264.982 721.448 264.168 720.132 264.004C718.949 263.856 716.784 263.99 713.161 266.405L713.004 266.51L632.099 317.388L624.966 313.822C619.269 310.974 613.202 308.299 606.635 306.329L606.03 306.148L605.444 305.913C598.563 303.161 591.542 301.039 583.331 298.799L575.053 296.542L554.153 201.237C554.152 201.232 554.151 201.226 554.15 201.221C553.051 196.288 551.57 194.679 550.871 194.113C550.194 193.565 548.411 192.503 543.579 192.503H475.687C471.222 192.503 469.384 193.576 468.55 194.271C467.622 195.045 466.156 196.852 465.09 201.338Z"
                    fill="white" fill-opacity="0.1" />
            </g>
        </g>
    </g>
    <defs>
        <clipPath id="clip0_2051_3623">
            <rect width="600" height="600" fill="white" />
        </clipPath>
        <clipPath id="clip1_2051_3623">
            <rect width="600" height="601" rx="5" fill="white" />
        </clipPath>
    </defs>
</svg>