<svg width="600" height="600" viewBox="0 0 600 600" fill="none" xmlns="http://www.w3.org/2000/svg">
    <g clip-path="url(#clip0_2051_3623)">
        <g clip-path="url(#clip1_2051_3623)">
            <g opacity="0.1">
                <path fill-rule="evenodd" clip-rule="evenodd"
                    d="M560.816 506.933C563.452 506.933 565.589 509.069 565.589 511.705V520.773C568.342 521.011 570.957 522.178 572.962 524.122C574.944 526.044 576.187 528.591 576.459 531.325H586.476C589.112 531.325 591.249 533.462 591.249 536.097C591.249 538.733 589.112 540.87 586.476 540.87H576.516V552.045H586.476C589.112 552.045 591.249 554.182 591.249 556.818C591.249 559.454 589.112 561.591 586.476 561.591H576.439C576.129 564.253 574.899 566.728 572.962 568.605C570.976 570.53 568.392 571.694 565.668 571.947V581.377C565.668 584.013 563.531 586.15 560.895 586.15C558.26 586.15 556.123 584.013 556.123 581.377V572H543.944V581.377C543.944 584.013 541.807 586.15 539.171 586.15C536.535 586.15 534.399 584.013 534.399 581.377V571.888C529.101 571.165 524.781 566.999 524.167 561.591H514.124C511.488 561.591 509.352 559.454 509.352 556.818C509.352 554.182 511.488 552.045 514.124 552.045H524.091V540.87H514.124C511.488 540.87 509.352 538.733 509.352 536.097C509.352 533.462 511.488 531.325 514.124 531.325H524.148C524.42 528.593 525.661 526.047 527.641 524.126C529.494 522.328 531.868 521.194 534.391 520.844V511.712C534.391 509.076 536.528 506.94 539.164 506.94C541.8 506.94 543.937 509.076 543.937 511.712V520.728H556.043V511.705C556.043 509.069 558.18 506.933 560.816 506.933ZM536.055 530.273C535.362 530.278 534.73 530.547 534.289 530.976C533.852 531.4 533.637 531.94 533.637 532.468V560.26C533.637 561.337 534.58 562.454 536.043 562.454H564.549C565.242 562.451 565.875 562.181 566.317 561.752C566.756 561.328 566.97 560.787 566.97 560.26V532.468C566.97 531.94 566.756 531.4 566.317 530.975C565.875 530.546 565.242 530.276 564.548 530.273H536.055Z"
                    fill="white" />
                <path fill-rule="evenodd" clip-rule="evenodd"
                    d="M454.805 500.983C454.805 485.98 466.967 473.818 481.969 473.818H618.633C633.636 473.818 645.798 485.98 645.798 500.983V592.092C645.798 607.095 633.636 619.257 618.634 619.257H481.969C466.967 619.257 454.805 607.095 454.805 592.092V500.983ZM481.969 485.273C473.293 485.273 466.259 492.307 466.259 500.983V592.092C466.259 600.769 473.293 607.803 481.969 607.803H618.634C627.31 607.803 634.344 600.769 634.344 592.092V500.983C634.344 492.307 627.31 485.273 618.633 485.273H481.969Z"
                    fill="white" />
                <path fill-rule="evenodd" clip-rule="evenodd"
                    d="M364.727 460.454C364.727 434.095 386.095 412.727 412.454 412.727H687.363C713.722 412.727 735.09 434.095 735.09 460.454V643.727C735.09 670.086 713.722 691.454 687.363 691.454H412.454C386.095 691.454 364.727 670.086 364.727 643.727V460.454ZM412.454 428C394.53 428 379.999 442.53 379.999 460.454V643.727C379.999 661.651 394.53 676.182 412.454 676.182H687.363C705.287 676.182 719.817 661.651 719.817 643.727V460.454C719.817 442.53 705.287 428 687.363 428H412.454Z"
                    fill="white" fill-opacity="0.5" />
                <path fill-rule="evenodd" clip-rule="evenodd"
                    d="M254 384.091C254 345.08 285.625 313.455 324.636 313.455H775.182C814.193 313.455 845.818 345.08 845.818 384.091V689.545C845.818 728.557 814.193 760.182 775.182 760.182H324.636C285.625 760.182 254 728.557 254 689.545V384.091ZM324.636 336.364C298.277 336.364 276.909 357.732 276.909 384.091V689.545C276.909 715.905 298.277 737.273 324.636 737.273H775.182C801.541 737.273 822.909 715.905 822.909 689.545V384.091C822.909 357.732 801.541 336.364 775.182 336.364H324.636Z"
                    fill="white" fill-opacity="0.2" />
                <path fill-rule="evenodd" clip-rule="evenodd"
                    d="M86 273.364C86 219.591 129.591 176 183.364 176H916.454C970.227 176 1013.82 219.591 1013.82 273.364V777.364C1013.82 831.136 970.227 874.727 916.454 874.727H183.364C129.591 874.727 86 831.136 86 777.364V273.364ZM183.364 206.545C146.461 206.545 116.545 236.461 116.545 273.364V777.364C116.545 814.266 146.461 844.182 183.364 844.182H916.454C953.357 844.182 983.273 814.266 983.273 777.364V273.364C983.273 236.461 953.357 206.545 916.454 206.545H183.364Z"
                    fill="white" fill-opacity="0.1" />
            </g>
        </g>
    </g>
    <defs>
        <clipPath id="clip0_2051_3623">
            <rect width="600" height="600" fill="white" />
        </clipPath>
        <clipPath id="clip1_2051_3623">
            <rect x="-776" y="-156" width="1375" height="756" rx="5" fill="white" />
        </clipPath>
    </defs>
</svg>